<svg xmlns="http://www.w3.org/2000/svg" viewBox="0 0 28.86 27.48"><defs><style>.cls-1{fill:#b14d74;}</style></defs><title>Risorsa 13</title><g id="Livello_2" data-name="Livello 2"><g id="Livello_10" data-name="Livello 10"><path class="cls-1" d="M2.17,24.74V24H3.39C4,18.07,7,14.22,12.89,12.81a1.9,1.9,0,0,1,.58-2.72,1.79,1.79,0,0,1,2.15.15c.72.61.82,1.37.37,2.54,5.55,1.68,9.15,5,9.4,11.21H26.7v.75ZM24.6,24c0-4.48-2.26-7.47-6-9.39a9,9,0,0,0-9.9.86A10.54,10.54,0,0,0,4.21,24ZM14.42,12.75a1.06,1.06,0,0,0,1.12-1.08,1.1,1.1,0,0,0-1.1-1.12,1.14,1.14,0,0,0-1.13,1.1A1.11,1.11,0,0,0,14.42,12.75Z"/><path class="cls-1" d="M0,26.47l.27-.55c.09,0,.14,0,.16,0a6.89,6.89,0,0,0,3.89.81c6.73,0,13.48,0,20.22,0,1.37,0,2.76.1,4-.94l.36.7a6.71,6.71,0,0,1-3.05,1q-11.13-.07-22.28,0A6.4,6.4,0,0,1,0,26.47Z"/><path class="cls-1" d="M22.08,19.21c-.08.1-.18.29-.25.29a.88.88,0,0,1-.52-.2c-.68-.66-1.31-1.39-2-2a14.06,14.06,0,0,0-1.55-.92c-.15-.09-.21-.34-.31-.51.19,0,.42-.21.57-.15a8.73,8.73,0,0,1,3.92,3.16A3.25,3.25,0,0,1,22.08,19.21Z"/><path class="cls-1" d="M23.12,22.64a3.26,3.26,0,0,1-.44-.5,10.28,10.28,0,0,1-.5-1.41c0-.16.12-.37.19-.57.16.1.4.16.47.3a8.5,8.5,0,0,1,.53,1.46C23.41,22.08,23.25,22.3,23.12,22.64Z"/><path class="cls-1" d="M8.85,8.73H8.08a1.94,1.94,0,0,1,.21-1,2.32,2.32,0,0,1,2.16-1.39h8.64a1.14,1.14,0,0,0,.48-.09A.76.76,0,0,0,20,5.38a.78.78,0,0,0-.78-.62H12.46a1.59,1.59,0,1,1,0-3.18c1,0,2,0,3,0A1.63,1.63,0,0,0,17.24,0H18a2.26,2.26,0,0,1-.39,1.3,2.33,2.33,0,0,1-2,1.07h-3.1a.8.8,0,1,0,0,1.59h6.6a1.59,1.59,0,0,1,1.31.59,1.51,1.51,0,0,1,.2,1.68,1.5,1.5,0,0,1-1.44.91H10.63A1.62,1.62,0,0,0,8.85,8.73Z"/></g></g></svg>