<svg xmlns="http://www.w3.org/2000/svg" viewBox="0 0 28.21 26.8"><defs><style>.cls-1{fill:#b14d74;}</style></defs><title>Risorsa 14</title><g id="Livello_2" data-name="Livello 2"><g id="Livello_10" data-name="Livello 10"><path class="cls-1" d="M18.47,5.37H14.14v.79c0,.88,0,1.77,0,2.66,0,.29.12.71-.35.71s-.4-.43-.4-.74c0-1,0-2.08,0-3.13A.91.91,0,0,0,13,4.83c-.58-.42-1.13-.88-1.72-1.34-.6.51-1.2,1-1.77,1.52a.9.9,0,0,0-.15.58c0,1.1,0,2.2,0,3.3,0,.29,0,.64-.39.65s-.36-.37-.37-.65c0-1.22,0-2.44,0-3.65a2.31,2.31,0,0,1,.33-.74.1.1,0,0,1,.05,0,5.65,5.65,0,0,1,4.78-1.92c1.9,0,3.49.33,4.85,1.72a1.64,1.64,0,0,1,.63,1.36c0,1.1,0,2.2,0,3.3,0,.21-.19.57-.34.59-.41.07-.4-.3-.4-.59Zm-5.87-2-.06.17c.48.34.93.91,1.45,1a28,28,0,0,0,3.55.05l.06-.15c-.5-.35-1-.92-1.5-1A27.21,27.21,0,0,0,12.6,3.38Z"/><path class="cls-1" d="M11.62,10.52c.08-.09.25-.35.3-.33a.92.92,0,0,1,.47.39c.42.89.71,1.84,1.2,2.69a23.41,23.41,0,0,0,8,8c1.43.92,3,1.67,4.42,2.53.17.09.23.37.34.56-.22,0-.48.17-.64.1a31.06,31.06,0,0,1-11.55-8.91A14.62,14.62,0,0,1,11.73,11C11.7,10.84,11.68,10.73,11.62,10.52Z"/><path class="cls-1" d="M10.43,11.53A17.33,17.33,0,0,0,16,23.59c.91.89,1.94,1.64,2.92,2.46.2.17.53.35.25.63a.72.72,0,0,1-.68,0c-4.19-3-7.22-6.79-8.36-11.89a30,30,0,0,1-.41-3.68,1,1,0,0,1,.05-.51,1.69,1.69,0,0,1,.41-.39c.1.14.26.28.29.43A7.22,7.22,0,0,1,10.43,11.53Z"/><path class="cls-1" d="M28.21,20.08c-.13.48-.39.49-.7.36-1.15-.51-2.33-1-3.43-1.53A38,38,0,0,1,14,11.07c-.11-.11-.25-.22-.28-.36a.59.59,0,0,1,.09-.45.43.43,0,0,1,.4,0,2.25,2.25,0,0,1,.42.4,36.51,36.51,0,0,0,11.72,8.51c.48.21,1,.38,1.45.59A2.11,2.11,0,0,1,28.21,20.08Z"/><path class="cls-1" d="M6.61,18.49a24.94,24.94,0,0,1,1.22-7.72c0-.07,0-.17.09-.21a4.57,4.57,0,0,1,.49-.38c.07.21.23.43.19.62-.24,1-.58,2-.78,3a17.79,17.79,0,0,0,.95,11.06c.21.45.5.87.69,1.33.08.18,0,.43,0,.65-.2-.1-.5-.14-.6-.3a14.18,14.18,0,0,1-2-5.46C6.72,20.05,6.66,19.05,6.61,18.49Z"/><path class="cls-1" d="M23.55,5.81c-.25,1-.44,1.93-.74,2.86a1.13,1.13,0,0,1-1.1.88,1.16,1.16,0,0,1-1.11-.87,7.56,7.56,0,0,1,0-5.76A1.23,1.23,0,0,1,21.71,2a1.18,1.18,0,0,1,1.13.94C23.12,3.86,23.31,4.82,23.55,5.81Zm-.78,0c-.2-.87-.38-1.73-.62-2.58,0-.18-.3-.31-.45-.47a1.77,1.77,0,0,0-.42.45,6.66,6.66,0,0,0,0,5.13c.07.19.3.31.46.47.15-.17.38-.31.43-.5C22.39,7.49,22.57,6.66,22.77,5.8Z"/><path class="cls-1" d="M.92,23.68a23.56,23.56,0,0,1,2.69-9c.71-1.38,1.57-2.69,2.38-4a1.32,1.32,0,0,1,.45-.43.39.39,0,0,1,.34.09,1,1,0,0,1,0,.57c-.51.84-1.09,1.64-1.58,2.5a25.51,25.51,0,0,0-3.36,9.29c-.07.44-.11.89-.15,1.33,0,.27,0,.61-.42.52-.14,0-.21-.36-.3-.57A1,1,0,0,1,.92,23.68Z"/><path class="cls-1" d="M8,5.88c-.22.94-.4,1.86-.67,2.75a1.15,1.15,0,0,1-1.13.92,1.2,1.2,0,0,1-1.1-.9,7.29,7.29,0,0,1,0-5.58,1.21,1.21,0,0,1,1.13-.92,1.19,1.19,0,0,1,1.11,1C7.6,4,7.76,4.93,8,5.88ZM6.16,9a5.43,5.43,0,0,0,.55-.87,6.73,6.73,0,0,0,0-4.64,2.31,2.31,0,0,0-.49-.61c-.17.2-.35.39-.5.59a.93.93,0,0,0-.12.33,7.22,7.22,0,0,0,0,4A9.49,9.49,0,0,0,6.16,9Z"/><path class="cls-1" d="M27.78,16.42l-.35-.11a51.13,51.13,0,0,1-10.5-4.95,4,4,0,0,1-.74-.54.49.49,0,0,1-.06-.49c.07-.09.32-.07.49-.09s.06,0,.1.06a48,48,0,0,0,10.85,5.27c.12,0,.29.06.36.15a.7.7,0,0,1,.2.47C28.11,16.29,27.88,16.36,27.78,16.42Z"/><path class="cls-1" d="M23.31,10.15h4a1.07,1.07,0,0,1,.4,0,2.87,2.87,0,0,1,.46.4c-.15.12-.29.33-.45.34-.63,0-1.27,0-1.91,0H19.27c-.08,0-.17,0-.23,0s-.37-.25-.56-.37c.18-.13.36-.36.55-.37.88,0,1.77,0,2.66,0Z"/><path class="cls-1" d="M2.46,7.35A10.68,10.68,0,0,1,2,9a1,1,0,0,1-.73.51A1,1,0,0,1,.53,9a4,4,0,0,1,0-3.41,1,1,0,0,1,.78-.54A1,1,0,0,1,2,5.59,13.77,13.77,0,0,1,2.46,7.35ZM1.22,8.79a2.81,2.81,0,0,0,0-2.95A3.78,3.78,0,0,0,1.22,8.79Z"/><path class="cls-1" d="M.19,15.73c0-.21-.2-.46-.13-.62a8.57,8.57,0,0,1,.79-1.34,15,15,0,0,1,3.53-3.4c.23-.16.47-.36.71,0s0,.49-.26.65A12.89,12.89,0,0,0,.71,15.44a3.39,3.39,0,0,0-.15.45Z"/><path class="cls-1" d="M17.69,2.78A17.41,17.41,0,0,1,18.51.62a1,1,0,0,1,1.86,0,3.09,3.09,0,0,1,.44,1c0,.16-.13.38-.21.57a1.86,1.86,0,0,1-.49-.37c-.14-.22-.19-.51-.33-.74-.22-.38-.51-.37-.67,0-.23.57-.35,1.18-.56,1.75-.07.17-.27.3-.41.44Z"/><path class="cls-1" d="M8.29.91a7.53,7.53,0,0,1-.55.88,2,2,0,0,1-.52.32c0-.21-.18-.45-.13-.63A2.23,2.23,0,0,1,7.56.7.94.94,0,0,1,9,.71,3.63,3.63,0,0,1,9.83,3c0,.13-.2.27-.3.41-.14-.11-.34-.2-.39-.34C9,2.64,9,2.23,8.82,1.85A8.77,8.77,0,0,0,8.29.91Z"/><path class="cls-1" d="M10.25,8.52c.1-.31.16-.86.32-.89a6.92,6.92,0,0,1,1.64,0c.06,0,.15.18.16.28a10.73,10.73,0,0,1,0,1.27.51.51,0,0,1-.37.34c-.12,0-.3-.2-.35-.35a6.26,6.26,0,0,1,0-.63c0-.1-.14-.18-.22-.26-.09.09-.24.17-.26.27s0,.4,0,.57a1.66,1.66,0,0,1-.37.43,1.45,1.45,0,0,1-.36-.43,1.55,1.55,0,0,1,0-.57Z"/><path class="cls-1" d="M1.39,10.91a4.71,4.71,0,0,1-.92,0c-.17,0-.31-.25-.47-.38.14-.12.28-.34.43-.35a15.06,15.06,0,0,1,1.9,0c.16,0,.3.23.44.35-.15.13-.29.34-.46.38A4.7,4.7,0,0,1,1.39,10.91Z"/><path class="cls-1" d="M12.24,5.11l-.55.46c-.11-.16-.32-.33-.31-.5s.22-.32.34-.48Z"/><path class="cls-1" d="M11,6.26l-.56.46c-.12-.17-.32-.34-.31-.51s.22-.31.35-.47Z"/></g></g></svg>