<svg xmlns="http://www.w3.org/2000/svg" viewBox="0 0 25.91 24.84"><defs><style>.cls-1{fill:#b14d74;}</style></defs><title>Risorsa 11</title><g id="Livello_2" data-name="Livello 2"><g id="Livello_10" data-name="Livello 10"><path class="cls-1" d="M5.72,20.87a2.3,2.3,0,0,1,1.07-3.51A2.27,2.27,0,0,1,8,13.74a2.28,2.28,0,0,1,3.33-2.69,3.74,3.74,0,0,0-2-2.64c.06.36.11.7.16,1.05l0,0A5.83,5.83,0,0,0,7,7.89a1.56,1.56,0,0,0,.08.21l.59,1.11a.43.43,0,0,1,0,.52.44.44,0,0,1-.51.08,5.32,5.32,0,0,0-3.48,0c-.13,0-.25.1-.41.16L4,10.9a6.11,6.11,0,0,0-2.84,1c.36.18.66.35,1,.48a8.41,8.41,0,0,0,2.56.62l.37,0a.3.3,0,0,1,.29.3.28.28,0,0,1-.3.29c-.29,0-.59,0-.87.08a4.34,4.34,0,0,0-2.55,1.46H2.2c.19,0,.38,0,.57,0s.22,0,.24.09a.33.33,0,0,1-.07.44c-.08.06-.18.1-.26.15A4.93,4.93,0,0,0,.81,17.56c0,.07-.08.16-.13.26a7.05,7.05,0,0,0,2,.09c.37,0,.73-.1,1.1-.12a.48.48,0,0,1,.35.13.29.29,0,0,1,0,.39l-.51.54c.32,0,.6,0,.88,0s.4.05.43.24-.09.31-.35.34a6.2,6.2,0,0,1-2.06-.14L2.4,19.2l.76-.63-.05-.08A8.17,8.17,0,0,1,0,18.23a4.27,4.27,0,0,1,1.78-2.39H.45a5.91,5.91,0,0,1,2.8-2.41,7.07,7.07,0,0,1-3-1.51,4.78,4.78,0,0,1,1.26-.86c.46-.21.93-.39,1.41-.59l-.55-.71A6.05,6.05,0,0,1,7,9.15L5.89,7a7.09,7.09,0,0,1,2.78,1c0-.28-.07-.51-.11-.78C10,8.06,11.33,9,11.81,10.64a2.05,2.05,0,0,1,.1.61,1.36,1.36,0,0,0,.2.71c.08.15.14.17.3.12a2.25,2.25,0,0,1,2.65,1.08,3.3,3.3,0,0,1,.19.49c0,.17.06.35.1.55a2.31,2.31,0,0,1,1.8.94,2.19,2.19,0,0,1,.45,1.4,2.28,2.28,0,0,1-.69,1.58,2.35,2.35,0,0,1-1.61.65,2.21,2.21,0,0,1-.84,2.07,2.26,2.26,0,0,1-2.17.39c0,.19,0,.36-.09.52a2.25,2.25,0,0,1-2.66,1.69.24.24,0,0,0-.32.15A2.17,2.17,0,0,1,7.1,24.83,2.07,2.07,0,0,1,5.17,23.5a2.19,2.19,0,0,1,.37-2.43Zm3.5-1.63c-.21-.35-.38-.65-.57-.95a.64.64,0,0,0-.2-.2,1.68,1.68,0,0,0-2.34,2.3c.07.12.13.14.27.1a2.24,2.24,0,0,1,3.08,2.18c0,.15,0,.21.19.23a1.66,1.66,0,0,0,1.9-1,1.68,1.68,0,0,0-.59-2,.63.63,0,0,0-.23-.08c-.29-.07-.59-.12-.87-.21-.12,0-.18,0-.24.08s-.3.43-.45.64-.28.25-.43.16-.17-.26,0-.46S9.06,19.46,9.22,19.24ZM5.55,22.59a1.7,1.7,0,0,0,1.7,1.69,1.7,1.7,0,1,0-1.7-1.69Zm5.24-6.79a1.7,1.7,0,1,0,1.67,1.74A1.71,1.71,0,0,0,10.79,15.8Zm2.32-3.23a1.7,1.7,0,0,0-1.73,1.54,1.7,1.7,0,1,0,3.39.24A1.7,1.7,0,0,0,13.11,12.57Zm-.26,4a.24.24,0,0,0,.26.25A2.27,2.27,0,0,1,15.05,18a.42.42,0,0,0,.27.16,1.69,1.69,0,0,0,1.73-1.59,1.74,1.74,0,0,0-1.56-1.79.25.25,0,0,0-.3.2,2.16,2.16,0,0,1-1.61,1.43C13.35,16.48,13.11,16.51,12.85,16.56ZM11,15.24s0-.05,0-.07a2.24,2.24,0,0,1,.58-2.62c.12-.11.07-.2,0-.3a1.64,1.64,0,0,0-2.1-.81,1.71,1.71,0,0,0-1,2c0,.16.13.2.28.21A2.18,2.18,0,0,1,10.62,15C10.71,15.25,10.82,15.3,11,15.24Zm.63,4.37c.15.26.29.5.44.74a1.07,1.07,0,0,0,.28.28,1.7,1.7,0,1,0,1.13-3.19l-.42-.07C12.79,18.83,12.68,19,11.65,19.61ZM8.51,17.4a2.25,2.25,0,0,1,1.61-2.06,1.69,1.69,0,0,0-1.51-1.09A1.74,1.74,0,0,0,7,15.34a1.69,1.69,0,0,0,.41,1.82.39.39,0,0,0,.14.08Z"/><path class="cls-1" d="M25.33,19.16a3.72,3.72,0,0,0-.39-.21,8.72,8.72,0,0,0-2.37-.45c-.36,0-.71,0-1.11-.06v.8c0,.26-.1.39-.29.39s-.28-.13-.28-.39c0-2.89,0-5.79,0-8.68,0-.22,0-.3-.28-.35a3.6,3.6,0,0,1-2.79-2.87A10,10,0,0,1,17.7,4.2,25.72,25.72,0,0,1,18.28.31.48.48,0,0,1,18.51,0c.21-.08.37.1.33.33-.07.39-.16.77-.23,1.15a20,20,0,0,0-.38,4.69,3.84,3.84,0,0,0,.87,2.47,2.59,2.59,0,0,0,3.13.76A3.27,3.27,0,0,0,24,6.78a15.33,15.33,0,0,0-.17-4.33c-.1-.68-.25-1.35-.37-2,0-.17,0-.34.17-.41a.32.32,0,0,1,.4.28A19.47,19.47,0,0,1,24.6,7a3.78,3.78,0,0,1-2.67,3.2c-.47.13-.47.13-.47.61v6.84c0,.22.07.26.27.27a10.25,10.25,0,0,1,3.3.51,2.36,2.36,0,0,1,.65.38.53.53,0,0,1,0,.89,2.77,2.77,0,0,1-.89.45,12.93,12.93,0,0,1-3.72.42,12.9,12.9,0,0,1-3.44-.4c-.14,0-.27-.1-.41-.15a.27.27,0,0,1-.19-.38.27.27,0,0,1,.38-.15,7.69,7.69,0,0,0,2.12.43,14.94,14.94,0,0,0,5-.3,7.61,7.61,0,0,0,.79-.31Z"/><path class="cls-1" d="M15.92,10.37c-.34-.18-.66-.34-1-.52a10.39,10.39,0,0,1-2.61-2.2c-.15-.18-.16-.33,0-.44s.28-.11.44.08a9.68,9.68,0,0,0,4,2.79l2.84,1,.13,0a.27.27,0,0,1,.15.36.26.26,0,0,1-.34.17l-.3-.12c-.53-.19-1.06-.41-1.6-.58a2,2,0,0,0-2.51.87c-.06.09-.11.18-.18.27a.29.29,0,0,1-.42.08.27.27,0,0,1,0-.41A3.55,3.55,0,0,1,15.92,10.37Z"/><path class="cls-1" d="M21.17,3.43H19.08c-.19,0-.31-.09-.3-.29s.12-.27.3-.28h4.18c.19,0,.32.09.32.28s-.12.29-.32.29H21.17Z"/></g></g></svg>