<svg xmlns="http://www.w3.org/2000/svg" xmlns:xlink="http://www.w3.org/1999/xlink" viewBox="0 0 781.67 585.47"><defs><style>.cls-1,.cls-2{fill:none;}.cls-1{clip-rule:evenodd;}.cls-3{clip-path:url(#clip-path);}.cls-4{fill:#fff;}.cls-5{clip-path:url(#clip-path-2);}.cls-6{clip-path:url(#clip-path-3);}.cls-7{clip-path:url(#clip-path-4);}.cls-8{clip-path:url(#clip-path-5);}.cls-9{clip-path:url(#clip-path-6);}.cls-10{clip-path:url(#clip-path-7);}.cls-11{clip-path:url(#clip-path-8);}.cls-12{clip-path:url(#clip-path-9);}.cls-13{opacity:0.19;fill:url(#Nuovo_pattern_2);}</style><clipPath id="clip-path"><polyline class="cls-1" points="534.92 385.71 257.18 385.71 257.18 183.71 534.92 183.71"/></clipPath><clipPath id="clip-path-2"><polyline class="cls-1" points="271.3 385.71 -6.45 385.71 -6.45 183.71 271.3 183.71"/></clipPath><clipPath id="clip-path-3"><polyline class="cls-1" points="7.68 385.71 -270.07 385.71 -270.07 183.71 7.68 183.71"/></clipPath><clipPath id="clip-path-4"><polyline class="cls-1" points="534.92 195.9 257.18 195.9 257.18 -6.1 534.92 -6.1"/></clipPath><clipPath id="clip-path-5"><polyline class="cls-1" points="271.3 195.9 -6.45 195.9 -6.45 -6.1 271.3 -6.1"/></clipPath><clipPath id="clip-path-6"><polyline class="cls-1" points="7.68 195.9 -270.07 195.9 -270.07 -6.1 7.68 -6.1"/></clipPath><clipPath id="clip-path-7"><polyline class="cls-1" points="534.92 6.1 257.18 6.1 257.18 -195.9 534.92 -195.9"/></clipPath><clipPath id="clip-path-8"><polyline class="cls-1" points="271.3 6.1 -6.45 6.1 -6.45 -195.9 271.3 -195.9"/></clipPath><clipPath id="clip-path-9"><polyline class="cls-1" points="7.68 6.1 -270.07 6.1 -270.07 -195.9 7.68 -195.9"/></clipPath><pattern id="Nuovo_pattern_2" data-name="Nuovo pattern 2" width="263.62" height="189.81" patternTransform="translate(205.12 353.66) scale(0.39)" patternUnits="userSpaceOnUse" viewBox="0 0 263.62 189.81"><rect class="cls-2" width="263.62" height="189.81"/><g class="cls-3"><path class="cls-4" d="M528.31,187.69c-8.76,0-15.67-3-22.34-5.82-6.84-2.92-13.3-5.69-21.75-5.69s-14.9,2.76-21.74,5.69c-6.68,2.86-13.58,5.82-22.34,5.82s-15.67-3-22.34-5.82c-6.84-2.92-13.3-5.69-21.75-5.69s-14.91,2.76-21.74,5.69-13.58,5.82-22.35,5.82-15.66-3-22.33-5.82c-6.85-2.93-13.3-5.69-21.75-5.69s-14.91,2.76-21.74,5.69-13.59,5.82-22.35,5.82a40.41,40.41,0,0,1-10.69-1.47l.43-1.47a38.76,38.76,0,0,0,10.26,1.41c8.46,0,14.91-2.76,21.74-5.69s13.58-5.81,22.35-5.81,15.66,3,22.34,5.81,13.29,5.69,21.74,5.69,14.91-2.76,21.75-5.69c6.67-2.86,13.58-5.81,22.34-5.81s15.67,3,22.34,5.81c6.84,2.93,13.29,5.69,21.75,5.69s14.91-2.76,21.74-5.69,13.58-5.81,22.34-5.81,15.67,3,22.35,5.81,13.28,5.69,21.74,5.69a39.16,39.16,0,0,0,10.26-1.4l.43,1.46A40.41,40.41,0,0,1,528.31,187.69Z"/><path class="cls-4" d="M528.31,170.43c-8.77,0-15.67-3-22.34-5.81-6.84-2.93-13.3-5.69-21.75-5.69s-14.9,2.76-21.74,5.68c-6.67,2.86-13.57,5.82-22.34,5.82s-15.67-3-22.35-5.81c-6.83-2.93-13.29-5.69-21.74-5.69s-14.91,2.76-21.74,5.68-13.58,5.82-22.35,5.82-15.67-3-22.34-5.81c-6.84-2.93-13.29-5.69-21.74-5.69s-14.91,2.76-21.74,5.68c-6.68,2.86-13.58,5.82-22.35,5.82A40.3,40.3,0,0,1,253.1,169l.43-1.46a38.76,38.76,0,0,0,10.26,1.41c8.45,0,14.91-2.77,21.74-5.69s13.58-5.82,22.35-5.82,15.66,3,22.34,5.82c6.84,2.92,13.29,5.69,21.74,5.69s14.91-2.77,21.75-5.69c6.67-2.86,13.58-5.82,22.34-5.82s15.67,3,22.34,5.82c6.84,2.92,13.29,5.69,21.75,5.69s14.9-2.77,21.73-5.69,13.59-5.82,22.35-5.82,15.67,3,22.35,5.82,13.29,5.69,21.74,5.69a38.76,38.76,0,0,0,10.26-1.41L539,169A40.36,40.36,0,0,1,528.31,170.43Z"/><path class="cls-4" d="M263.79,154.17a42.08,42.08,0,0,1-11.92-1.78l1-3.37a38.51,38.51,0,0,0,10.94,1.64c8.25,0,14.62-2.73,21.35-5.61l1.38,3.22C279.76,151.17,272.76,154.17,263.79,154.17Z"/><path class="cls-4" d="M263.79,153.17a40.36,40.36,0,0,1-10.69-1.47l.43-1.46a38.76,38.76,0,0,0,10.26,1.41c8.08,0,14.33-2.52,20.83-5.3l.6,1.4C278.83,150.48,272.16,153.17,263.79,153.17Z"/></g><g class="cls-5"><path class="cls-4" d="M264.69,187.69c-8.77,0-15.67-3-22.34-5.82-6.84-2.92-13.3-5.69-21.75-5.69s-14.9,2.76-21.74,5.69c-6.68,2.86-13.58,5.82-22.35,5.82s-15.66-3-22.33-5.82c-6.85-2.92-13.3-5.69-21.75-5.69s-14.91,2.76-21.74,5.69c-6.68,2.86-13.59,5.82-22.35,5.82s-15.66-3-22.34-5.82c-6.84-2.93-13.3-5.69-21.74-5.69s-14.91,2.76-21.74,5.69S8.93,187.69.17,187.69a40.41,40.41,0,0,1-10.69-1.47l.43-1.47A38.76,38.76,0,0,0,.17,186.16c8.45,0,14.91-2.76,21.74-5.69,6.68-2.86,13.58-5.81,22.35-5.81s15.66,3,22.34,5.81c6.83,2.93,13.29,5.69,21.74,5.69s14.91-2.76,21.75-5.69c6.67-2.86,13.57-5.81,22.34-5.81s15.67,3,22.34,5.81c6.83,2.93,13.29,5.69,21.74,5.69s14.91-2.76,21.75-5.69c6.67-2.86,13.58-5.81,22.34-5.81s15.67,3,22.34,5.81c6.84,2.93,13.29,5.69,21.75,5.69a39.22,39.22,0,0,0,10.26-1.4l.43,1.46A40.41,40.41,0,0,1,264.69,187.69Z"/><path class="cls-4" d="M264.69,170.43c-8.77,0-15.67-3-22.35-5.81-6.83-2.93-13.29-5.69-21.74-5.69s-14.9,2.76-21.74,5.68c-6.68,2.86-13.58,5.82-22.35,5.82s-15.67-3-22.34-5.81c-6.84-2.93-13.29-5.69-21.74-5.69s-14.91,2.76-21.74,5.68c-6.68,2.86-13.58,5.82-22.35,5.82s-15.67-3-22.34-5.81c-6.84-2.93-13.3-5.69-21.74-5.69s-14.91,2.76-21.74,5.68c-6.68,2.86-13.58,5.82-22.35,5.82A40.3,40.3,0,0,1-10.52,169l.43-1.46A38.76,38.76,0,0,0,.17,168.91c8.45,0,14.9-2.77,21.74-5.69,6.68-2.86,13.58-5.82,22.35-5.82s15.66,3,22.34,5.82c6.84,2.92,13.29,5.69,21.74,5.69s14.91-2.77,21.75-5.69c6.67-2.86,13.57-5.82,22.34-5.82s15.67,3,22.34,5.82c6.84,2.92,13.29,5.69,21.74,5.69s14.91-2.77,21.74-5.69c6.68-2.86,13.59-5.82,22.35-5.82s15.67,3,22.34,5.82c6.84,2.92,13.3,5.69,21.75,5.69A38.82,38.82,0,0,0,275,167.5l.43,1.46A40.36,40.36,0,0,1,264.69,170.43Z"/><path class="cls-4" d="M264.69,153.17c-8.37,0-15-2.69-21.43-5.42l.6-1.4c6.5,2.78,12.75,5.3,20.83,5.3A38.76,38.76,0,0,0,275,150.24l.43,1.46A40.41,40.41,0,0,1,264.69,153.17Z"/><path class="cls-4" d="M176.51,154.17c-9,0-16-3-22.73-5.9l1.38-3.22c6.74,2.88,13.1,5.61,21.35,5.61s14.62-2.73,21.36-5.61l1.38,3.22C192.48,151.17,185.48,154.17,176.51,154.17Z"/><path class="cls-4" d="M176.51,153.17c-8.36,0-15-2.69-21.43-5.42l.6-1.4c6.5,2.78,12.76,5.3,20.83,5.3s14.34-2.52,20.84-5.3l.59,1.4C191.55,150.48,184.88,153.17,176.51,153.17Z"/><path class="cls-4" d="M88.34,154.17c-9,0-16-3-22.73-5.9L67,145.05c6.74,2.88,13.1,5.61,21.35,5.61s14.62-2.73,21.35-5.61l1.38,3.22C104.31,151.17,97.31,154.17,88.34,154.17Z"/><path class="cls-4" d="M88.34,153.17c-8.37,0-15-2.69-21.43-5.42l.6-1.4c6.5,2.78,12.75,5.3,20.83,5.3s14.33-2.52,20.83-5.3l.6,1.4C103.38,150.48,96.71,153.17,88.34,153.17Z"/><path class="cls-4" d="M.17,154.17a42.08,42.08,0,0,1-11.92-1.78l1-3.37A38.46,38.46,0,0,0,.17,150.66c8.25,0,14.61-2.73,21.35-5.61l1.38,3.22C16.13,151.17,9.14,154.17.17,154.17Z"/><path class="cls-4" d="M.17,153.17a40.3,40.3,0,0,1-10.69-1.47l.43-1.46A38.76,38.76,0,0,0,.17,151.65c8.08,0,14.33-2.52,20.83-5.3l.6,1.4C15.21,150.48,8.54,153.17.17,153.17Z"/></g><g class="cls-6"><path class="cls-4" d="M1.06,187.69c-8.76,0-15.66-3-22.33-5.82-6.84-2.92-13.3-5.69-21.75-5.69s-14.91,2.76-21.74,5.69c-6.68,2.86-13.58,5.82-22.35,5.82s-15.66-3-22.34-5.82c-6.84-2.92-13.29-5.69-21.74-5.69s-14.91,2.76-21.74,5.69-13.59,5.82-22.35,5.82-15.66-3-22.34-5.82c-6.84-2.93-13.3-5.69-21.75-5.69s-14.9,2.76-21.74,5.69c-6.68,2.86-13.58,5.82-22.34,5.82a40.36,40.36,0,0,1-10.69-1.47l.43-1.47a38.76,38.76,0,0,0,10.26,1.41c8.45,0,14.91-2.76,21.74-5.69s13.58-5.81,22.34-5.81,15.67,3,22.35,5.81c6.83,2.93,13.29,5.69,21.74,5.69s14.91-2.76,21.74-5.69c6.68-2.86,13.58-5.81,22.35-5.81s15.66,3,22.34,5.81,13.29,5.69,21.74,5.69,14.91-2.76,21.75-5.69c6.67-2.86,13.57-5.81,22.34-5.81s15.67,3,22.34,5.81c6.83,2.93,13.29,5.69,21.74,5.69a39.23,39.23,0,0,0,10.27-1.4l.42,1.46A40.3,40.3,0,0,1,1.06,187.69Z"/><path class="cls-4" d="M1.06,170.43c-8.76,0-15.67-3-22.34-5.81-6.83-2.93-13.29-5.69-21.74-5.69s-14.91,2.76-21.74,5.68c-6.68,2.86-13.58,5.82-22.35,5.82s-15.67-3-22.34-5.81c-6.84-2.93-13.29-5.69-21.74-5.69s-14.91,2.76-21.74,5.68c-6.68,2.86-13.58,5.82-22.35,5.82s-15.67-3-22.34-5.81c-6.84-2.93-13.3-5.69-21.75-5.69s-14.9,2.76-21.74,5.68c-6.67,2.86-13.58,5.82-22.34,5.82A40.3,40.3,0,0,1-274.14,169l.43-1.46a38.71,38.71,0,0,0,10.26,1.41c8.45,0,14.9-2.77,21.73-5.69s13.59-5.82,22.35-5.82,15.67,3,22.35,5.82c6.83,2.92,13.29,5.69,21.74,5.69s14.91-2.77,21.74-5.69c6.68-2.86,13.58-5.82,22.35-5.82s15.66,3,22.34,5.82c6.84,2.92,13.29,5.69,21.74,5.69s14.91-2.77,21.74-5.69S-51.79,157.4-43,157.4s15.67,3,22.34,5.82c6.84,2.92,13.29,5.69,21.74,5.69a38.84,38.84,0,0,0,10.27-1.41l.42,1.46A40.3,40.3,0,0,1,1.06,170.43Z"/><path class="cls-4" d="M1.06,153.17c-8.36,0-15-2.69-21.42-5.42l.59-1.4c6.5,2.78,12.76,5.3,20.83,5.3a38.84,38.84,0,0,0,10.27-1.41l.42,1.46A40.3,40.3,0,0,1,1.06,153.17Z"/></g><g class="cls-7"><path class="cls-4" d="M528.31,187.7c-8.76,0-15.66-2.95-22.33-5.81-6.85-2.93-13.3-5.7-21.76-5.7s-14.91,2.77-21.74,5.7-13.58,5.81-22.34,5.81-15.66-2.95-22.34-5.81c-6.84-2.93-13.3-5.7-21.75-5.7s-14.91,2.77-21.74,5.7S360.72,187.7,352,187.7s-15.66-2.95-22.33-5.81c-6.85-2.93-13.3-5.7-21.75-5.7S293,179,286.13,181.89c-6.68,2.86-13.58,5.81-22.34,5.81a40.36,40.36,0,0,1-10.69-1.47l.43-1.46a38.82,38.82,0,0,0,10.26,1.41c8.45,0,14.91-2.77,21.74-5.69s13.58-5.82,22.35-5.82,15.66,3,22.34,5.82c6.84,2.92,13.29,5.69,21.74,5.69s14.91-2.77,21.75-5.69c6.67-2.86,13.58-5.82,22.34-5.82s15.67,3,22.34,5.82c6.84,2.92,13.29,5.69,21.75,5.69s14.9-2.77,21.74-5.69c6.68-2.86,13.58-5.82,22.34-5.82s15.67,3,22.35,5.82,13.29,5.69,21.74,5.69a38.82,38.82,0,0,0,10.26-1.41l.43,1.46A40.36,40.36,0,0,1,528.31,187.7Z"/><path class="cls-4" d="M528.31,170.44c-8.77,0-15.67-2.95-22.34-5.81-6.84-2.93-13.29-5.69-21.75-5.69s-14.91,2.76-21.74,5.69-13.58,5.81-22.34,5.81-15.67-2.95-22.35-5.81c-6.83-2.93-13.29-5.69-21.74-5.69s-14.91,2.76-21.74,5.69-13.58,5.81-22.35,5.81-15.66-2.95-22.34-5.81c-6.84-2.93-13.29-5.69-21.74-5.69s-14.91,2.76-21.75,5.69c-6.67,2.86-13.58,5.81-22.34,5.81A40.36,40.36,0,0,1,253.1,169l.43-1.46a38.82,38.82,0,0,0,10.26,1.41c8.45,0,14.91-2.76,21.74-5.69s13.59-5.81,22.35-5.81,15.66,3,22.33,5.8c6.85,2.94,13.3,5.7,21.75,5.7s14.91-2.76,21.75-5.69c6.68-2.86,13.58-5.81,22.34-5.81s15.66,3,22.33,5.8c6.85,2.94,13.3,5.7,21.76,5.7s14.9-2.76,21.74-5.69c6.68-2.86,13.58-5.81,22.34-5.81s15.66,3,22.34,5.8c6.84,2.94,13.3,5.7,21.75,5.7a38.82,38.82,0,0,0,10.26-1.41L539,169A40.36,40.36,0,0,1,528.31,170.44Z"/><path class="cls-4" d="M528.31,153.19c-8.77,0-15.67-3-22.34-5.82-6.84-2.92-13.3-5.69-21.75-5.69s-14.9,2.76-21.74,5.69c-6.68,2.86-13.58,5.82-22.34,5.82s-15.67-3-22.35-5.82c-6.83-2.92-13.29-5.69-21.74-5.69s-14.91,2.76-21.74,5.69-13.58,5.82-22.35,5.82-15.66-3-22.34-5.82c-6.84-2.93-13.29-5.69-21.74-5.69s-14.91,2.76-21.74,5.69c-6.68,2.86-13.58,5.82-22.35,5.82a40.36,40.36,0,0,1-10.69-1.47l.43-1.46a39.16,39.16,0,0,0,10.26,1.4c8.46,0,14.91-2.76,21.74-5.69s13.58-5.81,22.35-5.81,15.66,3,22.34,5.81,13.29,5.69,21.74,5.69,14.91-2.76,21.75-5.69c6.67-2.86,13.58-5.81,22.34-5.81s15.67,3,22.34,5.81c6.84,2.93,13.29,5.69,21.75,5.69s14.91-2.76,21.74-5.69,13.58-5.81,22.34-5.81,15.67,3,22.35,5.81,13.28,5.69,21.74,5.69a39.16,39.16,0,0,0,10.26-1.4l.43,1.46A40.36,40.36,0,0,1,528.31,153.19Z"/><path class="cls-4" d="M528.31,135.93c-8.77,0-15.67-3-22.34-5.81-6.84-2.93-13.3-5.69-21.75-5.69s-14.91,2.76-21.74,5.69-13.58,5.81-22.34,5.81-15.67-3-22.35-5.81c-6.83-2.93-13.28-5.69-21.74-5.69s-14.91,2.76-21.74,5.68-13.58,5.82-22.35,5.82-15.66-3-22.34-5.81-13.29-5.69-21.74-5.69-14.91,2.76-21.74,5.68c-6.68,2.86-13.59,5.82-22.35,5.82a40.36,40.36,0,0,1-10.69-1.47l.43-1.46a38.76,38.76,0,0,0,10.26,1.41c8.45,0,14.91-2.77,21.74-5.69s13.58-5.82,22.35-5.82,15.66,3,22.34,5.82c6.84,2.92,13.29,5.69,21.74,5.69s14.91-2.77,21.74-5.69,13.59-5.82,22.35-5.82,15.67,3,22.34,5.82c6.84,2.92,13.29,5.69,21.75,5.69s14.9-2.77,21.73-5.69,13.59-5.82,22.35-5.82,15.67,3,22.35,5.82,13.29,5.69,21.74,5.69A38.82,38.82,0,0,0,538.57,133l.43,1.46A40.36,40.36,0,0,1,528.31,135.93Z"/><path class="cls-4" d="M528.31,118.67c-8.77,0-15.67-3-22.34-5.81-6.84-2.93-13.3-5.69-21.75-5.69s-14.9,2.76-21.74,5.69c-6.68,2.86-13.58,5.81-22.34,5.81s-15.67-3-22.35-5.81c-6.83-2.93-13.29-5.69-21.74-5.69s-14.91,2.76-21.74,5.69-13.58,5.81-22.35,5.81-15.66-3-22.34-5.81c-6.84-2.93-13.29-5.69-21.74-5.69s-14.91,2.76-21.74,5.69c-6.68,2.86-13.59,5.81-22.35,5.81a40.36,40.36,0,0,1-10.69-1.47l.43-1.46a38.76,38.76,0,0,0,10.26,1.41c8.45,0,14.91-2.76,21.74-5.69s13.58-5.81,22.35-5.81,15.66,2.95,22.34,5.81c6.84,2.93,13.29,5.69,21.74,5.69s14.91-2.76,21.75-5.69c6.67-2.86,13.58-5.81,22.34-5.81s15.67,2.95,22.34,5.81c6.84,2.93,13.29,5.69,21.75,5.69s14.9-2.76,21.73-5.69,13.59-5.81,22.35-5.81,15.67,2.95,22.35,5.81,13.29,5.69,21.74,5.69a38.76,38.76,0,0,0,10.26-1.41l.43,1.46A40.36,40.36,0,0,1,528.31,118.67Z"/><path class="cls-4" d="M528.31,101.42c-8.77,0-15.67-3-22.34-5.82-6.84-2.92-13.3-5.69-21.75-5.69s-14.9,2.77-21.74,5.69c-6.67,2.86-13.57,5.82-22.34,5.82s-15.67-3-22.35-5.82c-6.83-2.92-13.29-5.69-21.74-5.69s-14.91,2.77-21.74,5.69-13.58,5.82-22.35,5.82-15.67-3-22.34-5.82c-6.84-2.92-13.29-5.69-21.74-5.69S293,92.68,286.14,95.6c-6.68,2.86-13.58,5.82-22.35,5.82A40.77,40.77,0,0,1,253.1,100l.43-1.46a39.16,39.16,0,0,0,10.26,1.4c8.46,0,14.91-2.76,21.74-5.69s13.58-5.81,22.35-5.81,15.66,3,22.34,5.81,13.29,5.69,21.74,5.69,14.91-2.76,21.75-5.69c6.67-2.86,13.58-5.81,22.34-5.81s15.67,3,22.34,5.81c6.84,2.93,13.29,5.69,21.75,5.69s14.91-2.76,21.74-5.69,13.58-5.81,22.34-5.81,15.67,3,22.35,5.81,13.28,5.69,21.74,5.69a39.16,39.16,0,0,0,10.26-1.4L539,100A40.77,40.77,0,0,1,528.31,101.42Z"/><path class="cls-4" d="M528.31,84.16c-8.77,0-15.67-3-22.34-5.81-6.84-2.93-13.3-5.69-21.75-5.69s-14.91,2.76-21.74,5.69-13.58,5.81-22.34,5.81-15.67-3-22.35-5.81c-6.83-2.93-13.28-5.69-21.74-5.69s-14.91,2.76-21.74,5.68S360.73,84.16,352,84.16s-15.66-3-22.34-5.81-13.29-5.69-21.74-5.69S293,75.42,286.14,78.34c-6.68,2.87-13.59,5.82-22.35,5.82a40.36,40.36,0,0,1-10.69-1.47l.43-1.46a38.82,38.82,0,0,0,10.26,1.41c8.45,0,14.91-2.76,21.74-5.69s13.58-5.82,22.35-5.82,15.66,3,22.34,5.82c6.84,2.93,13.29,5.69,21.74,5.69S366.87,79.88,373.7,77s13.59-5.82,22.35-5.82,15.67,3,22.34,5.82c6.84,2.92,13.29,5.69,21.75,5.69S455,79.88,461.87,77s13.59-5.82,22.35-5.82,15.67,3,22.35,5.82,13.29,5.69,21.74,5.69a38.82,38.82,0,0,0,10.26-1.41l.43,1.46A40.36,40.36,0,0,1,528.31,84.16Z"/><path class="cls-4" d="M528.31,66.9c-8.77,0-15.67-3-22.34-5.81-6.84-2.93-13.3-5.69-21.75-5.69s-14.9,2.76-21.74,5.69C455.8,64,448.9,66.9,440.14,66.9s-15.67-3-22.35-5.81C411,58.16,404.5,55.4,396.05,55.4s-14.91,2.76-21.74,5.69S360.73,66.9,352,66.9s-15.66-3-22.34-5.81c-6.84-2.93-13.29-5.69-21.74-5.69S293,58.16,286.14,61.09c-6.68,2.86-13.59,5.81-22.35,5.81a40.36,40.36,0,0,1-10.69-1.47l.43-1.46a38.76,38.76,0,0,0,10.26,1.41c8.45,0,14.91-2.76,21.74-5.69s13.58-5.81,22.35-5.81,15.66,2.95,22.34,5.81c6.84,2.93,13.29,5.69,21.74,5.69s14.91-2.76,21.75-5.69c6.67-2.86,13.58-5.81,22.34-5.81s15.67,2.95,22.34,5.81c6.84,2.93,13.29,5.69,21.75,5.69s14.9-2.76,21.73-5.69,13.59-5.81,22.35-5.81,15.67,2.95,22.35,5.81,13.29,5.69,21.74,5.69A38.76,38.76,0,0,0,538.57,64l.43,1.46A40.36,40.36,0,0,1,528.31,66.9Z"/><path class="cls-4" d="M528.31,49.65c-8.77,0-15.67-3-22.34-5.82-6.84-2.92-13.29-5.69-21.75-5.69s-14.91,2.77-21.74,5.69-13.58,5.82-22.34,5.82-15.67-3-22.35-5.82c-6.83-2.92-13.29-5.69-21.74-5.69s-14.91,2.77-21.74,5.69S360.73,49.65,352,49.65s-15.66-3-22.34-5.82c-6.84-2.92-13.29-5.69-21.74-5.69S293,40.91,286.13,43.83c-6.67,2.86-13.58,5.82-22.34,5.82a40.36,40.36,0,0,1-10.69-1.47l.43-1.46a39.24,39.24,0,0,0,10.26,1.41c8.45,0,14.91-2.77,21.74-5.7s13.58-5.81,22.35-5.81,15.66,3,22.34,5.81c6.84,2.93,13.29,5.7,21.74,5.7s14.91-2.77,21.75-5.7c6.67-2.85,13.58-5.81,22.34-5.81s15.67,3,22.34,5.81c6.84,2.93,13.29,5.7,21.75,5.7s14.9-2.77,21.74-5.7c6.68-2.85,13.58-5.81,22.34-5.81s15.67,3,22.35,5.81,13.29,5.7,21.74,5.7a39.18,39.18,0,0,0,10.26-1.41l.43,1.46A40.36,40.36,0,0,1,528.31,49.65Z"/><path class="cls-4" d="M528.31,32.39c-8.77,0-15.67-2.95-22.34-5.81-6.84-2.93-13.3-5.69-21.75-5.69s-14.9,2.76-21.74,5.69c-6.68,2.86-13.58,5.81-22.34,5.81s-15.67-2.95-22.35-5.81c-6.83-2.93-13.29-5.69-21.74-5.69s-14.91,2.76-21.74,5.69S360.73,32.39,352,32.39s-15.66-2.95-22.34-5.81c-6.84-2.93-13.29-5.69-21.74-5.69S293,23.65,286.14,26.58c-6.68,2.86-13.59,5.81-22.35,5.81a40.41,40.41,0,0,1-10.69-1.47l.43-1.46a38.76,38.76,0,0,0,10.26,1.41c8.45,0,14.91-2.76,21.74-5.69s13.58-5.82,22.35-5.82,15.66,3,22.34,5.82c6.84,2.92,13.29,5.69,21.74,5.69s14.91-2.76,21.74-5.69,13.59-5.82,22.35-5.82,15.67,3,22.34,5.82c6.84,2.93,13.3,5.69,21.75,5.69s14.9-2.76,21.73-5.69,13.59-5.82,22.35-5.82,15.67,3,22.35,5.82,13.29,5.69,21.74,5.69a38.76,38.76,0,0,0,10.26-1.41l.43,1.46A40.41,40.41,0,0,1,528.31,32.39Z"/><path class="cls-4" d="M528.31,15.14c-8.77,0-15.67-3-22.34-5.82-6.84-2.93-13.29-5.69-21.75-5.69s-14.91,2.76-21.74,5.69-13.58,5.82-22.34,5.82-15.67-3-22.35-5.82C411,6.39,404.5,3.63,396.05,3.63s-14.91,2.76-21.74,5.69S360.73,15.14,352,15.14s-15.66-3-22.34-5.82c-6.84-2.93-13.29-5.69-21.74-5.69S293,6.39,286.13,9.32c-6.67,2.86-13.58,5.82-22.34,5.82a40.77,40.77,0,0,1-10.69-1.47l.43-1.47a38.82,38.82,0,0,0,10.26,1.41c8.45,0,14.91-2.76,21.74-5.69s13.59-5.81,22.35-5.81,15.66,2.95,22.33,5.81c6.85,2.93,13.3,5.69,21.75,5.69s14.91-2.76,21.75-5.69c6.68-2.86,13.58-5.81,22.34-5.81s15.66,2.95,22.33,5.81c6.85,2.93,13.3,5.69,21.76,5.69s14.9-2.76,21.74-5.69c6.68-2.86,13.58-5.81,22.34-5.81s15.66,2.95,22.34,5.81c6.84,2.93,13.3,5.69,21.75,5.69a38.82,38.82,0,0,0,10.26-1.41l.43,1.47A40.77,40.77,0,0,1,528.31,15.14Z"/></g><g class="cls-8"><path class="cls-4" d="M199.25,234.57l-1.38-3.23c6.76-2.89,13.76-5.89,22.73-5.89s16,3,22.73,5.89L242,234.57c-6.74-2.89-13.1-5.61-21.35-5.61S206,231.68,199.25,234.57Z"/><path class="cls-4" d="M199.17,231.86c6.4-2.73,13.06-5.42,21.43-5.42s15,2.69,21.43,5.42l-.6,1.4c-6.5-2.77-12.75-5.3-20.83-5.3s-14.33,2.53-20.83,5.3Z"/><path class="cls-4" d="M111.07,234.57l-1.38-3.23c6.77-2.89,13.77-5.89,22.74-5.89s16,3,22.73,5.89l-1.38,3.23c-6.74-2.89-13.1-5.61-21.35-5.61S117.81,231.68,111.07,234.57Z"/><path class="cls-4" d="M111,231.86c6.39-2.73,13.06-5.42,21.43-5.42s15,2.69,21.43,5.42l-.6,1.4c-6.5-2.77-12.76-5.3-20.83-5.3s-14.33,2.53-20.83,5.3Z"/><path class="cls-4" d="M65.61,234.57C58.87,231.68,52.5,229,44.26,229s-14.62,2.72-21.36,5.61l-1.38-3.23c6.77-2.89,13.77-5.89,22.74-5.89s16,3,22.73,5.89Z"/><path class="cls-4" d="M65.09,233.26c-6.51-2.77-12.76-5.3-20.83-5.3s-14.33,2.53-20.84,5.3l-.59-1.4c6.39-2.73,13.06-5.42,21.43-5.42s15,2.69,21.43,5.42Z"/><path class="cls-4" d="M264.69,222.21c-8.77,0-15.67-3-22.35-5.81-6.83-2.93-13.29-5.69-21.74-5.69s-14.91,2.76-21.74,5.69-13.58,5.81-22.35,5.81-15.66-3-22.34-5.81-13.29-5.69-21.74-5.69-14.91,2.76-21.74,5.69c-6.68,2.86-13.58,5.81-22.35,5.81s-15.67-3-22.34-5.81c-6.84-2.93-13.29-5.69-21.74-5.69s-14.91,2.76-21.74,5.69c-6.68,2.86-13.59,5.81-22.35,5.81a40.3,40.3,0,0,1-10.69-1.47l.43-1.46A38.76,38.76,0,0,0,.17,220.69c8.45,0,14.9-2.76,21.74-5.69,6.68-2.86,13.58-5.81,22.35-5.81S59.92,212.14,66.6,215c6.84,2.93,13.29,5.69,21.74,5.69s14.91-2.76,21.74-5.69,13.58-5.81,22.35-5.81,15.67,2.95,22.34,5.81c6.84,2.93,13.29,5.69,21.74,5.69s14.91-2.76,21.74-5.69c6.68-2.86,13.59-5.81,22.35-5.81s15.67,2.95,22.34,5.81c6.84,2.93,13.3,5.69,21.75,5.69A38.82,38.82,0,0,0,275,219.28l.43,1.46A40.41,40.41,0,0,1,264.69,222.21Z"/><path class="cls-4" d="M264.69,205c-8.77,0-15.67-3-22.35-5.82-6.83-2.92-13.28-5.69-21.74-5.69s-14.91,2.77-21.74,5.69S185.28,205,176.51,205s-15.66-3-22.34-5.82-13.29-5.69-21.74-5.69-14.91,2.77-21.75,5.69C104,202,97.11,205,88.34,205S72.67,202,66,199.14c-6.84-2.92-13.29-5.69-21.74-5.69s-14.91,2.77-21.75,5.69C15.84,202,8.93,205,.17,205a40.77,40.77,0,0,1-10.69-1.47l.43-1.47A38.76,38.76,0,0,0,.17,203.43c8.45,0,14.9-2.76,21.74-5.69,6.68-2.86,13.58-5.81,22.35-5.81s15.66,2.95,22.34,5.81c6.84,2.93,13.29,5.69,21.74,5.69s14.91-2.76,21.74-5.69,13.58-5.81,22.35-5.81,15.67,2.95,22.34,5.81c6.84,2.93,13.29,5.69,21.74,5.69s14.91-2.76,21.74-5.69c6.68-2.86,13.59-5.81,22.35-5.81s15.67,2.95,22.34,5.81c6.84,2.93,13.3,5.69,21.75,5.69A38.82,38.82,0,0,0,275,202l.43,1.47A40.83,40.83,0,0,1,264.69,205Z"/><path class="cls-4" d="M264.69,187.7c-8.76,0-15.66-2.95-22.34-5.81-6.84-2.93-13.3-5.7-21.75-5.7s-14.91,2.77-21.74,5.7-13.58,5.81-22.35,5.81-15.66-2.95-22.33-5.81c-6.84-2.93-13.3-5.7-21.75-5.7s-14.91,2.77-21.75,5.7c-6.68,2.86-13.58,5.81-22.34,5.81S72.68,184.75,66,181.89c-6.85-2.93-13.3-5.7-21.75-5.7s-14.91,2.77-21.75,5.7C15.83,184.75,8.93,187.7.17,187.7a40.3,40.3,0,0,1-10.69-1.47l.43-1.46A38.76,38.76,0,0,0,.17,186.18c8.45,0,14.91-2.77,21.74-5.69,6.68-2.86,13.58-5.82,22.35-5.82s15.66,3,22.34,5.82c6.83,2.92,13.29,5.69,21.74,5.69s14.91-2.77,21.75-5.69c6.67-2.86,13.57-5.82,22.34-5.82s15.67,3,22.34,5.82c6.83,2.92,13.29,5.69,21.74,5.69s14.91-2.77,21.75-5.69c6.67-2.86,13.58-5.82,22.34-5.82s15.67,3,22.34,5.82c6.84,2.92,13.29,5.69,21.75,5.69A38.82,38.82,0,0,0,275,184.77l.43,1.46A40.41,40.41,0,0,1,264.69,187.7Z"/><path class="cls-4" d="M264.69,170.44c-8.77,0-15.67-2.95-22.35-5.81-6.83-2.93-13.29-5.69-21.74-5.69s-14.91,2.76-21.74,5.69-13.58,5.81-22.35,5.81-15.66-2.95-22.34-5.81-13.29-5.69-21.74-5.69-14.91,2.76-21.75,5.69c-6.67,2.86-13.57,5.81-22.34,5.81S72.67,167.49,66,164.63c-6.84-2.93-13.29-5.69-21.74-5.69s-14.91,2.76-21.75,5.69c-6.67,2.86-13.58,5.81-22.34,5.81A40.3,40.3,0,0,1-10.52,169l.43-1.46A38.76,38.76,0,0,0,.17,168.92c8.45,0,14.91-2.76,21.74-5.69s13.59-5.81,22.35-5.81,15.66,3,22.33,5.8c6.84,2.94,13.3,5.7,21.75,5.7s14.91-2.76,21.75-5.69c6.68-2.86,13.58-5.81,22.34-5.81s15.66,3,22.33,5.8c6.84,2.94,13.3,5.7,21.75,5.7s14.91-2.76,21.75-5.69c6.68-2.86,13.58-5.81,22.34-5.81s15.66,3,22.33,5.8c6.85,2.94,13.3,5.7,21.76,5.7A38.82,38.82,0,0,0,275,167.51l.43,1.46A40.41,40.41,0,0,1,264.69,170.44Z"/><path class="cls-4" d="M264.69,153.19c-8.77,0-15.67-3-22.35-5.82-6.83-2.92-13.29-5.69-21.74-5.69s-14.9,2.76-21.74,5.69c-6.68,2.86-13.58,5.82-22.35,5.82s-15.66-3-22.34-5.82c-6.84-2.92-13.29-5.69-21.74-5.69s-14.91,2.76-21.74,5.69c-6.68,2.86-13.58,5.82-22.35,5.82s-15.67-3-22.34-5.82c-6.84-2.93-13.3-5.69-21.74-5.69s-14.91,2.76-21.74,5.69c-6.68,2.86-13.59,5.82-22.35,5.82a40.3,40.3,0,0,1-10.69-1.47l.43-1.46a39.16,39.16,0,0,0,10.26,1.4c8.45,0,14.91-2.76,21.74-5.69,6.68-2.86,13.58-5.81,22.35-5.81s15.66,3,22.34,5.81c6.83,2.93,13.29,5.69,21.74,5.69s14.91-2.76,21.75-5.69c6.67-2.86,13.57-5.81,22.34-5.81s15.67,3,22.34,5.81c6.83,2.93,13.29,5.69,21.74,5.69s14.91-2.76,21.75-5.69c6.67-2.86,13.58-5.81,22.34-5.81s15.67,3,22.34,5.81c6.84,2.93,13.29,5.69,21.75,5.69a39.22,39.22,0,0,0,10.26-1.4l.43,1.46A40.41,40.41,0,0,1,264.69,153.19Z"/><path class="cls-4" d="M264.69,135.93c-8.77,0-15.67-3-22.35-5.81-6.83-2.93-13.29-5.69-21.74-5.69s-14.91,2.76-21.74,5.69-13.58,5.81-22.35,5.81-15.66-3-22.34-5.81-13.29-5.69-21.74-5.69-14.91,2.76-21.74,5.68c-6.68,2.86-13.58,5.82-22.35,5.82S72.67,133,66,130.12c-6.84-2.93-13.29-5.69-21.74-5.69s-14.91,2.76-21.74,5.68C15.84,133,8.93,135.93.17,135.93a40.36,40.36,0,0,1-10.69-1.47l.43-1.46A38.76,38.76,0,0,0,.17,134.41c8.45,0,14.9-2.77,21.74-5.69,6.68-2.86,13.58-5.82,22.35-5.82s15.66,3,22.34,5.82c6.84,2.92,13.29,5.69,21.74,5.69s14.91-2.77,21.74-5.69,13.58-5.82,22.35-5.82,15.67,3,22.34,5.82c6.84,2.92,13.29,5.69,21.74,5.69s14.91-2.77,21.74-5.69c6.68-2.86,13.59-5.82,22.35-5.82s15.67,3,22.34,5.82c6.84,2.92,13.3,5.69,21.75,5.69A38.82,38.82,0,0,0,275,133l.43,1.46A40.41,40.41,0,0,1,264.69,135.93Z"/><path class="cls-4" d="M264.69,118.67c-8.77,0-15.67-3-22.35-5.81-6.83-2.93-13.29-5.69-21.74-5.69s-14.9,2.76-21.74,5.69c-6.68,2.86-13.58,5.81-22.35,5.81s-15.66-3-22.34-5.81c-6.84-2.93-13.29-5.69-21.74-5.69s-14.91,2.76-21.74,5.69c-6.68,2.86-13.58,5.81-22.35,5.81s-15.67-3-22.34-5.81c-6.84-2.93-13.3-5.69-21.74-5.69s-14.91,2.76-21.74,5.69c-6.68,2.86-13.59,5.81-22.35,5.81a40.36,40.36,0,0,1-10.69-1.47l.43-1.46A38.76,38.76,0,0,0,.17,117.15c8.45,0,14.9-2.76,21.74-5.69,6.68-2.86,13.58-5.81,22.35-5.81s15.66,2.95,22.34,5.81c6.84,2.93,13.29,5.69,21.74,5.69s14.91-2.76,21.75-5.69c6.67-2.86,13.57-5.81,22.34-5.81s15.67,2.95,22.34,5.81c6.84,2.93,13.29,5.69,21.74,5.69s14.91-2.76,21.74-5.69c6.68-2.86,13.59-5.81,22.35-5.81s15.67,2.95,22.34,5.81c6.84,2.93,13.3,5.69,21.75,5.69A38.82,38.82,0,0,0,275,115.74l.43,1.46A40.41,40.41,0,0,1,264.69,118.67Z"/><path class="cls-4" d="M264.69,101.42c-8.77,0-15.67-3-22.35-5.82-6.83-2.92-13.29-5.69-21.74-5.69s-14.9,2.77-21.74,5.69c-6.68,2.86-13.58,5.82-22.35,5.82s-15.67-3-22.34-5.82c-6.84-2.92-13.29-5.69-21.74-5.69s-14.91,2.77-21.74,5.69c-6.68,2.86-13.58,5.82-22.35,5.82S72.67,98.46,66,95.6c-6.84-2.92-13.3-5.69-21.74-5.69S29.35,92.68,22.52,95.6c-6.68,2.86-13.58,5.82-22.35,5.82A40.72,40.72,0,0,1-10.52,100l.43-1.46A39.16,39.16,0,0,0,.17,99.89c8.45,0,14.91-2.76,21.74-5.69,6.68-2.86,13.58-5.81,22.35-5.81s15.66,3,22.34,5.81c6.83,2.93,13.29,5.69,21.74,5.69s14.91-2.76,21.75-5.69c6.67-2.86,13.57-5.81,22.34-5.81s15.67,3,22.34,5.81c6.83,2.93,13.29,5.69,21.74,5.69s14.91-2.76,21.75-5.69c6.67-2.86,13.58-5.81,22.34-5.81s15.67,3,22.34,5.81c6.84,2.93,13.29,5.69,21.75,5.69A39.22,39.22,0,0,0,275,98.49l.43,1.46A40.77,40.77,0,0,1,264.69,101.42Z"/><path class="cls-4" d="M264.69,84.16c-8.77,0-15.67-3-22.35-5.81-6.83-2.93-13.29-5.69-21.74-5.69s-14.91,2.76-21.74,5.69-13.58,5.81-22.35,5.81-15.66-3-22.34-5.81-13.29-5.69-21.74-5.69-14.91,2.76-21.74,5.68c-6.68,2.87-13.58,5.82-22.35,5.82s-15.67-3-22.34-5.81c-6.84-2.93-13.29-5.69-21.74-5.69s-14.91,2.76-21.74,5.68C15.84,81.21,8.93,84.16.17,84.16a40.36,40.36,0,0,1-10.69-1.47l.43-1.46A38.76,38.76,0,0,0,.17,82.64c8.45,0,14.9-2.76,21.74-5.69,6.68-2.86,13.58-5.82,22.35-5.82s15.66,3,22.34,5.82c6.84,2.93,13.29,5.69,21.74,5.69s14.91-2.76,21.74-5.69,13.58-5.82,22.35-5.82,15.67,3,22.34,5.82c6.84,2.92,13.29,5.69,21.74,5.69s14.91-2.76,21.74-5.69c6.68-2.86,13.59-5.82,22.35-5.82s15.67,3,22.34,5.82c6.84,2.92,13.3,5.69,21.75,5.69A38.82,38.82,0,0,0,275,81.23l.43,1.46A40.41,40.41,0,0,1,264.69,84.16Z"/><path class="cls-4" d="M264.69,66.9c-8.77,0-15.67-3-22.35-5.81-6.83-2.93-13.29-5.69-21.74-5.69s-14.9,2.76-21.74,5.69c-6.68,2.86-13.58,5.81-22.35,5.81s-15.66-3-22.34-5.81c-6.84-2.93-13.29-5.69-21.74-5.69s-14.91,2.76-21.74,5.69C104,64,97.11,66.9,88.34,66.9S72.67,64,66,61.09c-6.84-2.93-13.3-5.69-21.74-5.69s-14.91,2.76-21.74,5.69C15.84,64,8.93,66.9.17,66.9a40.36,40.36,0,0,1-10.69-1.47l.43-1.46A38.76,38.76,0,0,0,.17,65.38c8.45,0,14.9-2.76,21.74-5.69,6.68-2.86,13.58-5.81,22.35-5.81s15.66,2.95,22.34,5.81c6.84,2.93,13.29,5.69,21.74,5.69s14.91-2.76,21.75-5.69c6.67-2.86,13.57-5.81,22.34-5.81s15.67,2.95,22.34,5.81c6.84,2.93,13.29,5.69,21.74,5.69s14.91-2.76,21.74-5.69c6.68-2.86,13.59-5.81,22.35-5.81s15.67,2.95,22.34,5.81c6.84,2.93,13.3,5.69,21.75,5.69A38.82,38.82,0,0,0,275,64l.43,1.46A40.41,40.41,0,0,1,264.69,66.9Z"/><path class="cls-4" d="M264.69,49.65c-8.77,0-15.67-3-22.35-5.82-6.83-2.92-13.29-5.69-21.74-5.69s-14.91,2.77-21.74,5.69-13.58,5.82-22.35,5.82-15.66-3-22.34-5.82-13.29-5.69-21.74-5.69-14.91,2.77-21.75,5.69c-6.67,2.86-13.57,5.82-22.34,5.82s-15.67-3-22.34-5.82c-6.84-2.92-13.29-5.69-21.74-5.69s-14.91,2.77-21.75,5.69C15.84,46.69,8.93,49.65.17,49.65a40.3,40.3,0,0,1-10.69-1.47l.43-1.46A39.18,39.18,0,0,0,.17,48.13c8.45,0,14.91-2.77,21.74-5.7,6.68-2.85,13.58-5.81,22.35-5.81s15.66,3,22.34,5.81c6.83,2.93,13.29,5.7,21.74,5.7s14.91-2.77,21.75-5.7c6.67-2.85,13.57-5.81,22.34-5.81s15.67,3,22.34,5.81c6.83,2.93,13.29,5.7,21.74,5.7s14.91-2.77,21.75-5.7c6.67-2.85,13.58-5.81,22.34-5.81s15.67,3,22.34,5.81c6.84,2.93,13.29,5.7,21.75,5.7A39.24,39.24,0,0,0,275,46.72l.43,1.46A40.41,40.41,0,0,1,264.69,49.65Z"/><path class="cls-4" d="M264.69,32.39c-8.77,0-15.67-2.95-22.35-5.81-6.83-2.93-13.29-5.69-21.74-5.69s-14.9,2.76-21.74,5.69c-6.68,2.86-13.58,5.81-22.35,5.81s-15.66-2.95-22.34-5.81c-6.84-2.93-13.29-5.69-21.74-5.69s-14.91,2.76-21.74,5.69c-6.68,2.86-13.58,5.81-22.35,5.81S72.67,29.44,66,26.58c-6.84-2.93-13.3-5.69-21.74-5.69s-14.91,2.76-21.74,5.69C15.84,29.44,8.93,32.39.17,32.39a40.36,40.36,0,0,1-10.69-1.47l.43-1.46A38.76,38.76,0,0,0,.17,30.87c8.45,0,14.9-2.76,21.74-5.69,6.68-2.86,13.58-5.82,22.35-5.82s15.66,3,22.34,5.82c6.83,2.92,13.29,5.69,21.74,5.69s14.91-2.76,21.74-5.69,13.58-5.82,22.35-5.82,15.67,3,22.34,5.82c6.84,2.93,13.29,5.69,21.74,5.69s14.91-2.76,21.74-5.69c6.68-2.86,13.59-5.82,22.35-5.82s15.67,3,22.34,5.82c6.84,2.92,13.3,5.69,21.75,5.69A38.82,38.82,0,0,0,275,29.46l.43,1.46A40.41,40.41,0,0,1,264.69,32.39Z"/><path class="cls-4" d="M264.69,15.14c-8.77,0-15.67-3-22.35-5.82-6.83-2.93-13.29-5.69-21.74-5.69s-14.91,2.76-21.74,5.69-13.58,5.82-22.35,5.82-15.66-3-22.34-5.82-13.29-5.69-21.74-5.69-14.91,2.76-21.75,5.69c-6.67,2.86-13.57,5.82-22.34,5.82S72.67,12.18,66,9.32C59.16,6.39,52.71,3.63,44.26,3.63S29.35,6.39,22.51,9.32C15.84,12.18,8.93,15.14.17,15.14a40.77,40.77,0,0,1-10.69-1.47l.43-1.47A38.76,38.76,0,0,0,.17,13.61c8.45,0,14.91-2.76,21.74-5.69S35.5,2.11,44.26,2.11,59.92,5.06,66.59,7.92c6.84,2.93,13.3,5.69,21.75,5.69s14.91-2.76,21.75-5.69c6.68-2.86,13.58-5.81,22.34-5.81s15.66,2.95,22.33,5.81c6.84,2.93,13.3,5.69,21.75,5.69s14.91-2.76,21.75-5.69c6.68-2.86,13.58-5.81,22.34-5.81s15.66,2.95,22.33,5.81c6.85,2.93,13.3,5.69,21.76,5.69A38.82,38.82,0,0,0,275,12.2l.43,1.47A40.83,40.83,0,0,1,264.69,15.14Z"/><path class="cls-4" d="M264.69-2.12c-8.77,0-15.67-3-22.34-5.81-6.84-2.93-13.3-5.7-21.75-5.7s-14.9,2.77-21.74,5.69c-6.68,2.86-13.58,5.82-22.35,5.82s-15.66-3-22.33-5.81c-6.85-2.93-13.3-5.7-21.75-5.7s-14.91,2.77-21.74,5.69C104-5.08,97.1-2.12,88.34-2.12S72.68-5.08,66-7.93c-6.84-2.93-13.3-5.7-21.74-5.7S29.35-10.86,22.52-7.94,8.93-2.12.17-2.12A40.41,40.41,0,0,1-10.52-3.59L-10.09-5A39.18,39.18,0,0,0,.17-3.64c8.45,0,14.91-2.77,21.74-5.69,6.68-2.86,13.58-5.82,22.35-5.82s15.66,3,22.34,5.82c6.83,2.92,13.29,5.69,21.74,5.69s14.91-2.77,21.75-5.69c6.67-2.86,13.57-5.82,22.34-5.82s15.67,3,22.34,5.82c6.83,2.92,13.29,5.69,21.74,5.69s14.91-2.77,21.75-5.69c6.67-2.86,13.58-5.82,22.34-5.82s15.67,3,22.34,5.82c6.84,2.92,13.29,5.69,21.75,5.69A39.24,39.24,0,0,0,275-5l.43,1.46A40.41,40.41,0,0,1,264.69-2.12Z"/><path class="cls-4" d="M264.69-19.38c-8.77,0-15.67-2.95-22.35-5.81-6.83-2.93-13.29-5.69-21.74-5.69s-14.9,2.76-21.74,5.69c-6.68,2.86-13.58,5.81-22.35,5.81s-15.67-2.95-22.34-5.81c-6.84-2.93-13.29-5.69-21.74-5.69s-14.91,2.76-21.74,5.69c-6.68,2.86-13.58,5.81-22.35,5.81S72.67-22.33,66-25.19c-6.84-2.93-13.3-5.69-21.74-5.69s-14.91,2.76-21.74,5.69C15.84-22.33,8.94-19.38.17-19.38a40.3,40.3,0,0,1-10.69-1.47l.43-1.46A38.76,38.76,0,0,0,.17-20.9c8.45,0,14.9-2.76,21.74-5.69,6.68-2.86,13.58-5.81,22.35-5.81s15.66,2.95,22.34,5.81c6.84,2.93,13.29,5.69,21.74,5.69s14.91-2.76,21.75-5.69c6.67-2.86,13.57-5.81,22.34-5.81s15.67,2.95,22.34,5.81c6.84,2.93,13.29,5.69,21.74,5.69s14.91-2.76,21.74-5.69c6.68-2.86,13.59-5.81,22.35-5.81s15.67,2.95,22.34,5.81c6.84,2.93,13.3,5.69,21.75,5.69A38.82,38.82,0,0,0,275-22.31l.43,1.46A40.36,40.36,0,0,1,264.69-19.38Z"/><path class="cls-4" d="M264.69-36.63c-8.37,0-15-2.7-21.43-5.43l.6-1.4c6.5,2.78,12.75,5.3,20.83,5.3A38.76,38.76,0,0,0,275-39.57l.43,1.47A40.83,40.83,0,0,1,264.69-36.63Z"/><path class="cls-4" d="M176.51-35.64c-9,0-16-3-22.73-5.9l1.38-3.22c6.74,2.89,13.1,5.61,21.35,5.61s14.62-2.72,21.36-5.61l1.38,3.22C192.48-38.64,185.48-35.64,176.51-35.64Z"/><path class="cls-4" d="M176.51-36.63c-8.36,0-15-2.7-21.43-5.43l.6-1.4c6.5,2.78,12.76,5.3,20.83,5.3s14.34-2.52,20.84-5.3l.59,1.4C191.55-39.33,184.88-36.63,176.51-36.63Z"/><path class="cls-4" d="M88.34-35.64c-9,0-16-3-22.73-5.9L67-44.76c6.74,2.89,13.1,5.61,21.35,5.61s14.62-2.72,21.35-5.61l1.38,3.22C104.31-38.64,97.31-35.64,88.34-35.64Z"/><path class="cls-4" d="M88.34-36.63c-8.37,0-15-2.7-21.43-5.43l.6-1.4c6.5,2.78,12.75,5.3,20.83,5.3s14.33-2.52,20.83-5.3l.6,1.4C103.38-39.33,96.71-36.63,88.34-36.63Z"/><path class="cls-4" d="M.17-35.64a41.72,41.72,0,0,1-11.92-1.78l1-3.37A38.46,38.46,0,0,0,.17-39.15c8.25,0,14.61-2.72,21.35-5.61l1.38,3.22C16.13-38.64,9.14-35.64.17-35.64Z"/><path class="cls-4" d="M.17-36.63A40.72,40.72,0,0,1-10.52-38.1l.43-1.47A38.76,38.76,0,0,0,.17-38.16c8.08,0,14.33-2.52,20.83-5.3l.6,1.4C15.21-39.33,8.54-36.63.17-36.63Z"/></g><g class="cls-9"><path class="cls-4" d="M1.06,187.7c-8.75,0-15.66-2.95-22.33-5.81-6.84-2.93-13.3-5.7-21.75-5.7s-14.91,2.77-21.75,5.7c-6.68,2.86-13.58,5.81-22.34,5.81s-15.66-2.95-22.33-5.81c-6.84-2.93-13.3-5.7-21.75-5.7s-14.91,2.77-21.75,5.7c-6.68,2.86-13.58,5.81-22.34,5.81s-15.66-2.95-22.33-5.81c-6.85-2.93-13.31-5.7-21.76-5.7s-14.9,2.77-21.74,5.7c-6.68,2.86-13.58,5.81-22.34,5.81a40.3,40.3,0,0,1-10.69-1.47l.43-1.46a38.76,38.76,0,0,0,10.26,1.41c8.45,0,14.9-2.77,21.74-5.69,6.68-2.86,13.58-5.82,22.34-5.82s15.67,3,22.35,5.82c6.83,2.92,13.29,5.69,21.74,5.69s14.91-2.77,21.74-5.69c6.68-2.86,13.58-5.82,22.35-5.82s15.66,3,22.34,5.82,13.29,5.69,21.74,5.69,14.91-2.77,21.75-5.69c6.67-2.86,13.57-5.82,22.34-5.82s15.67,3,22.34,5.82c6.84,2.92,13.29,5.69,21.74,5.69a38.89,38.89,0,0,0,10.27-1.41l.42,1.46A40.3,40.3,0,0,1,1.06,187.7Z"/><path class="cls-4" d="M1.06,170.44c-8.76,0-15.66-2.95-22.34-5.81s-13.29-5.69-21.74-5.69-14.91,2.76-21.75,5.69c-6.67,2.86-13.57,5.81-22.34,5.81s-15.66-2.95-22.34-5.81-13.29-5.69-21.74-5.69-14.91,2.76-21.75,5.69c-6.67,2.86-13.58,5.81-22.34,5.81s-15.67-2.95-22.34-5.81c-6.84-2.93-13.3-5.69-21.75-5.69s-14.9,2.76-21.74,5.69c-6.68,2.86-13.58,5.81-22.34,5.81A40.3,40.3,0,0,1-274.14,169l.43-1.46a38.76,38.76,0,0,0,10.26,1.41c8.45,0,14.9-2.76,21.74-5.69,6.68-2.86,13.58-5.81,22.34-5.81s15.66,3,22.34,5.8c6.84,2.94,13.3,5.7,21.75,5.7s14.91-2.76,21.74-5.69,13.59-5.81,22.35-5.81,15.66,3,22.33,5.8c6.84,2.94,13.3,5.7,21.75,5.7s14.91-2.76,21.75-5.69c6.68-2.86,13.58-5.81,22.34-5.81s15.66,3,22.33,5.8c6.85,2.94,13.3,5.7,21.75,5.7a38.89,38.89,0,0,0,10.27-1.41l.42,1.46A40.3,40.3,0,0,1,1.06,170.44Z"/><path class="cls-4" d="M1.06,153.19c-8.76,0-15.66-3-22.34-5.82s-13.29-5.69-21.74-5.69-14.91,2.76-21.74,5.69c-6.68,2.86-13.58,5.82-22.35,5.82s-15.67-3-22.34-5.82c-6.84-2.92-13.29-5.69-21.74-5.69s-14.91,2.76-21.74,5.69c-6.68,2.86-13.58,5.82-22.35,5.82s-15.67-3-22.34-5.82c-6.84-2.93-13.3-5.69-21.75-5.69s-14.9,2.76-21.74,5.69c-6.68,2.86-13.58,5.82-22.34,5.82a40.3,40.3,0,0,1-10.69-1.47l.43-1.46a39.1,39.1,0,0,0,10.26,1.4c8.45,0,14.91-2.76,21.74-5.69s13.58-5.81,22.34-5.81,15.67,3,22.35,5.81c6.83,2.93,13.29,5.69,21.74,5.69s14.91-2.76,21.74-5.69c6.68-2.86,13.58-5.81,22.35-5.81s15.66,3,22.34,5.81,13.29,5.69,21.74,5.69S-72.2,148.9-65.36,146c6.67-2.86,13.57-5.81,22.34-5.81s15.67,3,22.34,5.81c6.83,2.93,13.29,5.69,21.74,5.69a39.23,39.23,0,0,0,10.27-1.4l.42,1.46A40.3,40.3,0,0,1,1.06,153.19Z"/><path class="cls-4" d="M1.06,135.93c-8.76,0-15.66-3-22.34-5.81s-13.29-5.69-21.74-5.69-14.91,2.76-21.75,5.69c-6.67,2.85-13.57,5.81-22.34,5.81s-15.66-3-22.34-5.81-13.29-5.69-21.74-5.69-14.91,2.76-21.74,5.68c-6.68,2.86-13.59,5.82-22.35,5.82s-15.67-3-22.34-5.81c-6.84-2.93-13.29-5.69-21.75-5.69s-14.9,2.76-21.74,5.68c-6.68,2.86-13.58,5.82-22.34,5.82a40.3,40.3,0,0,1-10.69-1.47l.43-1.46a38.76,38.76,0,0,0,10.26,1.41c8.45,0,14.9-2.77,21.73-5.69s13.59-5.82,22.35-5.82,15.67,3,22.35,5.82c6.83,2.92,13.29,5.69,21.74,5.69s14.9-2.77,21.74-5.69c6.68-2.86,13.58-5.82,22.35-5.82s15.66,3,22.34,5.82c6.84,2.92,13.29,5.69,21.74,5.69s14.91-2.77,21.74-5.69S-51.79,122.9-43,122.9s15.67,3,22.34,5.82c6.84,2.92,13.29,5.69,21.74,5.69A38.89,38.89,0,0,0,11.33,133l.42,1.46A40.3,40.3,0,0,1,1.06,135.93Z"/><path class="cls-4" d="M1.06,118.67c-8.76,0-15.66-3-22.34-5.81s-13.29-5.69-21.74-5.69-14.91,2.76-21.74,5.69c-6.68,2.86-13.58,5.81-22.35,5.81s-15.66-3-22.34-5.81c-6.84-2.93-13.29-5.69-21.74-5.69s-14.91,2.76-21.74,5.69c-6.68,2.86-13.59,5.81-22.35,5.81s-15.67-3-22.34-5.81c-6.84-2.93-13.3-5.69-21.75-5.69s-14.9,2.76-21.74,5.69c-6.68,2.86-13.58,5.81-22.34,5.81a40.3,40.3,0,0,1-10.69-1.47l.43-1.46a38.71,38.71,0,0,0,10.26,1.41c8.45,0,14.9-2.76,21.73-5.69s13.59-5.81,22.35-5.81,15.67,2.95,22.35,5.81c6.83,2.93,13.29,5.69,21.74,5.69s14.91-2.76,21.74-5.69c6.68-2.86,13.58-5.81,22.35-5.81s15.66,2.95,22.34,5.81c6.84,2.93,13.29,5.69,21.74,5.69s14.91-2.76,21.74-5.69,13.58-5.81,22.35-5.81,15.67,2.95,22.34,5.81c6.84,2.93,13.29,5.69,21.74,5.69a38.84,38.84,0,0,0,10.27-1.41l.42,1.46A40.3,40.3,0,0,1,1.06,118.67Z"/><path class="cls-4" d="M1.06,101.42c-8.76,0-15.67-3-22.34-5.82-6.83-2.92-13.29-5.69-21.74-5.69s-14.91,2.77-21.74,5.69c-6.68,2.86-13.58,5.82-22.35,5.82s-15.67-3-22.34-5.82c-6.84-2.92-13.29-5.69-21.74-5.69s-14.91,2.77-21.74,5.69c-6.68,2.86-13.58,5.82-22.35,5.82s-15.67-3-22.34-5.82c-6.84-2.92-13.3-5.69-21.75-5.69s-14.9,2.77-21.74,5.69c-6.67,2.86-13.58,5.82-22.34,5.82A40.72,40.72,0,0,1-274.14,100l.43-1.46a39.1,39.1,0,0,0,10.26,1.4c8.45,0,14.91-2.76,21.74-5.69s13.58-5.81,22.34-5.81,15.67,3,22.35,5.81c6.83,2.93,13.29,5.69,21.74,5.69s14.91-2.76,21.74-5.69c6.68-2.86,13.58-5.81,22.35-5.81s15.66,3,22.34,5.81,13.29,5.69,21.74,5.69,14.91-2.76,21.75-5.69c6.67-2.86,13.57-5.81,22.34-5.81s15.67,3,22.34,5.81c6.83,2.93,13.29,5.69,21.74,5.69a39.23,39.23,0,0,0,10.27-1.4l.42,1.46A40.72,40.72,0,0,1,1.06,101.42Z"/><path class="cls-4" d="M1.06,84.16c-8.76,0-15.66-3-22.34-5.81S-34.57,72.66-43,72.66s-14.91,2.76-21.75,5.69c-6.67,2.86-13.57,5.81-22.34,5.81s-15.66-3-22.34-5.81-13.29-5.69-21.74-5.69-14.91,2.76-21.74,5.68c-6.68,2.87-13.59,5.82-22.35,5.82s-15.67-3-22.34-5.81c-6.84-2.93-13.29-5.69-21.75-5.69s-14.9,2.76-21.74,5.68c-6.68,2.87-13.58,5.82-22.34,5.82a40.3,40.3,0,0,1-10.69-1.47l.43-1.46a38.76,38.76,0,0,0,10.26,1.41c8.45,0,14.9-2.76,21.73-5.69s13.59-5.82,22.35-5.82,15.67,3,22.35,5.82c6.83,2.93,13.29,5.69,21.74,5.69s14.9-2.76,21.74-5.69c6.68-2.86,13.58-5.82,22.35-5.82s15.66,3,22.34,5.82c6.84,2.92,13.29,5.69,21.74,5.69S-72.2,79.88-65.37,77-51.79,71.13-43,71.13s15.67,3,22.34,5.82c6.84,2.92,13.29,5.69,21.74,5.69a38.89,38.89,0,0,0,10.27-1.41l.42,1.46A40.3,40.3,0,0,1,1.06,84.16Z"/><path class="cls-4" d="M1.06,66.9c-8.76,0-15.66-3-22.34-5.81S-34.57,55.4-43,55.4s-14.91,2.76-21.74,5.69C-71.44,64-78.34,66.9-87.11,66.9s-15.66-3-22.34-5.81c-6.84-2.93-13.29-5.69-21.74-5.69s-14.91,2.76-21.74,5.69c-6.68,2.86-13.59,5.81-22.35,5.81s-15.67-3-22.34-5.81c-6.84-2.93-13.3-5.69-21.75-5.69s-14.9,2.76-21.74,5.69c-6.68,2.86-13.58,5.81-22.34,5.81a40.3,40.3,0,0,1-10.69-1.47l.43-1.46a38.71,38.71,0,0,0,10.26,1.41c8.45,0,14.9-2.76,21.73-5.69s13.59-5.81,22.35-5.81,15.67,2.95,22.35,5.81c6.83,2.93,13.29,5.69,21.74,5.69s14.91-2.76,21.74-5.69c6.68-2.86,13.58-5.81,22.35-5.81s15.66,2.95,22.34,5.81c6.84,2.93,13.29,5.69,21.74,5.69s14.91-2.76,21.74-5.69S-51.79,53.88-43,53.88s15.67,2.95,22.34,5.81c6.84,2.93,13.29,5.69,21.74,5.69A38.84,38.84,0,0,0,11.33,64l.42,1.46A40.3,40.3,0,0,1,1.06,66.9Z"/><path class="cls-4" d="M1.06,49.65c-8.76,0-15.66-3-22.34-5.82S-34.57,38.14-43,38.14s-14.91,2.77-21.75,5.69c-6.67,2.86-13.57,5.82-22.34,5.82s-15.66-3-22.34-5.82-13.29-5.69-21.74-5.69-14.91,2.77-21.75,5.69c-6.67,2.86-13.58,5.82-22.34,5.82s-15.67-3-22.34-5.82c-6.84-2.92-13.3-5.69-21.75-5.69s-14.9,2.77-21.74,5.69c-6.68,2.86-13.58,5.82-22.34,5.82a40.3,40.3,0,0,1-10.69-1.47l.43-1.46a39.18,39.18,0,0,0,10.26,1.41c8.45,0,14.9-2.77,21.74-5.7,6.68-2.85,13.58-5.81,22.34-5.81s15.67,3,22.35,5.81c6.83,2.93,13.29,5.7,21.74,5.7s14.91-2.77,21.74-5.7c6.68-2.85,13.58-5.81,22.35-5.81s15.66,3,22.34,5.81,13.29,5.7,21.74,5.7,14.91-2.77,21.75-5.7c6.67-2.85,13.57-5.81,22.34-5.81s15.67,3,22.34,5.81c6.84,2.93,13.29,5.7,21.74,5.7a39.25,39.25,0,0,0,10.27-1.41l.42,1.46A40.3,40.3,0,0,1,1.06,49.65Z"/><path class="cls-4" d="M1.06,32.39c-8.76,0-15.66-2.95-22.34-5.81S-34.57,20.89-43,20.89s-14.91,2.76-21.74,5.69c-6.68,2.86-13.58,5.81-22.35,5.81s-15.66-2.95-22.34-5.81c-6.84-2.93-13.29-5.69-21.74-5.69s-14.91,2.76-21.74,5.69c-6.68,2.86-13.59,5.81-22.35,5.81s-15.67-2.95-22.34-5.81c-6.84-2.93-13.3-5.69-21.75-5.69s-14.9,2.76-21.74,5.69c-6.68,2.86-13.58,5.81-22.34,5.81a40.3,40.3,0,0,1-10.69-1.47l.43-1.46a38.76,38.76,0,0,0,10.26,1.41c8.45,0,14.9-2.76,21.73-5.69s13.59-5.82,22.35-5.82,15.67,3,22.35,5.82c6.83,2.92,13.29,5.69,21.74,5.69s14.9-2.76,21.74-5.69c6.68-2.86,13.58-5.82,22.35-5.82s15.66,3,22.34,5.82c6.84,2.93,13.29,5.69,21.74,5.69s14.91-2.76,21.74-5.69S-51.79,19.36-43,19.36s15.67,3,22.34,5.82c6.84,2.92,13.29,5.69,21.74,5.69a38.84,38.84,0,0,0,10.27-1.41l.42,1.46A40.3,40.3,0,0,1,1.06,32.39Z"/><path class="cls-4" d="M1.06,15.14c-8.76,0-15.66-3-22.34-5.82S-34.57,3.63-43,3.63-57.93,6.39-64.77,9.32c-6.67,2.86-13.57,5.82-22.34,5.82s-15.66-3-22.34-5.82-13.29-5.69-21.74-5.69-14.91,2.76-21.75,5.69c-6.67,2.86-13.58,5.82-22.34,5.82s-15.67-3-22.34-5.82c-6.84-2.93-13.3-5.69-21.75-5.69s-14.9,2.76-21.74,5.69c-6.68,2.86-13.58,5.82-22.34,5.82a40.72,40.72,0,0,1-10.69-1.47l.43-1.47a38.76,38.76,0,0,0,10.26,1.41c8.45,0,14.9-2.76,21.74-5.69,6.68-2.86,13.58-5.81,22.34-5.81S-203.71,5.06-197,7.92c6.84,2.93,13.3,5.69,21.75,5.69s14.91-2.76,21.74-5.69,13.59-5.81,22.35-5.81,15.66,2.95,22.33,5.81c6.84,2.93,13.3,5.69,21.75,5.69s14.91-2.76,21.75-5.69C-58.68,5.06-51.78,2.11-43,2.11s15.66,2.95,22.33,5.81c6.85,2.93,13.3,5.69,21.75,5.69A38.89,38.89,0,0,0,11.33,12.2l.42,1.47A40.72,40.72,0,0,1,1.06,15.14Z"/></g><g class="cls-10"><path class="cls-4" d="M528.31,32.4c-8.77,0-15.67-2.95-22.34-5.81-6.84-2.93-13.3-5.69-21.75-5.69s-14.91,2.76-21.74,5.69S448.9,32.4,440.14,32.4s-15.67-2.95-22.35-5.81c-6.83-2.93-13.28-5.69-21.74-5.69s-14.91,2.76-21.74,5.69S360.73,32.4,352,32.4s-15.66-2.95-22.34-5.81-13.29-5.69-21.74-5.69S293,23.66,286.14,26.59c-6.68,2.86-13.59,5.81-22.35,5.81a40.36,40.36,0,0,1-10.69-1.47l.43-1.46a38.82,38.82,0,0,0,10.26,1.41c8.45,0,14.91-2.76,21.74-5.69s13.58-5.81,22.35-5.81,15.66,2.95,22.34,5.81c6.84,2.93,13.29,5.69,21.74,5.69s14.91-2.76,21.74-5.69,13.59-5.81,22.35-5.81,15.67,2.95,22.34,5.81c6.84,2.93,13.29,5.69,21.75,5.69s14.9-2.76,21.73-5.69,13.59-5.81,22.35-5.81,15.67,2.95,22.35,5.81,13.29,5.69,21.74,5.69a38.82,38.82,0,0,0,10.26-1.41l.43,1.46A40.36,40.36,0,0,1,528.31,32.4Z"/><path class="cls-4" d="M528.31,15.15c-8.77,0-15.67-3-22.34-5.82-6.84-2.92-13.29-5.69-21.75-5.69s-14.91,2.77-21.74,5.69-13.58,5.82-22.34,5.82-15.67-3-22.35-5.82C411,6.41,404.51,3.64,396.05,3.64s-14.91,2.77-21.74,5.69S360.73,15.15,352,15.15s-15.66-3-22.34-5.82-13.29-5.69-21.74-5.69S293,6.41,286.13,9.33c-6.67,2.86-13.58,5.82-22.34,5.82a40.41,40.41,0,0,1-10.69-1.47l.43-1.46a39.16,39.16,0,0,0,10.26,1.4c8.45,0,14.91-2.76,21.74-5.68s13.58-5.82,22.35-5.82,15.66,3,22.34,5.81c6.84,2.93,13.29,5.69,21.74,5.69s14.91-2.76,21.74-5.68,13.59-5.82,22.35-5.82,15.67,3,22.34,5.81c6.84,2.93,13.29,5.69,21.75,5.69s14.9-2.76,21.73-5.68,13.59-5.82,22.35-5.82,15.67,3,22.35,5.81,13.29,5.69,21.74,5.69a39.16,39.16,0,0,0,10.26-1.4l.43,1.46A40.36,40.36,0,0,1,528.31,15.15Z"/></g><g class="cls-11"><path class="cls-4" d="M199.25,44.76l-1.38-3.22c6.76-2.9,13.76-5.9,22.73-5.9s16,3,22.73,5.9L242,44.76c-6.74-2.89-13.1-5.61-21.35-5.61S206,41.87,199.25,44.76Z"/><path class="cls-4" d="M199.17,42.06c6.4-2.73,13.06-5.43,21.43-5.43s15,2.7,21.43,5.43l-.6,1.4c-6.5-2.78-12.75-5.3-20.83-5.3s-14.33,2.52-20.83,5.3Z"/><path class="cls-4" d="M111.07,44.76l-1.38-3.22c6.77-2.9,13.77-5.9,22.74-5.9s16,3,22.73,5.9l-1.38,3.22c-6.74-2.89-13.1-5.61-21.35-5.61S117.81,41.87,111.07,44.76Z"/><path class="cls-4" d="M111,42.06c6.39-2.73,13.06-5.43,21.43-5.43s15,2.7,21.43,5.43l-.6,1.4c-6.5-2.78-12.76-5.3-20.83-5.3s-14.33,2.52-20.83,5.3Z"/><path class="cls-4" d="M65.61,44.76c-6.74-2.89-13.11-5.61-21.35-5.61S29.64,41.87,22.9,44.76l-1.38-3.22c6.77-2.9,13.77-5.9,22.74-5.9s16,3,22.73,5.9Z"/><path class="cls-4" d="M65.09,43.46c-6.51-2.78-12.76-5.3-20.83-5.3s-14.33,2.52-20.84,5.3l-.59-1.4c6.39-2.73,13.06-5.43,21.43-5.43s15,2.7,21.43,5.43Z"/><path class="cls-4" d="M264.69,32.4c-8.77,0-15.67-2.95-22.35-5.81-6.83-2.93-13.29-5.69-21.74-5.69s-14.91,2.76-21.74,5.69-13.58,5.81-22.35,5.81-15.66-2.95-22.34-5.81-13.29-5.69-21.74-5.69-14.91,2.76-21.74,5.69C104,29.45,97.11,32.4,88.34,32.4S72.67,29.45,66,26.59c-6.84-2.93-13.29-5.69-21.74-5.69s-14.91,2.76-21.74,5.69C15.84,29.45,8.93,32.4.17,32.4a40.3,40.3,0,0,1-10.69-1.47l.43-1.46A38.76,38.76,0,0,0,.17,30.88c8.45,0,14.9-2.76,21.74-5.69,6.68-2.86,13.58-5.81,22.35-5.81s15.66,2.95,22.34,5.81c6.84,2.93,13.29,5.69,21.74,5.69s14.91-2.76,21.74-5.69,13.58-5.81,22.35-5.81,15.67,2.95,22.34,5.81c6.84,2.93,13.29,5.69,21.74,5.69s14.91-2.76,21.74-5.69c6.68-2.86,13.59-5.81,22.35-5.81s15.67,2.95,22.34,5.81c6.84,2.93,13.3,5.69,21.75,5.69A38.82,38.82,0,0,0,275,29.47l.43,1.46A40.41,40.41,0,0,1,264.69,32.4Z"/><path class="cls-4" d="M264.69,15.15c-8.77,0-15.67-3-22.35-5.82-6.83-2.92-13.28-5.69-21.74-5.69s-14.91,2.77-21.74,5.69-13.58,5.82-22.35,5.82-15.66-3-22.34-5.82-13.29-5.69-21.74-5.69-14.91,2.77-21.75,5.69c-6.67,2.86-13.57,5.82-22.34,5.82S72.67,12.19,66,9.33C59.16,6.41,52.71,3.64,44.26,3.64S29.35,6.41,22.51,9.33C15.84,12.19,8.93,15.15.17,15.15a40.36,40.36,0,0,1-10.69-1.47l.43-1.46A39.16,39.16,0,0,0,.17,13.62c8.45,0,14.9-2.76,21.74-5.68,6.68-2.86,13.58-5.82,22.35-5.82s15.66,3,22.34,5.81c6.84,2.93,13.29,5.69,21.74,5.69s14.91-2.76,21.74-5.68,13.58-5.82,22.35-5.82,15.67,3,22.34,5.81c6.84,2.93,13.29,5.69,21.74,5.69s14.91-2.76,21.74-5.68c6.68-2.86,13.59-5.82,22.35-5.82s15.67,3,22.34,5.81c6.84,2.93,13.3,5.69,21.75,5.69A39.22,39.22,0,0,0,275,12.22l.43,1.46A40.41,40.41,0,0,1,264.69,15.15Z"/></g><g class="cls-12"><path class="cls-4" d="M1.06,32.4c-8.76,0-15.66-2.95-22.34-5.81S-34.57,20.9-43,20.9s-14.91,2.76-21.75,5.69c-6.67,2.86-13.57,5.81-22.34,5.81s-15.66-2.95-22.34-5.81-13.29-5.69-21.74-5.69-14.91,2.76-21.74,5.69c-6.68,2.86-13.59,5.81-22.35,5.81s-15.67-2.95-22.34-5.81c-6.84-2.93-13.29-5.69-21.75-5.69s-14.9,2.76-21.74,5.69c-6.68,2.86-13.58,5.81-22.34,5.81a40.3,40.3,0,0,1-10.69-1.47l.43-1.46a38.76,38.76,0,0,0,10.26,1.41c8.45,0,14.9-2.76,21.73-5.69s13.59-5.81,22.35-5.81,15.67,2.95,22.35,5.81c6.83,2.93,13.29,5.69,21.74,5.69s14.9-2.76,21.74-5.69c6.68-2.86,13.58-5.81,22.35-5.81s15.66,2.95,22.34,5.81c6.84,2.93,13.29,5.69,21.74,5.69s14.91-2.76,21.74-5.69S-51.79,19.38-43,19.38s15.67,2.95,22.34,5.81c6.84,2.93,13.29,5.69,21.74,5.69a38.89,38.89,0,0,0,10.27-1.41l.42,1.46A40.3,40.3,0,0,1,1.06,32.4Z"/><path class="cls-4" d="M1.06,15.15c-8.76,0-15.66-3-22.34-5.82S-34.57,3.64-43,3.64-57.93,6.41-64.77,9.33c-6.67,2.86-13.57,5.82-22.34,5.82s-15.66-3-22.34-5.82-13.29-5.69-21.74-5.69-14.91,2.77-21.75,5.69c-6.67,2.86-13.58,5.82-22.34,5.82s-15.67-3-22.34-5.82c-6.84-2.92-13.29-5.69-21.75-5.69s-14.91,2.77-21.74,5.69c-6.68,2.86-13.58,5.82-22.34,5.82a40.3,40.3,0,0,1-10.69-1.47l.43-1.46a39.16,39.16,0,0,0,10.26,1.4c8.45,0,14.9-2.76,21.73-5.68s13.59-5.82,22.35-5.82,15.67,3,22.35,5.81c6.83,2.93,13.29,5.69,21.74,5.69s14.9-2.76,21.74-5.68c6.68-2.86,13.58-5.82,22.35-5.82s15.66,3,22.34,5.81c6.84,2.93,13.29,5.69,21.74,5.69s14.91-2.76,21.74-5.68S-51.79,2.12-43,2.12s15.67,3,22.34,5.81c6.84,2.93,13.29,5.69,21.74,5.69a39.23,39.23,0,0,0,10.27-1.4l.42,1.46A40.3,40.3,0,0,1,1.06,15.15Z"/></g></pattern></defs><title>mare</title><g id="Livello_2" data-name="Livello 2"><g id="Livello_4" data-name="Livello 4"><polygon class="cls-13" points="402.8 0 378.88 0 0 0 0 290.71 0 294.76 0 585.47 378.88 585.47 402.8 585.47 781.67 585.47 781.67 294.76 781.67 290.71 781.67 0 402.8 0"/></g></g></svg>