<svg xmlns="http://www.w3.org/2000/svg" viewBox="0 0 1885.84 1645.44"><defs><style>.cls-1{fill:#1f1f1f;stroke:#101010;stroke-miterlimit:10;stroke-width:1.1px;}</style></defs><title>resto-del-mondo</title><g id="Livello_2" data-name="Livello 2"><g id="Layer_1" data-name="Layer 1"><path class="cls-1" d="M683.92,1198.81,831,1151.93c9.4,7,6.11,3.65,19.92,6.83l-.45.73c-6.67-1.28,3.25,5,2.06,9.58-1.09,4.24-2.84,8.33-1.77,10.6s11.65,5.4,11.33,7.19a7.63,7.63,0,0,1-.22.89,57.61,57.61,0,0,0,4.79,7.82c1.85,2.37,10.74,7.18,7.24,11.45-1.49,1.82-3.63.46-5.75,0-.85,1,1,2.39.9,2.43l-4,.2c-1.55.55-.44,2.84-1.67,2.49-.75-.22-3-1.95-2.74-.23.26,2.1.21,5.46.53,7.11l2.13,1c.39,1-2.45,7.26-.69,8.58l1.06.08c-.71.07-1.23.26-1.12.7.78,2.91,3.73,4.52,5.51,7.5.37.63-.06,2.75.31,3.15s-.07,1-.12,1.57c-.06.87,2.83,2.34,3.14,2.6l-.18,2.33c.38,1-.26-3.15.8-3.07s2.56,2.83,2.65,1.77c0-.29-.79-4-.2-4.72s3.3-2.12,3.05-3.7c0-.21-3-1.67-.37-2.38.41-.12.29.81.45,1.21.92,2.36-1.06,3.16,2.62,2.16,1.76-.49-.5-4.36.41-5.47,5.23-6.39,3.36-15.39,14.46-9.18.33.18,2.49,4.64,3.47,6,1.39,1.9,4.08,1.64,5.31,3.22,4.12,5.28-1.32,16.1,2.11,23.67,2.33,5.1,10.68,14,15.52,16.6.24.12,2.84-.5,2.76.94-.15,2.59-6.92-2.51-7.16-2.5-1,.06-.27,2.66-1.28,2.8l-2.67-2.51c-.68-.23.22,3.26-.69,2.31-2.79-2.92-1.64,2.31-1.32,3,2.85,6.49,18.25,22.92,25.12,25.69.66.27.29,5.47.17,7.84,0,.11,7,1.59,7.35,1.14s-1.32-1-1.08-1.61c.16-.38,7.55-1.22,8.31-1.18a8.69,8.69,0,0,1,2,.08c3.44,1-1.27,1.47-1.2,1.52l4.5,1s3.25,3.26,3.27,3.26c2,.56,6,.41,8.46,1.92,3.83,2.31,5.95,8.53,9.29,11.29,1.5,1.23,4.23,1.2,5.63,2.54a6.9,6.9,0,0,1,1.06,2c.68,1.23,1,1.91,1.19,2.27-.22-.61-.53-1.85.52-1.82.56,0,.21,1.12.53,1.58.11.15,2.11-.47,2.29.06.54,1.67-2,3.19,1.87,4.37h0c.76.22,2.61.81,2,1.22s-1.84-.62-2.25-.88c-.14-.1-.18-.12,0,0a19.29,19.29,0,0,0,1.76,1.37,11.19,11.19,0,0,0,3.32,1.91c.31,0,.6-1.09.58-.76,0,.8,1.27,2.64.52,2.35-5.91-2.2-10-6.51-15.81-8.7a14.85,14.85,0,0,0-4.94-.56c-1.5,0-4.61-3.14-4.14-1.72.81,2.47,1.72.8.48,2.37,0,0,4.81,1,5.13,1,2.26.08,6.66,2.33,8.49,3.41a3.18,3.18,0,0,1,1.09,1.6c.12.24-.21.61,0,.78,3.8,3.07,8.52,2.6,12,2.7,1.13,0,8.41,5.64,8.5,5.7a1.88,1.88,0,0,1,.53,1.57c0,.19-.57-.2-.57,0a1,1,0,0,0,.55.79c1.17.76,5.19,1,5.71,2.48,1,2.86,4.76,5.7,7.94,7.2l1.68,2.38c.4,0,0-.78,0-1.17s-.15-.66-.13-.93a.26.26,0,0,1,.15-.25c1.1-.46,2.32,1.14,3.46.85.67-.17.87-1.78,1.48-1.45,3.61,2-2.79,1.76-2.68,3.78s3-.29,3.47,0c1.2.84,1.24,5.14,3.39,5.54,1.17.21,2.48-1.35,3.5-.74s-.09,2.28.53,3.13c2.79,3.87,5.85,4.31,8,7.92,1.24,2-.57,3.16.54,4.69,1.85,2.53,4.74,3.15,7.64,3.61s6.08.74,8.07,2.76c1.17,1.2-2.08,5.85-1.21,7.81,3,6.85-2.55,2.07-4.12,3.1-.56.36,2.6,2.64,2.31,3.91-.85,3.91-7.36,5.46-3,9.36h2.36c2.65,2.13-2.05,6.43-2.41,7.79-.52,2,.65,5.27,1.14,7,.14.51-.24-.77,1.19-.77.15,0,1.63,6.14-1.3,5.36s-2.87-1.45-2.88-.7,1,.92,1.17,1.56c.6,2.44-4.32,7.53-4.24,10.11.09,2.85,4.22,2.46,5.33,3.94.32.42-.17,2.89-.62,3.12-.71.35-2-2.32-1.78-1.58,1,2.76,5.44,5,3.53,8.6-1.6,3.07-4.09-5.13-7.16-3.17-.23.15.4.39.59.59,2.57,2.56,3.11,6.37,5.91,8.82s7.7,3.06,10.2,5.51c1.85,1.81,6.37,4.17,6.6,7.8,0,.56-.86,1.07-.6,1.56l3.61,1.56c1,1.51-1,3.68-.6,5.45.2.79-.93,1.61-.6,2.34a2.57,2.57,0,0,0,1.5,1.09c1.92.76,5,1.12,5.77,2.8.62,1.33-2.39,3.16-1.82,3.89.34.44,2.43-.72,2.43.77,0,.61,2-.56,1.82,0-.55,1.44-.45,9.4,3.68,10.89,1,.35,2.63-.52,3.51,0,3.22,1.81.24.94,1.38,3.09,1.26,2.38,5.45,4.88,7.38,7,1.09,1.17.46,5.45,1.89,5.43.65,0,.58-1.36,1.21-1.56s-1.16-1-.63-1.57l1.8-3.12c.24-.5.24-2,.6-1.56.88,1.1,1.49,3.33.64,3.88-.36.24,1.69-1.05,2.28-.47-.06-.42-.08-1,.16-1.11.54-.29,1.45-.5,1.83,0s.43,2.42,1.27,3.11l3,0c.17-.46-1.41-.31-1.24-.76.29-.75,1.1-1.94,1.82-1.58,4.73,2.33.72,3.27,1.91,6.19,1,2.55,1.83-1.41,1.88,2.31,0,1.28-1.84-2.54-3.1-2.29-.78.16.21,2.14-.58,2.35-2.46.65-1.78-2.86-1.88-3.09s-.84.17-1.22,0c-5.14-2.1-3.27,3.83-4.89.83-.12-.22-.21-.41-.31-.59-.19.34-.62.61-1.53.61s-.36,1.14-.59,2.34c-.4,2.17-4.41-1.75-2.42,3.14,1.52,3.76,4.8-.22,4.9,0,1,1.62.65,4.81,1.91,6.2,1.13,1.23,3.57-.22,4.36,3,.23,1-1.64,4,0,4.67.91.37,1.84-2.34,2.46-1.59s-.59,2.34-.59,2.34,2.15,2.3,1.27,2.32c-.49,0-1.6.49-1.23.8.53.43,1.68.1,1.87.75,0,0-2.11,2.78-1.82,3.13,2.3,2.8,7-.14,9.24-2.47,1.49-1.55-1.73-5.93-.09-5.44,2.7.8.26,3.38,1.31,4.64.66.79,2.72,2.77,3.49,3.53l.59.29c2.31,1.09,3.8-1.26,6.46-1.67.94-.17,4,.8,4.35.67.55-.19,1.05-3.13,2.4-3.15.61,0,1.09,0,1.48,0,.59-.21,1.47-.5,2.82-.87,3.54-1,8.06,4.45,8.77,4.44s1.6-2.38,2.4-2.4c1.39,0,2.91,2.62,5,1.42,1-.61.13-5,.46-5.46s.83.49,1.25.74c3,1.75,2.68,3.61,3.89,5.71.22.38.28.92.65,1.14.92.53,2.87-4.31,3.56-4.78,1.34-.9,1.68,2.81,2,3,2.9,2.42,3.45-.74,2.59,3-.4,1.7,4.63.2,5,.61l.69,2.3c1.93,1.34.61-4.55,4.28-1.71.61.48-.9,2.76,1.33,2.29,1-.22.78-2.55,1.77-2.41.65.09,1.1.87,1.3,1.51.08.31,3.1.21,3.16,1.42.16,4.32-12.4,2.55-14.07,6,0,0,7.76.82,3.87,3.74-3.6,2.7-11.81-6.94-17.05-8-6.23-1.21-20.93-9.25-24.39-8.67-4.73.8-3.59,5.65-6.63,7.92-2.42,1.81-9.61-2.6-10-2.15-.68.89-2.18,4.54-2.95,9.38-.69,4.29-8.05,2.47-8,7.89,0,1.42,6.42,1.66,7.52,3,1.75,2.11-.9,5,.74,7,.47.57,1.15-1.39,1.85-1.19,3.69,1.07,9,6.1,10.82,9.5,4.82,9.16-3,7.89-2.85,14,0,1.38,2.83,8.64,3.34,9.23.31.38.74-.79,1.23-.8a1.34,1.34,0,0,1,1.28.75c.6,2-3.16,7.29,2.06,7.7.68.06,1.24-1,1.89-.81,0,0,2.6,3.8,2.61,3.81l2.06-2.63c1.08-4.76-4.64-14.59,7.72-11.56,2.64.65-2.48,5.27.8,6.19.47.12.74-.81,1.24-.82,3.77-.1,8.27,14.67,7.45,16.84-.17.46-1.26.31-1.25.81,0,1.79,3.7,1.82,4.54,3l.74,3.08c2,1.56-.81-9.43-.31-10.06s1.57-.23,1.87-.84-1.5-2.28-.7-2.3c2.36-.08-.34-5.06,4.23-6.34.67-.19,5.16-.57,5.7-.19,1.57,1.12.87,4.8,1.47,6.15.27.58,1.4-.45,1.91-.07,1.85,1.39,2.61,5.75,4.06,6.83.85.64,2.35-.78,3.17-.11,1.52,1.21,1.79,6.73,5.88,3.64,1.87-1.42-2.54-2.58-2.67-3-.64-2,2.23-1.11-.12-3.09-1.27-1.08-3.17-1-3.92-2.94-2-5,1.32,1.57,1.17-2.38,0-.42-1,.41-1.26,0a2.22,2.22,0,0,1-.09-2.31c.94-1.24,3.23,1.63,3.11-1.67,0-.5-1.1-.28-1.3-.73-1.38-3-3.12-11.14-4.31-13.8a3,3,0,0,0-1.31-1.5c-.58-.26-1.48.55-1.89.07s.16-1.3.24-2a6,6,0,0,0,.25-1.94c-.6-2.43-10.74-14.49-7.5-17,2.71-2.14,2.23,1.75,4.46,2.36,2.64.72,2.34-2.82,5-.18l.74,3.07c.35.2.62-.54.92-.8s3.77.31,4.09.61c2.76,2.53-4.45,1.58-2.35,4,2.62,3,1.84.61,3.25,3,.25.44,1,1.13,1.29.73.46-.61-.5-1.66-.09-2.32.55-.89,2.35.57,3.13-.12.94-.84-3.7-1.84-.12-3.1,1.87-.66,8-.45,9.33-2s-5.68-5-5.86-5.19c-.07-.06,1.88-2.8,1.74-3.17-.5-1.36-1.85-.53-2.51-.28-2.92,1,2.78,4.37-.45,4.29-.93,0-5.89-2.86-6.41-3.64-.64-.94.08-4.19-.18-4.65s-3.44-.25-2-2.25c.37-.49,2.13.41,2.49-.1a1.62,1.62,0,0,0-.06-1.55c-.88-1.71-10.77-3-6.43-5.19,3.32-1.66,9.27-1.77,13-2.84,2.08-.62,4.93-4.68,7.29-4.2a2.68,2.68,0,0,1,1.43.59l-.38,1.15c-.6.54-1.49,1.06-1.54,1.38-.08.5.23.72.79.86l-.86,2.58,2.94-2.16a8.16,8.16,0,0,1,2.21.83c.81.46,3.34,6.07,4,6,5.31-.25,7,7.8,9.69,6.52.94-.45,2.38-6.1,1.52-7.07-.23-.25-4.74-11.7-4.44-13.77.25-1.64,4.32-2.66,3.56-4.84l0,0h0c-.39-1.09-2-2.47-5.86-4.36a12.24,12.24,0,0,0-5-.7l-1.12-3.56c3.2-.16,6.67-.89,8.37-.53,1,.22,6.45,5.23,6.49,5.91,0,1-2.66,2.08-1.73,2.41.62.23,1.15-1,1.81-.86,2.82.63.73,4.19.85,4.62l3.85,2.13c.76.76,2.15,5.73,4,5.23.54-.15,0-1.36.54-1.58.91-.4,3.44,2.13,4.47,2.09,3-.17,2.56-8.23.32-9.1s-8.14.54-10.92-2.77c-1.18-1.44-3.15-8.87-3-10.75l1.68-3.19c-.36-1.51-4-2.18-4.51-3.67s2.81-2.54-.16-3.1-7.06,1.53-9.82.49c-1.79-.67-3.28-4.1-5.14-4.44-.66-.11-1.13.84-1.81.87-4.84.23-10.09-9.75-14-12.63-5.37,2.12-12.35,4.75-15.88,9.57-.28.39-1.31,1-.87,1.19a29.52,29.52,0,0,0,6.07-1.78c.3-.47-1.18-1.29-.67-1.52,1.29-.61,11.72,4,13.08,4.92,2.74,1.88,4.17,6.84,7.12,8.26,1.44.69,3.83.37,4.45,2.92.15.61-.37,1.23-.77,1.83a4.54,4.54,0,0,0-1-1c-1.07-.81-7.31,1.52-9.24.4-.7-.4,1.82-.82,1.79-1.63-.06-1.26-3,.42-3.74-.62-.22-.33,1.52-3.16,1-4.71-.85-2.75-7.57,2.31-8.58,1.12-1.31-1.52.4-4.25-2.05-5.37-3.31-1.52-7.51.81-10.48-1.18-1-.67-.78-2.76-1.95-3s-5.72,3.69-6.73.22c-.74-2.45,1.65-1.22,2.39-1.62,3-1.66,2.4.17,6.15.56.06,0,9.29-5.28,9.31-5.39.8-3.13-4.82-9.59-4.94-9.55-.61.22-.51,1.57-1.16,1.61s.06-1.06-.05-1.56l-1.36-3.85c.24-1.3,3.46-1.1,4.2-1.71.28-.23,0-3,.5-3.14,1.3-.28,13.09,7.69,10.13,9.75-.4.27-.82-.94-1.26-.74-2.18,1-1.34,5-2.37,1.66a1.17,1.17,0,0,0-1.25-.73,2,2,0,0,0-1.13,2.37c1.11,2.55,10.82-3.57,10.83-4.32.12-8.23-12.14-12.8-15.94-18.08-2-2.73-1.42-7.27-3.37-10-2.77-3.91-12.17-10.31-11.38-16,.44-3.25,4-7,3.86-10.26-.07-1.19-3.61-2.46-3.14-4.58.52-2.35,1.8.21,2.38-.08,1.24-.58-.94-3.74,1.1-3.15,1.33.39.94,2.24,2.4.7.28-.28,0-.77,0-1.17s-.3-.89,0-1.17c.54-.57,1.73.37,2.39-.09,2-1.4-.19-3.89,2.83-4,1.13,0,3.21,5.28,3.18,5.35-.71,1.28-5.49.65-5.9,1.76-.68,1.83,4.2,3.09,2.57,5.38l1.21,0a3.71,3.71,0,0,1,1.2,0c2.37.67,3.57,2.67,6.12,3.65,10.19,4,5.18,1.82,7.6,9.84,1.74,5.77,3.53,4.69,8.72,6.66.67.25,7.9.46,7.22-.34-1.29-1.51-7.1-2.85-9.24-4.25s-10.3-9.82-4.09-11.54c10.39-2.88,18.3,19.53,22.29,13.8.5-.73-.57-2.47-.76-3.08-.34-1.12.64-2.54-.2-3.89-.06-.1-17.5-8-9.51-10.47,4.23-1.32,11.36-.17,15.71,2.35,2.46,1.43,4.75,11.58,8.72,5.78.09-.15-4.15-4.08-4.45-4.44-3.35-4.08-3.74-2.78-8.06-5-.26-.14-2.49-3.77-2.58-3.77-1.11,0,0,3-1,3.17-2.86.52-6.27-2.07-5.63-5.18.23-1.09,4-.85,3.5-1.74-1.58-2.76-10.23-3.9-8.14-8.2,3.42-7,9.38.48,14.26-.7,6.39-1.53,6.08-8.74,10.15-10.7,7.32-3.5,8.8,6.21,14.43,3.09,2.86-1.58,6-6.1,7.86-7.51a4.11,4.11,0,0,1,3.49-1c3.55,1.14-.17,1.76.21,3.11.15.51,1.07.1,1.59.15,1.78.18,4.5-.31,6.15.12,2.17.56,4.76,2.27,7.31,2.63a101.91,101.91,0,0,0,16.11.41c.59,0,1.73-.72,1.78-.13.07.93-.1,2.89,0,4.88.15,2.6.81,5.25,3.18,5.83,4.11,1,24.07-4.38,24.16-4.3,4.2,3.87-15.92,13.07-19.58,17.24-.7.8,1.69,1.93,2,3,.68,2-3.84,9-2.28,9.55,1.33.47,5.8-4,6.23-5.17l-.78-2.28c.16-.34,3.85-3.67,4.47-4.27,3.19-3,4.2-5.13,6.53-8.36,5-6.88,16.32-6.2,21-13.57a87.18,87.18,0,0,0,4.68-7.48c.75-1.57-.26-5.09,1.19-6.38,4.89-4.32,14,.67,16-.75,3.41-2.48,4.08-6.67,9.46-6.46,2.88.11,11.15,3.72,11.68,3.49,2.28-1-1.42-4.56-1.09-4.6,2.88-.3,1.72,4.48,2.93,5.18.89.52,12.41-2,13.38-3,2.17-2.38,1.28-4.55,1-7.17-.15-1.3,3.64-2.32,1.91-4.15-1.45-1.52-7.5-.65-9.64-1.27-8-2.37-19.71-5.48-26-11.38a44,44,0,0,1-6.93-10.29c-1.54-4,3.42-.83,1.15-8-.08-.25-.16-.49-.26-.78-1.6-4.5-7.74-7.8-10.4-10.74-.76-.84,2-3.09.78-4-1.81-1.34-2.9.06-3.19-2.84,0-.32.82-.72.51-.83-1.83-.63-6.71.22-7.56-.07a1.06,1.06,0,0,0-1.15.1c-.71.41-1.21-1.59-.79-2.27.78-1.3,2.67-4.54,5.38-4.43.47,0,.9,1,1.22.67.72-.78-1.27-2.09-.87-3.06,0,0,3.21-2.65,3.22-2.67.16-.52-.92-1-.72-1.49,1.12-3,4.88,1.38,6.12-2.57s-2.55-9.13-1.93-13.57c.21-1.4,2.58-4.76,1.67-6.43-.38-.68-1.24-.93-1.86-1.39-1.15-.86,2.93-.83,3.82-2,1.89-2.4.12-6.82,3.75-8.23a30,30,0,0,1,6.14-1.42c1.71,0,3.48,3,4.78,1.86s3.73-6.54,3.69-8.26c-.09-3.12-1.45-6.56-1.89-10a14.83,14.83,0,0,1-.09-3.12c.79-8.61,1.73-11.75-.41-19.63-1.14-4.18,6.84-15.59,6.72-15.69-1.51-1.27-2.7,5.86-4,4.38s.44-5.43.51-5.57c.39-.7-1.19-1.57-.81-2.26a4.42,4.42,0,0,1,2-.43,2.77,2.77,0,0,1-1.53-.42c-4.4-2.42,4.78-4.83,4.92-6.06.09-.61-8.57-12.61,1.54-11.19,4.91.68.08,2.9,1.26,6.16l.81,2.26c.79.14,2.87-6,2.85.47a6.65,6.65,0,0,1-.16,1.25,5.83,5.83,0,0,1,.8-.53c2.94-1.5,13.64-1,14.52-4.87.4-1.77,1-15,1-15.08-.94-.78-3.74-1-3-2,.33-.45,1.1-.14,1.64-.21,4.57-.54,1.9-8.83,1.19-10.77-.14-.38-.07-1.35-.41-1.14a2.88,2.88,0,0,0-.64.54c1.83,1.64-1,1.23,0,0a5,5,0,0,0-.45-.4c-1.56-1.16-1.78,5.29-3.27.38l1.8-3.36c-.41-.67-1.59-.15-2.27-.52-1.53-.83-.4-8.89-.08-9.84s-1-2.1-.33-2.72c3.17-2.91,2.06,8.15,4.38,8.93,3.24,1.08,1-1.32,1.45-1.75.75-.7,2.31.88,2.61-1.12.1-.6-5.5-5,0-4.72,1,.06,1.48,3,1.92,2.13,2.14-4.06-4.24-7.11,3.86-4.43,1.56.53-.55-5.38,1-4.86,1.25.41-.27,4,1,3.81s15.85-22.84,14.74-25.59a4.13,4.13,0,0,0-.51-.92c-1.29-.21-.76-1,0,0a4.17,4.17,0,0,0,1.47,0c1-.12.87-1.69,1.3-2.54,1.23-2.42-2.6-6.55-.52-7.82,2.71-1.65,8.93-5.31,12.26-5.64,1.48-.15,7.78.86,9.53-1.7a6.21,6.21,0,0,1,.43-1.79,5.9,5.9,0,0,0-.4-1.82c-.81-2.09-1.8-1.16-2.15-3.64-.18-1.26,1.45,3.39,2.57,2.79.06,0,2.62-4.37,2.62-4.33-.08.93-1.8,4.6-2.64,7a2.93,2.93,0,0,1-.43,1.79c0,.13,0,.29.05.34l2.89,1.17c3.46-2.07-3.45-1.48,1.79-2.64,3.65-.81,5.34,1.86,8.49-1.25,2-2-1.74-5.35-2.09-6.81-.58-2.43,1.21-1.28,2.3-2.71,2-2.61-1.57-3-2.16-3.63l.59-3.26c-.94-.5-2.87,2.55-3.4-1.08l.71-2.47c-.23-.41-1.94-2.63-3.29-4.49a5.65,5.65,0,0,1-1.31-1.16c-.15-.19-.1-.58,0-.92-.19-.35-.3-.61-.19-.63.29,0,.24.28.19.63a22.41,22.41,0,0,0,1.36,2.08c1.48,1,3.38,1.75,4.24,3.56.29.61-.16,1.34-.25,2s-.65,1.48-.24,2l3.81.21c.65.7-1.87,1.88-1.23,2.57.14.16,2.71.05,2.88,1.16.7,4.69-5,8,2,13.15l3.3.28.89,2.24s2.92-2,2.95-2c1.18,0,1.84,1.76,3,1.91,2,.27,4.42-3.06,6.28-3.36,1-.15-1.51,1.45-2.09,2.31-2,2.94.4,5.13-4.62,4.49-7.82-1-15.4.89-23,.07-.88-.09-2-2-2.35-1.24-.75,1.52,4.87,4,5.58,4.72.35.38.58.65.75.85a1.78,1.78,0,0,1,.63-2.63c1.2-.7,10.53,1.53,11.24,2.29,3.6,3.83-8.82,3.08-8.38,6,.57,4,2.81-.14,3.73-.56.67-.3,4.77,1.89,5.82,2.29,1.93.77,2.51,1.88,4.68,2.06.92.08,2-1.45,2.63-.79.38.4-.39,1.08-.3,1.62a2.1,2.1,0,0,0,.78,1.47c1.21.81,7.06,2.07,8.52,1.84,2.68-.41,4.91-3.69,7.55-4.37s5.67.75,8.16-.52a1,1,0,0,0,.4-.86c0-.52-.65-1.21-.24-1.54.8-.66,1.89,1.27,2.91,1.1,2.3-.37,4-8.1,3.63-1.38-.05.79,4.45,2.65,7.19,3.55,4,1.3,2.35-5.16,3.87-4.83,5.36,1.22,1.8,8.06,3,9.22s3.35-1.54,4.82-.83-2.34,1.88-2.43,2l.41,2.32-2.42-1.19c-5.82,1,2.18.8-1.76,2.69-2.22,1.07-3.14.36-5.64,2.54-3.36,2.93-2.68,2.91-6.33,1.85-.78-.23,1.18,1.47.91,2.23s-1.13.72-1.7,1.07c-5,3.16-7.16,3.5-8.37,8.5-.39,1.63-10.34,3.77-10.15,9.54.24,7.87,11.28-.92,15,0,4.26,1,7.78,6.65,11.85,7.57,3,.67,1.36-3.58,10.19.66,6.11,3,1.35,14.58,1.4,14.85.17,1,1.57,2.65,1.75,3.67a4.92,4.92,0,0,1-.29,1.63c-.09.55-.6,1.18-.28,1.64s1.95-.09,1.77.49c0,0-6.37,2.58-6.33,2.66,1.55,2.76,5.67,2.79,7.93,3.41,1.86.51,2.91,3.58,5.2,3.88,6.17.78,12.64-4,16.12-8.4.54-.67,0-2,.69-2.5s1.65.1,2.19-.4c1.62-1.49,1-6.31,2.45-8.39,2.2-3.22,12.32-7.84,15.93-8.52,1.34-.25,3.39,2.66,4.27,1.59s.48-3.7,1.29-5c1.8-3,5.49-3.25,6.49-4.44,2.25-2.67-1.23-5.3,3.38-8.63,3.87-2.79,9.45,1.52,12.07,4,.9.87,5.4-3.41,6.05-3.61,3.63-1.06,7,.47,10.29-2.1,4.92-3.84-3.79-7.56-.22-11.94.47-.57,1.62.05,2.15-.45s-1-1.38-1-2.19c.05-1.1,6.65.45,4.37-3.3-.68-1.14-15.93-1.15-16.93-.5-1.58,1-1.51,5.9-3.21,6.24-3,.6-6.56-4.73-7-4.18-2.62,3.32-1.6,10.09-8.59,10.46-1.47.09-3.51-.91-5.83-2.61-.85-.72-1.78-1.47-2.73-2.23a91.26,91.26,0,0,1-11.46-12.62,27.53,27.53,0,0,0-1.91-2.59c-5-7-8.57-13.89-8-17.26.7-4.05,4.29-2.43,6.86-4.47,5.9-4.67,1.62-9.34,2.06-12.34.11-.81,1.13-1.21,3.75,2.46.46.64-.56,3,.22,4,.58.69,2.21-1.29,2.65-.51a2.07,2.07,0,0,1,.18.88,16.77,16.77,0,0,1,3.16-6.31c1.1-1.17,3.42-1.26,4.45-2.47,2.71-3.1,3-6.92,6.94-9.35,1.52-1,7.93-3,9.31-2.69,7.45,1.91-3.44.51,1.68,2.86,1.36.61,3.12-5.78,3.64-6.35,1.8-2,6.24-3.69,8.71-4.21,6.29-1.33,3.77,5.12,4.17,5.52.86.8.62-2.28.94-3.41,1-3.72.76-5.07,3.65-7.7,1.58-1.45,5-5.36,7.14-5.82,1.47-.32,3.05,3.66,3.8,2.37,1.35-2.33,1.47-5.38,2.66-7.79.67-1.33,1.22-2.91,2.45-3.74,1.55-1,16.75-4.26,17.85-3.23.3.26,0,.79,0,1.2s-.36,1.36,0,1.19c1-.42,1.86-3.8,2.83-5.16a1.55,1.55,0,0,1,.28-.36c1.51-1.44,5-1,6-2.21a4.11,4.11,0,0,0,.54-1.07,2.13,2.13,0,0,1,.76-2.3,4.23,4.23,0,0,1,1.25-2.06c1.43-1.12,3.94-1,5.66-1.8-1.71.85-5.26,2.19-6.91,3.86-.28.79-.51,1.6-.76,2.3a2.38,2.38,0,0,0,.49.82c.37.42,12.6-4.24,13.45-5.6.27-.44-.34-1-.37-1.51a2.48,2.48,0,0,1,.15-1.65c1.41-1.91,7.18-3.53,9.81-2.38,0,0,1.22,7.75,1.86,7.6l1.51-2.78c.56-.23,1.17.24,1.75.37,1,.22-1.86,1.19-2.22,2.16l-.11,4h-3.29c-.72.25-1.14,1.3-1.89,1.26-.55,0-.36-1.52-.9-1.39-2.21.53-6.22,7.49-7.71,9.09-3.52,3.81-8.41,2.07-10.92,5-.68.81.5,2.15.2,3.17-1.32,4.39,7.66-2.72,7,4-.07.65-1.17.55-1.75.82a8.25,8.25,0,0,1-7.5-.26c-.73-.47-.74-2.24-1.59-2-.36.09-6,6.64-6.62,7.14-1.89,1.45-8.73-.43-8.3,1.68.85,4.15,9.43,11.92,10.56,10.64,2.94-3.34-5.08.43-.52-2.28a3.93,3.93,0,0,1,2.64-.6c3.9.73,5.83,5,8.76,6.8,4.2,2.62,9.14,1,10.42,6.41l-3,1.51c-2.7.24-8.45-6.09-10.58-2.37-.59,1,.28,13.92-.56,14.58-1.73,1.38-1.06-9.41-1.74-10l-1,1.12c.19-.23,1-1.12,1-1.12.3-.34,1-.57.89-1-.36-1.57-4.43,1.58-5.13,2-.28.15.73,9.54-.42,12.93-.7,2-4,4-4.3,5.77-.14.86,2.06,1.34,1.57,2-1.07,1.61-5.44-3.64-3.9.08.71,1.7,3.58,1.19,4.42,2.21l.32,3.94c.93,1.65,1.33.4,2.3,2.7.21.51.79.11,1.23.53.8.71-2.23,2.81,0,4.82.68.61-1.8.82-2.69.6-.53-.14-2.2,1.36-2.67.59s2.78-3-1.06-2.16c-.59.13-.87,1.35-1.44,1.11s-1.9.91-2.22,1c-1.89.72-7-.39-8.52,1.33-.89,1,3.06.18,3.67,1.34,1,1.9-4.13,4.12-5.37,3.83-1.09-.25,1.33-3.76.62-4.94s-12.72-3.59-13.18-1.18c-.26,1.32,3.43.29,3.7,1.61.92,4.3-2.7.45-2.36,2.11.12.54.33,1.28.86,1.41,1.07.28,5.07-3,6-.88,1.15,2.59-10.37,6.08-11.5,6.83-.92.62.83,2.18,1.72,2.85,1.25,1,16.15,1.11,20.39,2.85,9,3.7,3.5,12.69,17.29,11.41,1.61-.15,4.89,1.76,6.32.19,1-1.1-2.57-3.69-2.12-4.35.6-.87,2.22.28,3.06.93,1.77,1.36,3.38,5.59,5.9,5.88.75.08,1.54-.87,2.18-.5.47.28-.44,1.15-.2,1.65.37.76,5.37,4.44,6.3,5,2.89,1.66,13.25-2,19.24,1.12,7.25,3.81,14.42,7.25,21.89,11.62,6.19,3.61,11.74,9.07,17.67,12.54,1.65,1,4.17.71,5.73,1.79,1.24.86,1.5,3.37,2.8,4.12a4.7,4.7,0,0,0,1.88.54c2.86.35,6.88-.58,9,.73.88.53,4.86,7.62,6,7.33.63-.17.17-1.47.72-1.79,1.5-.93,6.47,2,8.17,1.9,2.74-.24,5.73-3.23,9.05-1.58,1.39.69,2.5,3.42,4,3.79s1.14-2.1,3.32-.88c2,1.14,4,7.19,6.11,7.26,2.34.07,6.17-1.8,9.29-.9,5.84,1.69,6.17,11.43,9,15.37,2.23,3.1,4.19,7,6.47,10.37,4,5.91,10.62,8.77,8,18-.7,2.45-2.73,4.13-3.35,6.59-.16.68-.64,2.35-1.21,4.24-1,3.44-2.43,7.69-3,8.24-1.58,1.57-10.78,10.53-12.77,11.53-1.22.62-2.84.31-4,1.06-1.78,1.17-2.73,4.21-3.93,5.88-.38.53-16.16,13.07-16.19,13.08-2.53,1-4.1-1.94-6-1.71-1.46.19-2.18,2.32-3.63,2.54-1.84.28-3.89-2-5.93-1.73s-2.93,2.28-5.17,1.29-3.91-4.56-6.87-3.12c-1.49.71-2.3,3.66-3.86,4.16,0,0-4.36-.55-4.38-.54-.45.11-2.7,2.84-3.49,3.26-2.39,1.29-5.52,1.24-7.87,2.68-1.39.87-2,3-3.31,4-1.8,1.29-.56-.67-2.49-.21-2.12.5-5.1,3.6-8.7,4.45-1,.22-16.24.81-16.87.67-4.55-1-4.84-6.11-9.06-5.16-1.52.33-2.26,4.58-4.18,5.73-1.61,1-8.1-3.11-9.26-3.56-2.34-.9-6.16,2.49-8.81,1.11-3.07-1.58-.48-6.15-8.15-7-12.11-1.38-8.27,7.92-14,7.74-2.3-.08-2.62-1.38-4.1-2.35-1.08-.7-2.66-.17-3.77-.81-5.82-3.35-4-9.13-8.24-12.93-.64-.59-1.1-1.92-1.94-1.73s-1.75-1.45-2.6-1.08c-1,.46.06.46-2,1.2-9.83,3.53-9.15,8.87-21.39,4.2-2-.77-11.26-9.32-8.37-12.71a3.9,3.9,0,0,1-1.14.22c-2-.06-2.93-2.64-5.31-3-.74-.1,1.17,3.39-2.42,6-1.58,1.15-15.66,5.3-17.93,5.67-2.48.4-5.36-1.06-7.88-1-4.82.15-22.67,1.71-26.67,3-4.26,1.41-8.62,5.83-12.21,8.36-3.29,2.31-8.23,2.58-11.74,4.26-2.46,1.18-3.46,4.5-5.63,5.62-.57.3-3.35.56-4.5,1.49-1.77,1.44-2.12,4.57-3.81,6.11-6.67,6.08-15.33,10.81-21.89,16.66-.4.35-2,0-2.34.33-.16.14,1.25,4.28,1.24,4.55,0,2-3.81,6.45-5.55,7.1l-3.61-.28c-2,.35-3.73,1.92-5.66,2.35-5.73,1.28-12.91-.88-18.56-2-1.61-.3-4.88-2-6.38-1.79s-2.25,3.8-3.61,4.4c-6.11,2.66-15.07-.27-20.71,1-6.32,1.39-15.4-5.94-17.47,3.21-.63,2.77-1.82,5-1.52,7.64.12,1.13,7.23,3.43,8.18,3.78,3.59,1.27.37,2.07,1,3.8l2.86-1.12c1.17.36-.11,3.16,2.14,2.9,1-.12,2.11-2,3.36-2,3,.12,13.67-1.14,14.09-.67.65.72-9,5.22-11.18,5-.87-.07-.59-2.29-1.45-2.18-1.26.15-1.46,2.37-2.68,2.67-6,1.44-17.13,2.52-21.81,8.77-3,3.94,12.92,2.66,13.07,4l-2.28,1c-3.57,4.69-5.67.82-10.62,2-1.26.29-2.19,1.4-3.39,1.94-2.64,1.19-8-.7-9.38-.56-3.28.34-19.64,5.72-18.75,1.92.38-1.64,3.76-2.14,4.37-4.36l-2.11-.18c-1.28-.12-6.74.32-6.88.27-2.61-.84-.31-1.53-1.94-1.37-.32,0-.29.59-.5.82-4,4.27,12.48,5.08,3.27,9.09-3.41,1.5-14.55,1.41-17.57-1.47-.25-.23,2-3.68-1-3.84s-10.78,4.9-11,4.9c-8.63-.37-8.27.89-13.93,5.87-.06,0-1.47,3.19-1.54,3.25-.93.79-2.78.08-3.52,1.07-1.5,2-.63,6.53-2.32,8.78-2.22,3-4.24.38-6.37,3.62s1.39,10.08,1.62,13.16c.21,2.83-3.89,5.8-3,8.82.56,1.84,14-1.59,29.32-6.27.6-.18,2.22-.6,2.47.57,1,4.48-4.17,4.66-5,5.89-.27.4-4.83,8.81-5.47,7.49-.26-.5-.3,0-.54.84l1.84.23c.61.08,1.32-.09,1.86.23,1.54.94,1,2.15,4,3.57,6.63,3.18-2.85,6.82.24,10.13,3.79,4,9.55-3.28,10.1,3,0,.49-.67.85-1.15.89-8.25.73,7.6,1.7-2.85,2.6-.66,0-1.38-1-1.9-.62-.79.59,3.69,3.58.33,3.87-2,.18-3.8-1.48-6.12.52-.3.26-.13.79-.21,1.19s-.41.84-.2,1.18c1.8,3.12,6.5,3.88,6.85,8,0,.2-.13.2-.33.14,1.93,1,3.88,1.89,1.76,2.07-.82.07,1.72.15,2.46-.21,1.43-.69,6.49-2.38,5,1-.68,1.5-9.82,4.18-11.34,4.2-1.67,0-1.79-2.06-2.72-2.88-.37-.34-.83-.82-1.31-.68-2.06.62.54,6.46-.1,6.25-5.89-1.92-1.84-8-2.67-9.92-1.15-2.56-5.06-7.51-8.54-6.32-4.41,1.49-1.23,5.65,0,7.8.19.34-.14.78-.22,1.18s-.6,1.12-.21,1.19c1.5.25,3.54-1.46,5,1.15,1.09,1.89-3.84-2-1.75,1.32.78,1.22-2.27,3.89-3.36,4.55-.49.29-3.26-2.87-3.33-2.85-1.29.09,1.23,3,.3,3.87-.43.44-1.29-.14-1.85.14-.22.13-.18.7.06.78,1.56.51,3,2.6,4.51,2,.81-.34,1.75-1.49,1.79-.93,0,.33-.7.52-.55.82.24.51,4.12,1.21,5.12,1.93,8.26,5.84-1.18-2.23,9.07-3.09.33,0,.66.4.69.73,0,.56,2.46,6.65,4.6,6.62,2.85-.05,1.14-1.48,3.34-1.07,2.75.51,3.35,3,5.91,3.37,1.22.2,2.56-.78,3.71-.33a2.7,2.7,0,0,1,1.38,1.44c.9,2.12-1.34,3.92-.76,5.53,3.41,9.25-3.21,4.49-7.46,7.67-2.31,1.74,6.74,2.33,7.89,4a1.49,1.49,0,0,1,.14,1.54c-1,1.53-.2,9,.21,9.33,3.54,3.1,5.6-4.3,7.85-3.83,2.6.56-3.07,4.25-.13,5.46,3.34,1.39.88-1,2.35-1.77,1.7-.9.51,4.29,2.38,5.23,1.32.65,1.37-3.24,2.84-3.38,1.31-.13,1.17,2.49,1,3.79-.22,1.7-2.54.3-3.05,1.08s2,2.63,1.54,3c-1.09.82-2.28,2.18-3.62,1.91-2-.44-4.07-3.56-5.3-2.64-.45.34-.8-.37-1.66,2.49-.26.81-2.85,3.41-.7,6.29.91,1.24,5.26-3.48,6-3.66.41-.1,5.49,3,6,2.56s-.5-1.16-.15-1.54c.61-.69,6.42.29,7.62.05,4.14-.88,15.43-6.56,18.13-2.6,1.29,1.88-2-1.2-1.81,1,.28,2.73.33-.49-1.65,2.5-.23.35.55,1.23.8,1.48a4.22,4.22,0,0,0-5.74-.2c-.2.13,1.69,5.92,1.25,6.1-.84.36-3.9-1-4.57-1.1-2.9-.58-4.39,1.44-6.77,2.22-1.25.4-2.67-.91-3.86-.41-1.48.62-6.27,4.28-7.77,5.4-.55.41-2.31.46-1.83.94,2.66,2.7,4.75-.22,7-.64.49-.09,4.34,1.44,4.56,1.12,1.32-2-.67-3.5,1.45-4.8,2.57-1.59,9.49.07,12.6-1.25.87-.36.32-3.72,2.29-2.56.26.15.42,4.6-.87,4a1.42,1.42,0,0,0-1.25.13c-1,.54-3.67.88-3,1.86.16.22,4.49.32,4.65,1.86.21,2.1-6.61,2-3.49,3.46,4,1.9,5.06-4.95,6.41-6.09.28-.23,4.83-2,4.89-2,.16-.27-6-7-1.27-6.11.65.12,1.53.75,1.42,1.41l3.3,1.22c.39-.13.13-.8.21-1.2.41-2.55-2.45-1.47.65-2.79,1.34-.58,1.82,2.14,2.22,2.88.22.42,4.29-2.53,4.95-1.31.75,1.4-1.17,4.57.57,5.39.61.29,5.58-1.19,7.11.79a3.45,3.45,0,0,0,2.06,1.33c0,.29-3.28,1.56-.38,2.38.67.19,2.16-3.21,2.18-3.36s-1.19-.22-.87-2.24c.14-1,.63-2.4,1.62-2.52s1.15,2,2.14,2.11c.54,0,5.13.06,5.4,2.5.06.48-.81.55-1.18.91-.74.77-3.21-.81-2.35,1.83,1.64,5,2.7-2.74,4.68,1.81.87,2-.75,4.62-.46,7.06.07.65,15.57,6.62,16.18,6.69,1.48.18,3.17-1.32,4.44-.53l.35.22c.87.44,1.85,1.15,0,0-.78-.4-1.42-.57.47,1.24.36.34,1,.27,1.37.61a7,7,0,0,1,.82,1.47c.51.92,1.24-2.24,2.3-2.24,3.33,0,2.11-1.07,6-3.46.76-.47,1.82.81,2.63.45,1.22-.55.83-3.22,2.15-3.4.66-.07,1.43,1.39,2.09,1.3,4.35-.54.32-.85,1.6-2.54.9-1.16,9-1.54,9.61-.45.27.48-.51,1.06-.44,1.62s.55,1,.83,1.45.54-.85.8-1.28c.53-.83,1.83-1.23,2-2.2.5-3.58-.65-2.78-1.43-6.06-.51-2.16,3.44-5.27,3.4-8.26,0-1.89-5-14.18,1.84-15.09,1-.13,1.71,1.12,2.7,1.21,7.2.58,15.65-3.67,22.88-.83,7,2.78,15.8,7.59,23.64,8.29,2.34.22,3.15-.82,5.26.78,11,8.33,11.38,15.27,26.15,18.65,5.83,1.34,5.34-3.49,9.61-4.68,1.19-.32,5.28,1,5.93.6,0,0,1.38-3.34,1.4-3.36,1.27-.84,4.33.32,5.79-.18,2.28-.76,3.62-1.89,6-2.59,1.14-.32,2.24,1.2,3.42,1,1.94-.34.89-2.73,2-3.47,3.19-2.18,1.77,2,3.54,1.74l.23-2.4c.51-.74,5.82-7.28,5.87-7.3,2.25-.8,2.68,4.24,3.94,4,.9-.15.07-2.91.1-3.15.17-1.88,2.94-1,3.49-2.19s-.83-2.53-.67-3.81c.49-4,11.87-17,15.1-20,2.66-2.52,8.69-5.35,11.82-2.19.58.57.3,2,1.07,2.16l3.1-.58c4.16.52,11.52,3.23,14.69,5.86.31.25,5-4.91,5.5-5,1.2-.23,1.6,1.27,2.79,1,2.64-.53,1.63-2.69,2.37-4.42.32-.76-.08.23-2.64-.26-.86-.17-.07-2.37.79-2.54a30.06,30.06,0,0,0,7-3.75c1.94-1.62,3.7-7.54,6-8.33a3,3,0,0,1,2,.39c19.72,8.29-3.5,21.39-5.07,29.45-.38,1.91,10.7,8.61,10.4,12.91a17,17,0,0,1-1.35,3.53c3.35-.09,8.07,4.39,10,3.39.53-.27.08-1.19.12-1.79.55-8,3.74-4.44,5.54-8.83.78-1.88-2.53-7.78-1.25-9.23,1-1.07,10.37-1.41,11.72-3.23.84-1.14-5.26-5.59-6-6.66-1.68-2.57-2.94-18.66-1-20.35.43-.38,14.63,1.29,15.37,2.26l-.59,3.3,2.8,1,1.36-2.67c3.23-1.8,8.69.35,12.13-1.07,9.87-4,19.77-21.23,31.84-19.92,5.18.56,9.88,5.37,15.07,6,5.56.69,18.69-3.1,23.81-5.35s10.85-3.91,15.64-6.68c11.44-6.65,19.17-20.09,31.21-25.68,9.31-4.31,20.86-3.64,30.52-7.83,3.33-1.45-4.89-206.9-5.56-207.2.51.23,4,1.49,5.94,2.35-.47-11.14-.92-22.28-1.29-33.42q-.63-19.35-.8-38.71c-.87-89,8-1040.24,4.62-1124.42a36.15,36.15,0,0,1-6.82-5.91s-8.17-5.45-5.46-10.9,2.73-16.34-1.35-17.71-4.1-2.72-10.9-6.8-15-13.62-15-13.62l9.54-2.73,4.07-5.45V32l-5.43-9.54a38.2,38.2,0,0,1-8.18-1.36,23.2,23.2,0,0,1-9.54-5.45l-1.36-8.17V3.35l-.08.23h-39.81c-.52,2.49.19,5.14-1.4,7.56-3,4.5-9,2.11-13.12,2.75-1.1.17-.73,3.77-1.52,3-2.7-2.77.21-.84-3.27.85-2,1-5.57.62-7.75.76s-1.5,4.71-3.36,6.07-4.8,1.71-6.34,3.75c-2,2.65-5.57,10.14-4.47,12.5,1.36,3,2.8.94,1.94,5.81-.55,3.14-7-2.28-7.76-2.39-2.62-.44-2.45,10.12-5.56,4.76a8.22,8.22,0,0,1-.5-2.74c-.15-.77-.39,4-2,5.36-2,1.7-6.29,1.34-8.93,2.5-.69.31-6.06,4.18-6.61,2.18-1.6-5.71,4.8-5.06,7.49-6.26,1-.43-1.9-1-2.63-1.79-1.1-1.22,1.66.69,5.08.7,1.35,0,.64-2.78,1.64-3.7,1.9-1.76-7.77-5-8.39-7.3-.25-1,1.46-1.78,1.3-2.79-.38-2.54-2.22-.76-1.34-3.81.1-.3,3.83-2.26,2.19-3.18-2.3-1.28-5.68,2.55-6,2.7-4.31,1.93-.75-3.17-.15-3.58,3.78-2.6,12.72-4.87,13.61-9.1.07-.37-7.13,3.51-7.67,3.86-5.16,3.48-10.44,7.16-14.52,11.95-2.34,2.77-10.9,13.73-8.84,16.26,1,1.26,6.13.88,6.44,2.35.79,3.66-5.19,6.74-5.94,9.89l-3.8-2.06c-.07-.24,3.48-5.27,2.42-5.42-1.81-.26-7.65,3.91-4.82.58,1.4-1.66,1.08-.65.48-3.13-.41-1.77-2,3.08-3.35,4.34-2.85,2.7-5.47,3-6,6.15a1.63,1.63,0,0,1-1,1.13c-3.26,1.35-5.34,4.83-8.44,6.74-1,.6-3.75.3-4.1.57-1.09.84-1.51,4.05-2.23,5.26-1.81,3.07-6.4,6.13-7.43,9.5a5.39,5.39,0,0,0-.3,1.65c.83,0,0,1,0,0l-.15,0c-1.12.11-9.62,12.36-11.61,14-1.79,1.44-5.85,3.54-8.25,3.11,0,0-5.41-2.77-5.06-1,.14.76,4.89,1.72,5.54,2.29,1.11,1,.26,3.36.8,4.07.24.32,5.59.16,6.37.52.52.24,1.77.45,1.45.92-1.69,2.37-3.55-1.58-5.75-.76-1.83.69-11,4.69-11.23,4.9,0,0-1,3.26-1,3.26-2,1.57-3.05-2-5.64,3.51-.86,1.87,4.31,3,4.35,5,.06,1.69-2.21,3.47-2.13,5.16a16.61,16.61,0,0,0,2.7,8.54c2.37,3.73-.91,5.32-.69,8.32.07.93,1.45,3.12.6,2.72-4.75-2.24-11.18,5.3-16.54,7.78-2.91,1.34-1.7,1.23-3.09,3.5-.3.5-1.29,1.88-1.16,1.32.2-.88,2.24-4.17,2.24-4.62,0-2.82-9.74,4.41-11,4.46-6.37.22-8.54-8.35-13.13-10.93-3.71-2.11-12.72.47-15.75-2.85-5.19-5.68,5-11.55,5-12.42,0-1.38-1.93-2.3-1.92-3.69,0-2.57,20.17-12.08,22.82-12.43.49-.06,3,.15,3-1.28,0-.1-6.85-9.77-7-9.83-.5-.27-1.29,1-1.6.54s1-1.1.83-1.72c-.36-1.29-10.9-3.45-11.92-3.81-2.23-.79-3.4-3.84-2.56-5.54l-2.18.12-6.51.33c-9.84.49-17.4,4.57-26.4,8.05-4.28,1.65-19.12-3.81-19.38.28-.18,2.66,14.92,5.27,17.14,6,9.41,3.32,3.55,6.83,7.52,11.13,1.74,1.89,4.74-1.13,4.52-.7-2.22,4.26-3.1,2.48-4.08,6.26-.93,3.57,2.72-1.54,3,.49.18,1.31-3.65,1.18-3.15,2.41s1.84,7.21,1.9,7.26c.48.59,2.31,1.44,1.57,1.66-.48.16-.54-1.06-1-1.1-1.2-.11-2.11,10.22-2.2,11.42-.22,2.66-.29,6.57,1.28,9,2.17,3.25,6.31-1.65,8.85-.55,0,0,3,2.68,3,2.68.82.21,1.53-2,2.11-1.38,1.26,1.3-3.1,1.88.17,2.84a4.21,4.21,0,0,1,1.19.35c4.33,2.95,3.67,5.1,2,8.79-.24.59,3.45,4.43,4,4.58s1.48-1.09,1.66-.52l-2.7,3c-.49,1.37,1.16,3.45.79,4.86-.78,3-2.8,5-2.75,8.89,0,4.32,2.48,5.58,3.91,9.05,0,0,0,3.65,0,3.67.54,1.49,4.28,3.77,2.7,3.94-3.89.41-4.84-8.87-10.39-9.65-2.43-.34-7.49,4.61-8.26,6.89-.23.68,3.29,1.09,3.73,2.55.13.44.85,1.21.4,1.34l-2.17-2.28c-8.5-1.44,2.83-6,2.66-9.58-.17-3.4-6.39-1.64-7.63-2.08-.26-.1-2.23-2.77-2.69-2.84-3.79-.59-7.73,3.8-11.28,4.19-1.69.19-8.59-4.2-12-2.51-2.69,1.34-4.32,10.8-5.69,13.55-.62,1.26-2.09,3.06-1.7,4.47l-2.19,1.33c-2.79,2.92-4.23,5.42-7.67,7.9-2.09,1.5-5.7,2.37-7.44,4.16-2,2.11-2.29,6.51-3.89,9-2.93,4.57-12.16,8.54-11.78,14.66.36,5.59,8.71,14.3,13.63,17,2.22,1.23,2.9-.14,4.84,2.06,1.71,1.92,2.71,4.83,4.53,6.56.63.59,2.53,1.06,2,1.7s-1.72.51-1.95,1.24c-.6,1.93,4.57,5,3.94,7.85l-1.78-.28c-2.32-.36-3.22,1.46-5.17,1.33-.63,0-6.23-4-7-2.64-.35.62,1,1.33.76,2-2.5,7.59-25.37-3.3-33.15-1.48-3.15.74,2,1.93,1,2.69s-2.87.32-3.92.92c-2.68,1.54-1.2,5.41-4.23,6.11-1.1.25,1.41-2.1,1.15-3.2s-4,.3-2.42-2.37c2.18-3.83,7.31-.09,6.44-3-.15-.49.14-1,.21-1.51,0-.13.18-.34,0-.38-2.67-1-4.57,1.71-7.14,1.28-6.46-1.07-7-5.12-9.34-6.65-4.06-2.62-15.72-4.42-19.63-1.53-.47.34,1.62,7.33,1.42,8.43-.93,5.14-7.29,1.32-8.26,3.18-.57,1.08.62,2.45,1.44,3.34.59.65,2.66.11,2.43.95,0,.1-1.82,2.27.37,3.57.06,0,3.84.62,3.88.65,5,2.65,7.74,9.42,13.07,11.85,1.45.66,9.1-.92,9.88-1.45,1.43-.95,1.72-5.62,2.81-4.3.2.23.44,2.56.62,2.8a2.16,2.16,0,0,0,1.26.45c4.24.8,1.75,1.48,2.34,5.36.35,2.25,9.91,5.68,5.06,12.14-2.17,2.87-5.23,1.1-7.5,2.43-3,1.8.33,4.86-4.38,6.15-3.14.86-8.45-3.05-11.45-3.43-.78-.1-.74,1.64-1.52,1.8-.2,0-3.66.06-3.81.07l-2.26-1.74c-1.54-.38-6.09.49-7.37-.67a11.14,11.14,0,0,1-2.18-3.23l1-2.42s-5.66-2.81-6.17-2.41.35,1.86-.3,2.27c-1.26.8-3.54-4.67-4-5-5.64-4.36-10.39,4-16.5.29-.65-.4-.5-1.53-1.13-2-.07-.05-3.32,0-3.39-.08-.77-.57.36-2.46-.52-2.82-1.44-.59-5,.89-4.61-.6,0-.08,4.2-3.53,4-4.39-.11-.6-4.33-2.09-3.91-2.91.21-.39,5.16-2.8,1.28-3.14a5.6,5.6,0,0,0-1.6,0l-.37.34c-.28.23-.49-.18.37-.34.82-.75,2.39-2.35,2.15-3-.64-1.81-6.11-3.55-6.42-4.61s2.43-1.5,2.11-2.56c-.61-2.1-2.36-1.6-3.85-2.9a3,3,0,0,1-1.11-2c0-.43,1-.46.94-.9-.22-2.74-4.27-2.57-5.39-3.33-2.27-1.54-2.89-3.37-2.53-3.87s-.89-.93-.61-1.33l3,.19c.35-.62-.75-1.5-.37-2.09,0,0,3.88-.7,3.9-.72.22-.54-1.36-.6-1.33-1.19.07-1.11,2.2-4.18,2.28-5.45s-1.9-1.4-2.28-2.45c-.27-.74,1.28-1.78.67-2.27-.37-.31-1,.57-1.4.25s-.22-1.15-.32-1.73-.87-1.51-.33-1.73c2.17-.89,7.43,4.54,6.61,2.35-.34-1-2.15-.74-2.49-1.68-.17-.46.07-1,.1-1.45s.53-1.27.08-1.45-.78,1.16-1.27,1c-.68-.29,1-3-.29-3.52-1-.41-2.16,1-3.15.58-3.11-1.3,0-2.19-.29-3.51-.85-4.61-10.69-4.7-13.35-6.13-.87-.48-.57-2.29-1.53-2.57-1.45-.43-3.92,2.11-3.92,2.11-.7-.15-.17-1.56-.72-2-1.63-1.32-4.22-.72-6-1.8,0,0-4.82,2.12-4.7,1.51.33-1.66,5.66-3.61,6.41-6-.54,0-1.13.17-1.61-.08-2.6-1.32-4.38.82-7.39-.51-2.21-1,1.72-2.41-2.42-1.72-2,.33-2.47,2.76-5.41,1.6-1.22-.48,2.12-1.76,2.2-1.77,2.68-.74,3.14-.86,6.56-.39,1.08.15,3.86.34,3.21-.54-4.39-6-10.68,1.73-12.49.19-.28-.24.15-.83.48-1,1.15-.64,1.69-2.22,2.94-2.6,1.83-.56-9.44-1-8.14-2.19.87-.8,2.91.47,3.45-.56.86-1.64-2.05-1.49-2.25-1.51-3.68-.44-3.2-2.69-6.64-3.39-.9-.19-2.59,1.35-2.75.43-.07-.51,1-.46,1.28-.9,1.64-2.73-5-1.32-.83-2,.19,0,2.27,0,2.11-1-1-6.52-12.1-3-14.27-4.1-.65-.34-.41-1.52-1-1.95-.28-.2.66.14,1,.21,2.19.43,2.75.67,4.93-.17,2-.78,16.64-.25,16.77-.08.72,1-2.62.81-3.19,1.91-.44.82.18,2,.78,2.68,4.54,5.28,13.77,7.56,18.38,6.78.81-.15-1.72-.41-2.3-1s0-1.82.69-2.23c1.5-.92,6.61,4.9,8.26,4.91,2,0,3.21-.73,3.58-2.75.1-.48-.08-1.79.28-1.45,1.64,1.52-1.25,3.71-.64,4.34s7.32-2.12,9.05-.92c.41.28-5,.26-1.68,3.48.51.5.85,1.26,1.52,1.5,3,1.08,4.83-4.91,8.1-4.33,5,.9,9.44,6.27,14.79,6.4,11.42.27,23.48-2.21,34.91-1.5,3.77.24,6.81,2.07,10.36,2.74,11.89,2.3,23.87-2.25,34.27-7.27,4.82-2.34,22-15.22,23.55-20.38a36,36,0,0,1,3-8c1.92-3.31,5.18-7.21,6.08-11,.54-2.27-1.08-5.6-.8-6.95.13-.71,1.51-.54,1.81-1.21,0,0-2.75-8.38-3.34-8.38s-.68.83-1.16,1-.83,0-1.25,0c-.67,0-1.48.28-1.76-.6-2.11-6.77.82-5.26-4.64-8-1.56-.78-.78-6.87-1.71-8.39-.32-.51-.45-1.21-.94-1.52-2.36-1.49-2.6,1.55-5.27,0-.93-.55-1.27-2.19-2.34-2.21-4-.09.4,4.17-2.92,3.59-4.18-.74-.75-4.06-3.84-5.35-1.17-.48-3.71,0-5.1-.79-2.89-1.72-5.46-6.26-9-6.81-4.33-.68,3.48,3.82,2.64,4.93-1.15,1.48-18.49-3.27-20.24-4.8-.53-.46-5.8-3.47-7.29-3.12-.45.1.4,1.17,0,1.39a6.23,6.23,0,0,1-.83.41,5,5,0,0,1,2.72.76c1.37.79-3.71-1.68-5.65.4-.31.33-.2-.87-.31-1.31-.38-1.7,0-1.4-1.9-2.33-1.45-.7-4.84-.69-5.81-1.42-2.09-1.57-3.58-3.47-6.21-4.8-3-1.53-5.11-1.07-7.86-1.68-5-1.13-12.75-5.71-18.84-7.57-5-1.53-29.07-6.29-29.94-4.18-.39.94,2.64.51,2.61,1.53,0,.56-4.71,2.76-5.54,2.41-.61-.27.46-1.58,0-2-.71-.61-5.23.56-6.24.49-5.15-.38-9.09-1.16-14.41-.77-2,.14-1.93,2.81-4.28,2.08-1.15-.34-1.74-2.94-2.69-.21a11,11,0,0,0-.29,4.12c.32.3.3.71,0,1.17a5.52,5.52,0,0,1-1.2,3.71c-1.37,1.66-5.62,1.38-6.8,3.16-.38.57-.1,1.37-.17,2.05s.21,1.47-.15,2-.1-1-.15-1.55c-.09-1-.78-2.19-.28-3.11.18-.32,7.43-4,8.75-6.31a11.42,11.42,0,0,0,0-1.17,0,0,0,0,0,0,0c-1.17-1-3.16.57-4.62.11-1.13-.36-2,.36-1.52-1.1,0-.13,5-4.62,4.5-4.78s-1.53.81-1.61.27c-.16-.92,2.15-1.53,1.59-2.29-1.47-2-9,.89-10.38,3.08-.15.22-.57,5.71-2.38,3.74-2-2.16,4.91-5.64,2.34-7.08a1.3,1.3,0,0,0-1.82.26c0-.21-.1-.4-.71-.52-2.52-.53-6.35.87-9.19,2.16a26.87,26.87,0,0,1-3.68,1.87s1.58-.91,3.68-1.87a7.5,7.5,0,0,0,2-1.69c.45-.64-1.9-.26-2.14-1-.16-.49,1.46-2.23-.62-1.9-4.45.69-5.94,1.36-8.4-1.39-.6-.66,2-.24,2.45-1,.2-.36.27-.58.4-.86-.5-1.69,1.38-3,0,0a2.29,2.29,0,0,0,1,1.31c1.56,1.05,3.89-.59,5.12-.79,3.17-.49,16.46,3.76,12.91-5.39-1.41-3.6-11,1.22-12.54-.65-.43-.5.09-1.42-.3-1.94-1-1.26-3.9-.33-5-.55s-5.3-3.84-6.54-2.32c-1.58,2,3.08,3.26,3.29,5.24s-5-1.34-6.33.51c-2.39,3.27,1.89,4.06,2.13,5.65,0,0-4.76,0-6.81.33-.48.07-1.63,3.55-2.42,3.66-1.46.21,2.33-3.08,1.36-4.17-1.3-1.48-8.59-2.2-10.37-1.87a4.75,4.75,0,0,1-.64,0v0c1.17,2,2.46,3.63,2.77,5.92,1.53,11.12-13.74-.41-16.74,1.87-.39.29.94.27,1.37.49,1.81.92.28,3.55-.27,4.35a11.45,11.45,0,0,1-1.24,1.82c-3.17,3.05-10.9,4.54-13.12,8.24-1,1.68,1.39,13.47-4.57,11.89-.49-.13-.85-.28-1.27-.43-11.88-4.15,6.09-14.23,4.67-18.65-3.8-11.89-18.47-7.07-27-19.35-.2,0-.28,0-.09-.13,4.82-4,.53-6.67,1.36-11.89l2-3.66a4.93,4.93,0,0,0-1.87-1.55c-1.82-.53-7,4.45-6.24,1.28.64-2.74,6.34-4.42,7.54-7.23a3.33,3.33,0,0,0,0-1.3c0-.1.1-.3,0-.32-2.9-.35-8.64,3.82-11.79,4.73-.73.2,1.31-.77,2-1.16.84-.51,6.89-4,6.65-4.85-.15-.52-1.07-.18-1.61-.27-2.48-.41-3.65-.26-4.18,0-.1.9-.81.37,0,0a1.84,1.84,0,0,0,0-.43c0-.47-1.48-.07-1.31-.51.22-.61,6.84-.68,8.15-.81.41-.05,1.21.28,1.24-.13.16-2.63-.54-1.51,1.29-2.71.45-.29,1.5.36,1.57-.17s-1.59-.58-1.39-1.14c.14-.38,3.92-1,3.1-3.53s-5.93.81-6.23.65c-1.71-.92,2-4-.76-4.4-.39-.06-4.62,2.38-5.72,2.49-4.39.43-2.63-3.83-4.54-1.48-.53.65-2-.44-2.48.24-1.34,1.89,3.05,2.67,1.41,5,0,0-4.13-3.21-5.9-2.65-3.26,1,2.19,3.18,1.9,3.66s-4.31-2.32-4.13-.27c.35,3.78,6,1.55,7.48,2.53.36.23-.57,1.56-.43,1.93a7.17,7.17,0,0,1,1.43.22c-.48-.05-1.19.23-1.43-.19,0,0,0,0,0,0-1.67-.15-3.94.09-2.27,2.81.32.54-1.27.11-1.89.17-3.09.28-3,3.1-2.43,4.73.37,1.18,4.1.69,3.32,1.64l-3.89-.94c-4.09.83,0,4.79,1.13,5.72,1.41,1.18-3.87-.52-4.78-.23s-5.26,7-6.28,5.06c-1.4-2.75,3.65-8.05,2-10.52-.36-.56-1.27-.48-1.93-.48-.81,0-2.12,1.35-2.33.58-.29-1,3.21-2.16,3.74-2.63,1.88-1.75,1-9.33.45-9.68-3.5-2.29-8.76,8.4-9.93,9.79s-1,2.66-2.19,4.67c-2.25,4-7.12,6.61-9.73,10.4-2.1,3,2.79.55,1.76,2.48s-5.38,8.17-6.82,8.26c-.42,0-1.19.5-1.28.08-.17-.7,0-1-.4-1.27s-1.23,5.27-2.52.8c-1.37-4.74,3.46-5,4.61-8.09,1.29-3.47-3.91,2.3-2.39-2.45,1.2-3.7,2.82.59,3-2.78,0-.48.91-1,.54-1.33-.55-.5-3.73-.23-4.47-.36-1.41-.27,1.86-.22,1.69-1-.39-1.66,14.16-14.19,14-14.88-.65-2.59-7.71,2.21-8.67,1.9-.8-.26,2.06-4-2.22-5-.86-.19.52,1.67.79,2.5s-1.71,5.38-2.53,4.66c-.52-.47,0-5.12-1.9-5-3.48.23-1.9-.5-1.9-.52-.54-4.29-2.42,3.6-4.31,1.55-.12-.12-1.7-4.88-4.54-2.29-2.39,2.19,2.79,3.15,2.73,3.68-.18,1.7-2.85-.45-1.69,3.3.16.54-1.08-.36-1.61-.55-2-.67-3.49-3.91-5.42-1-3,4.56,12.58,2.74,9.28,7.83-1.53,2.36-6.45-4.73-8.61-1.45-.37.55-.17,1.3-.22,2,0,.21.16.46,0,.64-.81,1.09-3,1.37-3,2.73s3,.64,3.9,1.74c.34.41,1.54,1.21,1,1.24-8.94.47-2.29-6-14.17,2.85-.84.63-2.73,1.64-2.41,3.13.2,1,3.28-.37,2.9.52s-1.77,1-1.49,2.66c.11.6-1.19.2-1.8.3-5.75.94.9,3.5-1.17,5-.95.71-3.26-.38-3.49.79-.37,1.8,6.66,2,6.83,2.32s-3.71,3.56-4,3.45c0,0,1.61-2.69-.11-2.62-1.46.06-2,2.32-3.42,2.75,0,0-1-3.24-3.6-10.29l-1.71-.15c-1.14-.11-2.27-.29-3.42-.32a8.84,8.84,0,0,1-1.92.06c-.5-.12-2.84-1.82-3.86-1.17-2.42,1.55-.9,3.38.59,3.88.87.29,3.36,1.2,2.44,1.22l-3.55-1.19c-5.47-.42.46-.81-1.11-5.16-.19-.5-1.06,0-1.59,0s-1.23-.35-1.6,0c-.19.21-4.73,7.15-2.9-1.22.33-1.5-3,1.36-3.76,2.69-.24.42,3.29,3.82,1.36,3.86-.77,0-.77-1.36-1.31-1.92-.89-.89-3.75-3.91-4.57-4.44-1.27-.84-1.09,3.81-1.2,3.91-.62.56-.8-1.74-1.62-1.92s-4.13,1.49-4.11,2.67,5,.79,5.46,1.2c.62.61-.87,2-.28,2.61,1.8,2,9.64.87,12.15-.92.68-.49-.82,1.58-1.55,2-.38.22,1.46,1,1.94,1.25.77.36-1.16,1.47-1.05,2.31.57,4.67-2.54-4.71-3,1.71-.3,4,1.08,3.11,3,5.16.64.68,1.77,2,1,2.6-1.67,1.3-2.6-1.53-4.3-3.83s-4.43-.93-5.85-3.14c-1.17-1.8-1.3-4.69-5.21-3.83-.93.2-2.65,2.26-2.2,3.3.38.89,3.38.72,2.59,1.26-5.36,3.75-6,4.68-6,4.68-4-1.29.54-4.48,0-5.24-2.15-3.18-4.16,4.54-4.25,4.63-.68.56-6.08,1.25-6.12,1.36-.43.88,1.3,1.64,1.31,2.62s-1.67,1.73-1.28,2.63l3.26,2c1.09.94,4.37,3.44,3,3.18-2.28-.41-4.08-4.1-6.21-3.16s-2.06,6.56-3.86,7.94c-1.22.93-3.4,1.05-4.89,2.65l-1.62,2.66c-2.92,0,4.45-5.82,4.56-6,4.24-5.76,5.38-21.26,1.87-22.34-1.5-.48.32,4.57-1.27,4.57-1.42,0-.9-3-1-3.26s-2.65,7.53-3.86,6.55c-.7-.58,3.24-4.92-.33-1.31-7.6,7.71.72,5.67,1.62,8.1.54,1.44-3-1.26-4.53-.88-2.59.64-1.36,7.13-4.92,8.55-1,.41,1.82-1.55,2-2.63.34-2.31,3.21-11.66.38-13.16-3.48-1.84-15.73,4.51-14,9.08.38,1,9.25,0,6.15,2-.58.38-.93-1.19-1.61-1.34-1.85-.37-4.9,1.79-3.62,3.92,3.66,6.09,5.33-1.36,8.73,8,.18.52,1.43,1,1,1.33-1.92,1.29-3.92-1.74-4.88-2-5.08-1.52,3.37,1,2.31-2-.92-2.53-3.19-.74-4.9-1.37-2.9-1.07-3.72-6.84-5.09-8-.59-.48-6.68.24-7.5,1.19-2.33,2.74,5.27,6.73,7.26,7.4,1.15.38,3.88,1.17,3,2-.27.27-5.2-2.72-6.51-1.43-.64.63,1.16,2.67.28,2.66s-2-4.13-2.55-4l-.48,3.08s-4.06-12.47-7.25-7.2c-.47.75.44,1.77.26,2.64-.22,1.09-4.83,5.1-3.73,5.88.62.44,1.67-.39,2.28.06s-1.2,1.86-.71,2.63c.32.5,1.49.13,1.62.71s-1,0-1.47,0a6.7,6.7,0,0,0-1.48,0c-1.53.3-6.17,1.09-7.26,1.79-.75.48-2.13,4.87-2.16,5.94-.05,1.47-4.64-3.77-2.05,1.94.5,1.09,2.31-.71,3.5-.89.61-.1,4.43.95,4.41,1.79,0,1,.57-2.25-7.33,1.79-1.82.93,8.36,2.51,6.19,3.53-2.75,1.3-6.32-5.83-9.47-1.18-1.48,2.19,4.72,3.08,6.07,3.77.56.29,1.75.95,1.28,1.38-1.34,1.29-6.78-3.2-8.53-3-4.13.59-1.73,3.29-1.77,3.3-2.38.86-1.94-2.43-3.56-2.82-2.57-.61-9.27,1.86-7.85,5.07.2.45,1,1.07.62,1.37-7.49,5.53,3.89,2,7.26,1.64.8-.08,2.24.66,2,1.42s-1.91.59-1.71,1.28c.48,1.63,9.4-4.06,10.47-3.69,1.92.67-1.62,3.09-1.43,3.33.85,1.11,6.8.49,7.92,2.93.23.48-9.74-2.84-10-1.65-.32,1.58,5.54,2.87,3.92,2.82-2.18-.06-6-4.44-7.34-.91-.9,2.44,6,4.8,2.41,8.2l.11-3.38c-1.52-3.36-4.68-5.48-7.9-4-.67.31-1.54,1.49-2.05.93s1.27-1.26,1.08-2c-.52-2-10.61-1.82-11.48-.26-.52.93,8.88,6.92,9.43,9.66.23,1.09-2.13-.75-3-1.48-1.49-1.31-7.6-8.28-9.82-5.85-.37.41-1.24.76-1.06,1.3.6,1.74,1.32.68,1.22,2.76l1.67.08c1.62.08,3.78-.37,4.36.2s1.18,1.18.62,1c-.39-.11-5.79,1.18-4.19,3.54.67,1,7-2,8.38,1,.41.9-8.61-3.22-7.13,1,.15.44.89.27,1.33.41,3.27,1,0-.49.6,1.72.73,2.55,1.57,2.46-.49,3.39-.91.41-.08,2-.08,2a11.56,11.56,0,0,1,1.26,2.1c-1.19-1.76-4.71-1.93-5.94-3.68l-.18-3.41-3.23-2.88c-.05-.72,1.84-6.45.73-8.11-2.22-3.33-2.39,4.84-6.35,5.77-.17.23-.41.1,0,0h0c.19-.21.31-.78-.24-2-.28-.66-1.07-1.93-1.6-1.44-.34.31-1.68,1.51-2.12,1.92s-.41-.31-1-.74-4.51,3.6-4.61,3.82c-.64,1.62,3.2,2.83,3,1.53-1-5.37,5.4-.24,7.48-.95.61-.21.87-1.61,1.42-1.29s-.53,1.51-.1,2,2.43.37,2,.78-1.87,3.9-2.24,4c-1,.2-3.72-5.09-6.8.32l-.1.19c-.22.61-.5.9,0,0,.39-1.07.59-3-3.91-1.11-1.51.65-1.85,1.4-1.91,1.82a3.76,3.76,0,0,0-.19-.58c-1.5-3.52-8.42.46-7.87.88,1.25,1-1.13-.47-2.11,1.23-.14.22.14.5.28.71,2.71,3.73,2.53-1.7,5,1.68.42.58,2.21.12,2,.81,0,.13-11.5,1.25-6.36,3.71,2.1,1,12.35-6.07,12.59-5.4.31.84,3.86.76,4.55.6.41-.09,1.42-.63,1.21-.28-1.4,2.46,1,.15,2,3.52.15.47.92,1.32.43,1.4-1,.16-6.92-7-8.67-3.21-.67,1.43-1.33.51-1.73.58,0,0-.82,1.1-3,3.94-.9,1.19,3-.51,4.47-.43.88.05.7,1.85.73,2.1,0,.46.55,1.4.09,1.38-.15,0-6.51-5.26-4.47.42,1.35,3.73,11.5-1.22,13.72-.61,1.5.42-8.57,1.77-7.73,3.71,0,0,3.17,7.91,1.59,8.34-.41.12-1.54-9.52-6-9.28-1.45.07-3,3.88-3.58,2.53a7.3,7.3,0,0,1,.17-2.74,4.32,4.32,0,0,0,.13-2c-1.14-2.7-7.83-1-8.62.83-1.25,2.92,5.47,2.51,6.32,3.15s-2.43,0-3.46.47c-.37.19-.51.66-.75,1-1.58,2.06-.8-3.38-4.38-1.32a76.48,76.48,0,0,0-5.1,5.85c-1.07,2.76,6.07-.32,6.11-.27,2.46,2.51,1.36,1.07,1.66.79s1.14.08,1.72.11a5.36,5.36,0,0,0,2.06.13c1.36-.44,3.15-3.05,3.9-1.82,2,3.2-1.38,1.38-1.89,2.64-.17.44.91.29,1.35.43,2.93.93,3.71-.58,2.69,1.19-.16.29.33.72.65.74,2.78.16,7.87-1.77,8.87,1.87.17.63-5.6-3-7.19-1.09-.26.32.68,0,.83,3.5,0,.65,1.79,1,1.31,1.46-2.51,2.24-2.15-4.24-2.18-4.27-.85-.75-7-2.14-7.49-1.83-2.43,1.64-1.14,1.5-.55,3.42.14.46,0,1.39-.44,1.36l-1.89-2.89c.08-1.14,3.32-2.23,2.24-2.62-2.25-.8-3.49.49-5.42,3.79-.26.45-.18-1.12-.61-1.41-2.52-1.76-4.51-.34-5.1-1-.74-.85-3.11,1.1-3.07,1.86.12,3.66,6.11,1.26,5.05,4.5-.33,1-4.19-4.63-6.46-1.84-.3.37.35.94.25,1.41a2.26,2.26,0,0,1-.79,1.33c-4.32,3.19-.46-1.79-2.9-3-1.86-.9-2.56,1.89-2.91,1.86-2.22-.16-3.43,2.33-3.68,2.5-.09.06-5.64-.72-5.23.28,1.46,3.64,5.81,3.84,8.92,6.26,1.93,1.5-9.61-2.57-10.06-.8-.32,1.27,4.86,1.23,5.09,1.81.56,1.36.52.52,1.33.8s-1.79,0-2.48.5c-3.21,2.28-10-3.74-10.95,1.2-.55,3,4.12,1,4.36,2.45.06.42-4.75-.59-4.36,1.73.29,1.77,2.77,1.46,5.07.73,0-.11,0-.21.16-.29,6.49-3,3.4-.85-.16.29.3.83,6,2.27,4.53,2.16-2.81-.23-3.86-2.13-6.92-1.27-1.34.38-2.43.68-1.63,2.66.31.8,3,.36,2.38.91-2.7,2.26-3.18-3.77-5.64-4-.6-.05-1.73-.32-1.78.28-.11,1.2,3.67,4,2.71,5.4-.52.73-5.49,1.28-3.47,3.21,3.69,3.48,6.76-2.79,9.18.07.28.32,1.17,1,.61,1.19s-4.06,2-4.06,2c3.88-1.08,11.1,1.34,13.07.34,1.3-.66,3.75-3.24,5.07-1.72.52.59-1.38.77-2.06,1.16l-1.38.75c1-.47,2.31-.94-.33,1.31-1.88,1.61-7.37-1.18-8,.31-.06-.25-.37-.56-1.12-1s-16.76,3.89-17.89,4.56c-.47.27-1.36.28-1.38.81-.15,3.69,6.42-.12,7.46,0,.42,0-2.5,3.77-2.49,4s6.25,4.29,4.77,4.73c-4.08,1.22-5.14-7-10.32-2.41-4,3.55,2,4.09.54,5.7-.31.35-3-1.83-3.67,1.08-.17.71,3,4.52,3.34,4.55.48,0,1.66.77,1.19.81-4.52.48-2.72-5.05-5.3-4.73-1.31.16-5.32,4.4-4.16,6,.28.39,1.24-.3,1.42.14s-.86.81-.85,1.34c.14,4.2,2.72-1.16,3.35-1.1,1,.1.32,0,1.06.1s.67,1.44.53,2.17c-.56,2.85-.92,2.7,3.25,3.85,1.07.29-2.69-.52-3.28.41-.4.65,3.39,3.83.69,4.33s-2.57-2.47-4.63-.79c-.41.32-1.51.58-1.18,1s1.54-1.11,1.5-.57c0,.14-5,2.73-4.67,2.76,6.28.6,9.49,1,9.37,1.24s-5,0-5.45,0c-.89,0,.76-.3.5,2.37,0,.21-5.52,0-2.35,1.92,2,1.21,9.55-4.67,9.46-4.12-1,6.54-10.14,4.27-14.14,7.24-.38.29-.21.93-.31,1.4-.4,1.71-3-2.19-4.68-2.61-2.67-.68-3,3.14-3.68,3.92-1.62,2-6.14-1.26-7.39.66-.49.74-4.1-.31-5.47,3-.63,1.56-.28,1.32-.15,1.42,1.06.87,3.94-.21,3.93,1.15,0,1.64-5.36,1.13-4.31,2.4.32.39,1-.13,1.5-.19,5.14-.68,14-12.28,20.44-6.14.64.6-1.58-.91-2.46-1-2.89-.17-7.15,1-9.28,3-.34.32,0,.83.47.77,2.49-.35,1.55.48-.08.71-.5.06,2.43,1.32,2.43,1.32.43.12-.73.52-1.16.59-.61.11-4.5-.47-4.8.23s1.42,1.16.94,1.53-6.82-1.38-4.82,3.8,3.16.73,3.94,1.14c.47.24.08,1.3.58,1.5,1,.4,3.49-.74,3.29.34,0,.19-5.76.45-6,.81s.93,1.09.58,1.5c-.77.91-5.47,1.59-.23,2.14,5.77.61-2.84.28-3,.4-.46.35-3.48,5.94-4.65,5.27-.18-.1,2.82-4.38,2.74-4.75-.5-2.62-3.48.7-3.59-1.12,0-.92-1.79-6.68-3.67-6.89-2.18-.25-.29,2.62-.55,5,0,.08-7-.47-7.13.62,0,.34,5.11,2.39,4,4.07-.15.25-3.6-2.4-3.78-2.6-.45-.48-3.12-1.42-3.57-1.14-3,1.78.24,1-.06,3.6-.12,1-2.18,3.53-3.09,4-.52.27-2.14-1.54-3.39.31-.63.94,3.41,2.18,2.33,2.46-.71.18-3.31-1.13-4-1.21-.26,0-.46.4-.45.67.1,2.21.6,1.27-1,2.05-.25.11-.62.46-.46.67.41.52,1.45.35,1.76.94.58,1.12-2.46-.64-3.6-1.17-.87-.4-.24,1.91-.36,2.85-.29,2.34-2.92,2.77-2.57,5.49,0,.12,4.47-2.22,5.28-.06.2.53-1.15.1-1.71.15-1.31.11-7.1.84-7.08.92.11.55,1.55.39,1.39.91-.48,1.59-6.92.51-7.61,3.39-.43,1.85-.34.47-.18,4.35,0,.79,1.27-1,2-1.19,2.77-.56,3.72.08,6.22-1.39,3.93-2.31.45.5,4.18-.21.64-.11-1,.79-1.57,1.17-.74.57-6.13,1.55-6,2.25.16,1.31,1.75,7.35,3.47,8.47,1.9,1.22,25.56-9.58,26.41-12.18,1.82-5.57-10.46-.57-10-1.15,1.89-2.52,8.65-3.74,11.5-5.22.22-.11,1.5-1.41,2.8-2.63-.22-.78.41-.94,1.15-1.05,1.11-1,2-1.55,1.78-.76-.14.59-1,.65-1.78.76-.37.32-.75.67-1.15,1.05a2.71,2.71,0,0,0,.4.81c.42.64,6.52,1.16,5.4,2-2,1.57-10.58,1.2-9.61,5.48,0,.17,9.43-.88,7.33,2.61-1.55,2.62-13.37,4.61-17.13,7.19-.67.46-2.1,1.67-1.37,2,.15.08,5.88-1.54,5.86-1.51-.21.32-.39.57-.56.81a2.54,2.54,0,0,1,.31,1.35c0,.45-5.57-.18-3.32,2.54.67.79,2.54.1,2.91,1.06s-1.73,2-2.87,1.87c-3.45-.4-13.13-5.18-16-2.66-1.18,1,.17,2.76,1.67,4.33a7.83,7.83,0,0,1,1.18.41c.39.21.35.59.21,1,1.28,1.29,2,2.19.19,2-1.2-.14-.47-1.14-.19-2-.43-.44-.92-.92-1.39-1.42a15.12,15.12,0,0,0-7.93,0c-.6.15.88-.87,1.31-1.3.83-.82,2.31-2,2.33-3.36,0-.2-4.32-9.26-4.51-9.34-3.53-1.59-3.32,3-3.91,3.87s-1.22-2-2.06-1.73-.66,1.67-1.4,2c-.35.16-1,.21-1.12-.15-.25-.68.89-1.76.28-2.16-.8-.53-5.58,3.37-5.43,3.66,2.08,4.08-.09-.82-.12,3.65,0,1.84,6.28.53,7.22.23.38-.12-.69.39-1,.59-1.67,1-3.09.36-4.88.82l-3.67,1.7c-.28-.3,3.53-7.49-.51-7.4-.74,0-1.94,3.42-3.39,2.47-1.27-.85-4.3-2.06-5.24-.75s2.7,2.58,2.21,3.25c-1,1.4-5.3-1.39-5.6,1.77-.37,3.83,2.71,2.73,4.8,4,1.35.82-3.64-.37-4.73.79s1.33,3.13,1.1,3.1c-2-.28-4.91-2.91-7.22-3.25-2.51-.37-.84-.06-3.22,1-.19.09.13.4.2.59.73,2.08.18,3.39,2.55,4.24a9.68,9.68,0,0,0,1.7.25c.57.08,1.78-.32,1.7.24,0,0,.62-.59.9.87.44,2.24-2.24.44-2.45,1.86-.28,1.94,4.66,4.68,5.61,6.7s-7.05-5.54-5.65-3.76c.08.1.14.15.21.24,2.24,1,2.21,2.7,0,0a6.82,6.82,0,0,0-1-.35c-.55-.15-1.13.77-1.62.5-1.43-.8.69-4,.64-4.33-.21-1.31-3.57-2.32-4.11-3.56-.8-1.8,1.85-1.32-.7-3a4,4,0,0,0-2.37.38c-1.07.94-3.58,2.05-2.8,3.26.43.67,1.31-1.28,2.1-1.16,1.74.27,2.15,2.78,3.23,4.17,2.12,2.72-1.3,4.09,1.79,6.16,1.55,1,5.52,3.71,6.21,5.34.39.89.33,3.52-.42,2.89-1.06-.91,0-2.2-1.1-3.12-1.53-1.31-5.25-3.36-6.58-5.38-1.72-2.63-.52-4.79-3.19-7.12-.94-.81-2.46,1.38-3.62.92-1.7-.66-1.47-2.46-3.93-2.07-3,.46-3.54,2.92-5.39-.11-3.2-5.23-5.32-2.44-9.55-.79-.86.33-2.77-.64-2.75.28,0,3.43,4.67,4.05,6.85,5.55l-1.7-.27a8.36,8.36,0,0,0-1.71-.28c-3.35.2-2.16,2.11-3,4-.74,1.65,10.43-1,13.78-1.13,1,0,3.77.17,3,.84-1.87,1.57-8.32-1.11-7.88,3.2,0,.51,1,.16,1.52.23,3.2.51,7.06-1.28,10.5-1.32.55,0,6,1.92,5.21,2.17-2.24.68-7.07-1.69-12.2-.29-3,.82-2.13,2.31-2.72,1.79s-1.7,1.71-1.28,2.63l.24.2c1,.49,7.89-.37,7.45,1.13-.13.43-4.63-.37-5.07,0-.63.45-.34,2.17-1.1,2s.05-1.68-.42-2.29a11.52,11.52,0,0,0-.86-.85s-.15,0-.17-.06,0-.09-.07-.14c-1.71-1.5-4.85-3.87-5.94-3.78s-1.27,4.34-1.46,4.21c-.82-.56-.29-9.21-4.49-5.92-.44.34.61,1,.52,1.57-.13.76-.41,1.73-1.12,2-4.54,1.93,2.35-3.31-2.83-4.17-2.35-.4-3.16,2.62-3.64,3.09-.62.64-.37-2-1.14-2.41-.94-.51-6.41-.95-7.09.27-1.75,3.14,7.45,3.76,9.16,6-.64-.1-5.45-1-7.29-1-.52,0-1.21-.41-1.56,0-6.87,7.61,8.08.74,9.22,1.07,5.26,1.49,3.25,6.48,5.3,8.3,3.77,3.34,7.38,1.38,6.84,2.59-1.15,2.61-5-1.17-6.43-.29-.53.32-.07,1.23-.11,1.84a6.32,6.32,0,0,1-.11,1.85c-.35,1.05-2.2,1.56-2,2.65.46,2.52,3.12-.24,4-.1.62.1,1.54,1.73.92,1.63-1-.15-4.6.38-5.38-.87-1-1.51,1.85-2.41,2.13-3.37.94-3.29-1.33-12.78-5.36-12.79-3.45,0-4.17,3-4.36,2.61-.58-1.21-2.79-2.76-3.5-.22s5.71,11,1.48,12.16c-.38.12.38-.67.57-1,1.47-2.66-2.17-5.81-2.8-8.3-.26-1,.17-2.63-.77-3.11-1.17-.59-9.24,1.7-9.29,3.59,0,1.17-1.68-2.2-1.15,2a4.31,4.31,0,0,0,.15.62,2.06,2.06,0,0,0-1.3-.82c-4.09-1.11-3.33,2.79-4,3.67-.08.11-.33.13-.4,0-1-1.47-2.84-6.44-6-4.83-4.84,2.43,4.81,4.62.72,6.85-.6.34-6.38-9.84-6.58-9.43s-.23.54-.32.77c.63.25-.71,1.81,0,0-.21-.09-.63,0-1.47.39-2.42,1.2.65,1.85.74,2.38s-1.08.75-1,1.3l2.3.43c1.09.75,2.45,1.66,2.62,3,.52,4.14-6.71,2.15-6.42,4.55.06.45.69.62,1,.94L732,431c2.7-.09,7.87,1.22,11,2.25,2.22.72,5,3,7.94,4.73a10.23,10.23,0,0,1,3.66,1.79,7.43,7.43,0,0,0,3.09.52,11.56,11.56,0,0,0,1.8-1,1.77,1.77,0,0,1,.89-.77.88.88,0,0,1,.49,0c2.09-1.09,4.52-1.8,4.91.91.37,2.47-3.26-.65-4.91-.91-.49.26-1,.53-1.38.78-.49.79-.49,1.76-2.31,1.67a6,6,0,0,1-2.58-1.18A19.29,19.29,0,0,1,751,438a2,2,0,0,0-1.25.19c-1.65.95,1.27,2.72-2.18,1.11-.75-.34-.92-2.1-1.68-1.79-1,.4-.15,4.46-2.31,4.08-.55-.1.81-.8,1-1.31l.64-3.63-2-.1-2-.11c-.32,0-.64-.06-1-.09a2.32,2.32,0,0,1-2.3.51c-.46-.08.83-.46,1.29-.52a4.27,4.27,0,0,1,1,0c.45-.57.2-1.47-1-2.25-1.58-1-7.86-4.41-9-.9-.2.6,1.27,1.17.88,1.66s-3.82.14-5,1.31c-.36.34-.18,1-.27,1.45-.14.73.18,1.73-.41,2.18L724,437.26c-1-.34-2.11.62-2.46,1.41-2.81,6.3,5.93,2.83,8.62,4.24,1.23.65-2.53.8-4,1a5.5,5.5,0,0,1,1.07,0c.38.09,4.24,1.57,4,2.24-1.11,3-6.75-1.69-5.34,2.78,1,3,6.87,2.64,10.29,2.68l.08,0,0,0c1.19,0,2.07.09,2.29.39s1,1.29.52,1.6l-2.81-2h-.12c-.71.13-2.75,1.63-3.43,1.59-3.27-.21-10.66-5.66-13.76-1.81-.83,1,2,3.66,1.12,4.73-.36.46,1.16-.22,1.7-.43a4.77,4.77,0,0,1,2.73-.62c2.84-.22,5.62-.52,8.24.89,2.39,1.29-6.71-1.54-6.94-.27a13.67,13.67,0,0,0-.19,1.46c4.1.93-.35,5.11,0,0a12.12,12.12,0,0,0-4.11,0c-1.4.19-3.05.44-3.93,1.53-.6.74.85,1.09.9,1.67,0,.27,4.82.61,5.2,2.49s-4.43-2.1-4.44-.08c0,1.85,3.48,2.76,5.46,3.29,1.06.27,1,2.13,2,2.61.53.27,3.84-2.2,4.06-2.26,1.74-.51,2.83,1.17,4.84.12.7-.37,1-2.83,1.18-2,.43,2.57-.51,2.63,2.87,2a5.49,5.49,0,0,0,1.67-.57c.78-1,1-.55,0,0a6.18,6.18,0,0,0-.49.77c-.18.32.33.7.66.87,2.17,1.12,3.38-.91,4.57-.71.48.09-.42,1-.26,1.47.7,2.1,5.78,2.8,7.34,2s-1-2.52-.29-3.06c.41-.33,1.17.62,1.57.27l-.28-3.06c.54-.36,1.35.61,2,.34,1.33-.61,1.1-3.13,2.49-3.59.42-.15.79.68.74,1.12-.13,1.16-4.47,4-4,4.59,2.4,2.78,7.06,2.67,10,3.15,1,.18-2.59,2.21-1.67,2.74,1.61.92,5.41-2.12,6.78-1.91,1.17.19,3.34,1.75,3.53.57.08-.5-2.48-4.42-2.43-4.89.09-1.37,5-7.22,7.32-6.58,1,.29-1.39,1.66-2.24,2.33-1.52,1.21-5.49,6.88-2.14,8.47,2.65,1.26,4.29.24,6.12-.54.49-.2,1.52-.28,1.58.24.23,2.2-5.7,1-6.63,1.22s-2,.35-2.2,1.15c-.25,1,2.54,2.12,1.61,2.51-1.87.79-7.46-4.46-10.24-1.64a2.65,2.65,0,0,0-.86,1.88c-.68-1.54-2.12-3-2.43-3.93s-1.69-.47-2.5-.79c-4.61-1.78-1.07-1.19-4.83,1.07-1.11.67-2.74.1-3.79.86l-1.28,2.79c-.59.24-.4-1.34-.09-1.89,1.82-3.21-2.32,0-2.42-.05-1-.16,1.46-2,.9-2.85-.88-1.27-8.85-3.05-10.09-2.53-.77.34-1.06,2.66-1.57,2s.42-1.63,0-2.27-1.4,1.06-2.23,1.11c-.66.05-1.46-.79-2-.35s1,1.29.52,1.6c-.07,0-3-1.79-3.93-.71-.5.56-.09,1.84-.8,2.12-.06,0-8-6.86-10.33-3.44-2.47,3.66-1,3.3-1.08,3.58-.34,2.5,3.18,5.87,3.51,5.19s.88,1.68,1.69,1.83c3.54.65,4.13-5,7.12-1,.16.22-.52-.14-.79-.14-.55,0-1.09.05-1.64.07-.91,0-4.88,2.12-5.49,3.15-.29.51,6,3.88,3.81,6-.43.42-1.5,0-1.72.44-.61,1.28-.53-2.84-1.31-4s-6.4-5-7.61-5.22c-.82-.15,1.3,1.1,1.7,1.84.49.91,4,6.86,3.91,7.55-.24,1.28-3.21-3.44-3.29-2.14-.38,5.78,8.07,5.82,10.56,2.72,1.64-2,1-1.79,3.31-3.56.4-.31,1-1.4,1.19-.93.24.73-1.12,1.45-.8,2.13s1.64-.21,2,.36c.6,1-3.91,11.42-5,12-3.79,1.86-4.93-5.08-7.16-5.85-2.89-1-1,5.75-1.08,5.86l-2.4-.44c-.79.3-2.44,1.82-1.61,2,1,.18,3.33,2.77,3.45,3.68.17,1.27-3.71,1.46-2.94,2.49.65.87,3.4-.47,3.2.59-.14.77-1.1.95-.41,2.21,2,3.7,7.85-9.19,10.68-8.69,1.51.27-2.29.76-3.59,3.91-1,2.5-2.09,1.56-2.27,5.66-.12,2.81,4-.9,3.74-.08-.94,3.44-.14,2.44,1.75,4.11.74.65-2.09-.25-2.94.23-1.14.62.61,3.16,1.88,3.38,4.74.84,1.47-5.59,2.93-7.07,1.27-1.31,11.08-2.83,9.42-6.69-.23-.55-.39-.83.13-.73s1.22.65,1.6.27a1.18,1.18,0,0,0,.24-1.25c.19.34.41.61.69.66,3.24.56,7.56-4.15,10.58-4.26,1.43-.05-4.82,3-1.81,3.48,2.53.42,6.62-3,8.49-4.26.46-.3,1-1.34,1.38-.9s-3.18,2.9-3,3.28c.48,1,2.83-.5,3.19.52.17.48-.68.88-1.18.94-2.43.34-3.86-.52-6.49.82-3.53,1.79-7.31,14.39-7.82,14.59-1.16.46.14-2.51.49-3.71.49-1.64,5.78-11.57,2.53-11.69-1.58-.05-12.69,7.88-13.11,9.11-2.32,6.81,7,1,4.71,3.85-.83,1-5.18.56-6.42,1.16-2.64,1.3-1.38,3.33-2.52,4.88-.47.64-4.2-.48-5-.13s-2.12,2.32-3.49,3.18c-.35.22.9,0,1.21.22,1.09,1,1.48,6.15,4.73,3.89,1.25-.86-.37-3.11,1.74-2.73.29,0-2.49,3.53-.38,4.49,1.35.63,6.61-2.85,8.46-3.09,5.39-.67,2.68.62-6.43,3.45l-3,.24c-.27-.11-.27-2-.95-1.69-1.74.67-4.64,1.11-4.71,3-.07,1.51,2.94.89,3.52,1.4.74.65-2.3-.5-3,.23-.51.55.08,1.63-.39,2.22-.36.43-1.46-4.48-4.34-3.83-1.18.25-2.24,8.14-5,6.71-1.21-.63,2.55-2.53,2.57-2.58a52.82,52.82,0,0,0,1.49-5.83c0-.57,0-1.53-.54-1.63-3.48-.63-1.1,6.55-2.71,5.61-.74-.44,0-2.46-.81-2.44-5.36.09-6.35,9.08-4.49,12.92.47,1,1-3.45,1.77-2.73a14.64,14.64,0,0,1,2.31,1.19c.46.59-.27,1.48-.4,2.22a6.85,6.85,0,0,0-.41,2.21c.39,2.52,3.46.21,3.94-.8a5,5,0,0,0,.55-3c-.07-.37-1.05-1-.68-.89,7.28,1.32-5.29,8.84,3.41,4.44l3.4-.16c1.29-.81,0-3.67-1-4-1.15-.38-.3.11.67-1.41.54-.84-.38-3.37.53-2.95s.75,2.08,1.64,2.58c1.34.75,5.71.81,4.35,1.52-.42.24-1.54,1-2.08,1.25.62.45,2.68,1.83,5.14-1.85,1.46-2.2.8-1.16,2.1-3.32.34-.54.55-2.06,1-1.61s-1.39,3.12.55,3.27c1.42.11,5.49-.7,4.28.07-2.8,1.79-12.86,3.35-13.65,7.83-.31,1.78,1,.18,1.23.22.64.11-4,2.15,1,4,1.77.65,4.2-1.88,5.84-2a11.91,11.91,0,0,1,3.28.56s-10.44.77-12.64,4.68c-.5.88,3.66.84,2.74,1.25-1.65.74-6.39.21-6.82,2.62s2.48,2.25,3.31,2.88c1.25.95-1.82,1.46-.5,5.27.19.55.73-.89,1.09-1.34.57-.7,1.7-2.27,2.59-2.61,2.39-.92,7.52-.74,10.08-.3,1.53.25-3.08.21-4.6.49-2.21.39-8.63,1.47-8.88,4.58-.08,1,3.48,2.6,3.75,3,.71.9-2.26-.64-3.18-1.32-1.64-1.21-3.13-5.91-4.86-6.22-1.89-.34-.22,1.83-1.22,2.08-3,.74-.41-3.35-2.2.37-.23.47,1.54-5.32-2.27-5.51-2.69-.14,3.29,5.09-1.87,2.46-.56-.27-.45,1.24-.33,1.86.89,5.07-6.93,5.67-.83,16.35,1.65,2.88,6.8,4.35,7.25,5.13s-.17,1.57,0,2.31a7.24,7.24,0,0,0,1,1.72c2,3.45,9.75,8.6,13.5,9.23,2.23.38-1.47-5.88,3.15-3.31.21.12.08.61-.13.75-.61.38-3.5,2.26-1,3.66.93.54,3.72-1.86,3-1-2.64,3.29-9,2.21-6.28,7.4,2.55,4.93,2.13,1,5.85-1.32.45-.28-.09-3.54.07-3.06,1.23,3.35,1,2.46,4.26,3,.26,0-1.5.89-2.18,1.16.59-.1,1.13,1.18,1.82,1.09s-2,1.89-1.21,2.1c1.29.34-.11,1.21.9,2.46.6.73,1.3-1.4,2-2,.48-.36,4.23-.08,4.77,0,1,.17,3.86,2.85,5.55,3.19,2.92.58,4-2.45,5.12-2.27s5.75,1.86,7.29.35a10.25,10.25,0,0,0,2.36-4.25c.08-.49-.27-1.56.23-1.49,3.62.54-3.33,7.2,2.17,5.68,2.2-.6,1.77-1.66,3.62-4.06,2.84-3.67,5.26-.41,6.65-1.32.41-.28,1.25-4.41,2.75-4.2s-1.13,2.11,2.62-.38l1.27-2.89c1.73-1.8,5.1-2.19,6.6-4.41.45-.67-1.32-2.48-.52-2.36,6.61.91,3.53-.4,5.79-3.4.51-.69-2.46-1.78-1.21-2.07,3-.71,10.1,1.22,10.19-3.2.06-2.82-4.92,2-4.58-.61a1.73,1.73,0,0,1,1-1.39c4.61-1.37,5.08,0,5.18-.83.08-.57-1-1.14-.63-1.6.6-.81,1.8,1.2,2.81,1.13s2.57-.21,2.69-1.18c.39-3.06.68-1.52-.89-6.19-.26-.81-2.5-1.18-1.87-1.76a3.27,3.27,0,0,1,2.58-.43c.24,0-.1.5-.1.75a9.28,9.28,0,0,0,.12,2.3c.07.26,3,.69,3.91,2.4.24.41.69.75.69,1.23,0,.76-1.17,1.58-.7,2.19,1.92,2.48,6.89-3.36,8-3.55s-1,5.69,1.89,1.74c.89-1.22.49-1.64,1.19-2,2.37-1.31,1.65-3.87,2.71-5.84.18-.32,1.06-.23,3.07-1.14s1.44-9.22.76-9.75c-1.26-1-3.18-.92-3.49-3.46-.13-1.15,3-.61,3.38-2.61a3.83,3.83,0,0,0,0-.68,17.07,17.07,0,0,0-.41-3.45c-1.1-.76-4-2.18-3.31-3.12,1.62-2.26,2.61,1.76,2.67,1.84a3.28,3.28,0,0,1,.64,1.28,1.28,1.28,0,0,1,.41.36c.27.57,0,1.25,0,1.88,0,.4,0,.81,0,1.21.15,2.55.4,4.63,3.48,2.61,3.32-2.17-.88-10-.45-13.65.13-1.11,2.33.11,3.35-.36s.84-1.4,2.21-1.25c3.87.46.31,7.59-.06,7.54s-.37-6-1.43-5.45c-.58.3-2.5,4.3-2.65,5-.32,1.49,2.72,10.18,2.29,12.36-.11.57-3.33,1.53-3.14,1.91.27.54,1.26.41,1.56.94.2.34-.47,3.52.39,3.83.37.12,2.33-1.84,2.47.28.1,1.61-2.63,7.28.38,7.62.32,0,2.22-4.73,1.75-.56-.07.65.69,2.18,1.07,1.64s-.28-1.72.26-2.24,2.52,3.35,2.56,3.31a26.86,26.86,0,0,0,3-3.24c0-.07-.08-.14-.13-.22-.19-.29.92-.91.13.22,2.08,3.47-2.95,3.26,2.78,3.88,1.69.19,4,4.7,2.32,4.54h0c-1-.1-1.63-8-6.46-1.21-2.5,3.52-.27-.6.58,2.34L851.13,583l2.34,1.77c1,3.54-1.89,7-1.41,9s2,4.71,1.77,7c-.3,2.89-3,6.08-2.88,8.82,0,.51-.46,1.46,0,1.52,1.74.19,3.23-2.68,4.86-2.77,1,0,1.56,1.8,1.13,2.67-.28.54-1.41.06-1.77.56s.1,3.06.1,3.06c1.71.63,3.14-1.45,3.7-2.66.93-1.95.4-4.29,1.06-6,.4-1-.05,2.69.94,3.14.57.25,1.15-.64,1.77-.58s-1.07.81-1.42,1.37c-1,1.64-4.4,4.05-3.67,6.47.21.71,1.49-.25,2.19-.53a9.59,9.59,0,0,0,2.29-1.28c.23.17,1,.76-.67,2.21-1.13,1-6,1.31-6.84,3.84-.19.55.46,1.07.69,1.61.95,2.21,12.46,3.9,8.49-7.49-1-.1-1.43-.18-1.62-.21,1.52-1.16,1.83-2,5.66-1.66.44,0-.75.43-1.13.64s-.4,6.93-1.13,9-5.6,12.2-5.58,12.4c.09,1.08,3.43,2.37,3.61,2.65s-4,2-3.38,3.47c.2.47.86-.67,1.36-.62,4.6.48.51,4.18,2.46,5.6.4.29,1.12-1.06,1.36-.63,1.1,2-1.61,10.32-.79,12.16,1,2.28,3.49-7.77,4.69-3.36.41,1.53-2.71,3.17-1.74,4.42,1.21,1.55,1.93-1.15,2.52,1,.45,1.65-.72,2.32-1.67,3.66-.08.1,1.79,1.59,2.37,2.53,0,.08,2.74,12.36,2.75,12.52l3.35,1.85c2.62,2.38,3.12,6.61,4,9.57,1.12,4,7,.66,6.42,7.48-.78,8.63-6.65-1-8.85,4.58-.19.47,5.71,5.86,4.53,8.86s-8.9-5.31-8.49-2.31c.48,3.46,4.93,16.66,7,19.1,1.79,2.13,1.88-.53,2.92,2.57a2.89,2.89,0,0,1-.14,1.53c-.11.52-.73,1-.58,1.49.5,1.71,2.69,2.05,3.7,4.17s-4.4,2.85-4.44,4.24c-.07,1.63,1.82,4.76,1.26,6.28,0,0-6.55.34-4.26,1.93,1.17.81,2.77-.53,3.22-.49,2.86.25,6.73,5,11.47,4.07,3.38-.66,4.93-2.38,7.54-3.25,1.78-.59,4.53.2,6.36-.27,2.86-.74,5,4.63,8.42,2.93,8-4,2-10.12,1.11-15.31-1-5.39,5.06-11,8.62-14,2.5-2.08,4.14,2.84,6.57,2,3.55-1.25-3-5.3-.6-6.86,3.27-2.08,1.79.8,3.68.92.53,0,.06-1.26.54-1.5,1.28-.63,4,1.73,5.28,1.1.48-.23,0-1.53.55-1.5,1,.06,2.51,2,4.34,1.8.78-.1,1.09-1.47,1.87-1.43s-.59,1.69-.13,2.3,7.31-3.44,8.18-2.61c.38.37-1,1.21-.53,1.51s4.84.23,6.18,1.09-3,1.29.74,3.11c0,0,1.45-2.57,1.64-2.89,1.08-1.93,3.23-2.25,4.08-4.49,1.79-4.69,2.67-9.07,5-12.77,1-1.48-.5-4,1.57-5.28,7.1-4.45,0-.14,2.42-4.48.58-1.05,3.16.53,3.53-.6,1.14-3.37-1.11-.82-1.27-.83-2.15-.09.54-3.18.6-3.79.25-2.36-.66-7.27.37-8.38s3.16.68,3.5.16c.8-1.27-2.51-3.86-2.83-5.47-.73-3.75,5-12.78,6.67-13.44,5.2-2-8.61-4.83-4.47-7,.6-.31.59,1.43,1.23,1.57,2.94.65.07-5.18.24-5.31,1-.81,3.82,1.45,3.86.16.1-2.18-6-5.53-6.95-8.28-.13-.38-.75-1.31-.38-1.16,0,0,0-.75,1.74-.68,1,0,1.07,1.57,2.07,1.62.3,0,.82-1.85.53-2.26-1.4-2-2.16.59-2-2.37,0-1,1.88.85,2.5,1.63,1.29,1.66,4,3.5,4.16,3.21,1.66-2.69-2.53-4.25-2.38-4.66s-.75-1-.8-1.55,0-1.3.49-1.49c.76-.3.82.79.86,0s1.59-.7,1.77-1.45c0-.11-2.92-4.57-3.19-5.43-.59-1.78,4.14,5,4.55,3.21.35-1.49,1.43-3.24.21-5.3l-2.51-.86a3.08,3.08,0,0,1,.86-2.16c-.64.47-1.35,1.52-2.4-1.69-.28-.83,5,2.5,2.21-2.18l-3.75-1.67c-.36-1.53,3,.89,4.62,1,2.62.11,1.69-3,4.79-2.84.48,0-.93-.43-1.24-.8-1-1.21-1.43-4-2.36-4.63s-6.89-2.09-8.78-1.89l-1,2.23-1.58-2.34c-1.23-.28-5,.29-3.8-.18,3.34-1.31,19.83,2.3,21.5.91.67-.55.23-.27,1.3-.7.87-.36,2.56-1.7,1.77-2.21-1-.65-2.94-.57-2.88-2.37s4.54,2.06,5.43,1.7c.6-.25.72-1.19,1.3-1.46s1.23.36,1.69,0a1.4,1.4,0,0,0,.47-1.5c-.15-.46-1.56-.42-1.23-.79s1.26,0,1.89.06,1.36.41,1.88.06c1.28-.85-2.18-4.15-.69-4.54,4.34-1.16,2.94.09,3.36.1s.88.24,1.25,0c.88-.49-.67-2.07-.32-3,.44-1.2.61-9,1.51-9a10.64,10.64,0,0,0,1.45,1.23l-2.44,7.29,3.11-2.29c-.31,2.85-.51,6,.44,6.66s2.25,2.5,2.93.83a40,40,0,0,1,4.25-8.31l4.19,3.11-1.78-5.45a3,3,0,0,1,1.55-.46c.77,0-.65,1.51-.47,2.25.11.43,6-4.38,6-4.39-1.39-2.64-3-1.77-3.46-4.32l2.62-2c2.33.52,5.41,1,6.37-.4.26-.37-.34-1.84-2.43-3.8-.79-.75-3.13-2.61-2.87-1.56.38,1.47,1.89,1.9.75,4.52,0,.1-3.88-.17-6.26.63-.52.17-3.25-.72-5.09-.91l-.69-2.18a1.61,1.61,0,0,0,.89-.79c.2-.66,1.55.5,2.08.06s-.07-1.7.46-2.25c2.92-3-.2,3.85,4.92,3.11,1.3-.18-2.16-2.91-1.17-3.78.41-.36,1.11,0,1.65,0l1.66,0,1.72-3c.84-.74,4.57-1.17,5-2.16.3-.7-.84-1.65-.38-2.26s1.47.38,2.06,0c1.15-.66,3.17-5.2,4.61-5.18.44,0,3.13,3.4,4.11.8,1.33-3.54-6.51-1.47-6.69-1.84-.72-1.36,2.93-1.92,3.05-3.45.11-1.31-2.48-3.57-1.18-3.76,1.47-.22,1.26,3.14,2.69,3.53.44.12.54-.79.56-1.24.19-2.92-4-9.82-4.77-10.55-1.26-1.2-1.55.49-2,0-3-3.23-2.61.25-3.72,2.18-.58,1,.18-2.51-.47-3.5s-7.35-3.37-2.66-3.28l2.44,0c.47,0,1.41-.28,1.24-.72-.6-1.43-3.15-1-4-2.32-2.34-3.34,4.1.12,0-3-1.34-1-3.92.66-4.87.64s.63-1.46.85-2.22c.12-.39-.81,0-1.21,0s-.88.19-1.23,0c-4.07-2.79-3.6-9.1-5.82-9.84-4-1.33-3.53,3.87-4.58,5.09-.32.36-.81-.52-1.2-.78-3.4-2.22.29-4.31-1.44-6-2.18-2.14-4.67.6-6.88.53-.31,0-.17-3.74-3.5-3.85-1.55-.06,4-1.31,3.72-2.85-.08-.61-1.21-3.32-1.64-4.52-.56-1.53-3.67-4.1-2-6,.47-.53,2,0,2-.67s-1.41.23-2-.07c-.35-.18,1-3.38.93-3.68s-1.43-4.17-1-5.23c.22-.54,1.55-.11,1.61-.69.18-1.53-2.22-2.31-2.64-3.79-.35-1.25.26,0,1.18,0s3.19.93,2.79.09c-.58-1.15-3.65-1.92-3.83-3.83-.31-3.08,1.8-.07,2.79-.65.55-.31-.94-.91-1.14-1.51a5.07,5.07,0,0,1,.11-3c.24-.79-2.16-.76-1.92-1.55.11-.38-2-.69,1.67-2.53.71-.36,2.82,1.1,2.35.45-.77-1-3.86-.37-3.49-1.6.43-1.44,4-.57,4-2.07,0-1-3.55-1-2.7-1.57,3.62-2.52,4,3.83,8.14,4,.08-.49.17-1,.24-1.47.78-4.71-4.14-.7-3.15-6,.22-1.19-1.38-.68-.69-3,.92-3,2.95-4.83,3.32-5.78.79-2-.44-7.47,1.49-10.25,1-1.39-.37,2.14,1.93.79.39-.23,1.41-.31,1.18-.7-1.09-1.76-5.28-2.38-6.7-5a.69.69,0,0,0-.05-.13c-.08-.23,0-.49.06-.73s.18-.51,0-.72a1.78,1.78,0,0,0-.54-.28,6.34,6.34,0,0,1,0-.74c0-.26.61.22.78,0a1.43,1.43,0,0,0,.16-.24,8.08,8.08,0,0,0,1.21,2.6s4.22-.84,4-2.35c-.4-2.21-2.61-.65-3.43-1.62-.24-.27.29-.76.12-1.08a1.7,1.7,0,0,0-1.77.86l-.9-1.86c2.23-6.32,6.41,6,8.43,2.46.31-.54-1.14-.87-1.12-1.49.1-3.17,3.57-.17,4.65-.6,1.64-.67,1.23-4.77,2.09-5.81.64-.78-.12,2.34.69,2.95l2.37-2.14c.36-.82-1.21-1.38-1.49-2.23-1.35-4.17-1-8.66-3.51-12.51a9.91,9.91,0,0,0-1.35-1.52l-.14,0c-.69,0-1.47-1.5-1.47-1.5s.79.69,1.61,1.48c1.25-.09,2-1.7,3.62,3a4.68,4.68,0,0,0,3,2.26c.56,0-1.82,1.69-1.6,2.15,1.91,3.85,3.8-.81,4.24-.63s.79-1.79,1.6-2.88c.18-.26,3.32,4,4.94,1.56a1.42,1.42,0,0,0,0-1.46c-.33-.47-1.79-.26-1.51-.76s1.26,0,1.9,0c.14,0,.27.07.39,0,2.21-1.35,1.22-.82,2-2.16,1.46-2.67-4.59.12-4.5-4.46,0-.9,1.35,1.49,2.27,1.5s3.7-5.17,3-5.76c-.31-.26-1.32-.64-.93-.75l4.16.8c.86-.6-1.59-2-1.1-2.93.22-.39.89,0,1.34,0s2.78,1.77,3.21,1.5c2.08-1.29-2.24-2.94-1.48-2.92s1.55-1.41,2.65,0c.6.8.65,3.67,2.62,2.94.43-.16,1.26-.28,1.15-.71s.64-5.08,3.09-5.06c.22,0,2.06-7.11,2.33-7.24s3.34,4.17,3.74,3.66c1.25-1.58-3.94-7.67-1.46-7.26,3.14.52,3,4.47,4.87,5.82,2.19,1.55,1.76-4.56,5.3-7.95,1.83-1.77,6.79-.5,7.51-1.45s.22-2.74,1.12-3.62.12-.38.75-.73c2-1.08,0,4.32,1.52,3.61s.35-6.51,2.58-6.52c.87,0,.27,2.16,1.14,2.16,0,0,1.47-2.18,1.49-2.18,4.19-.71,5.9-8.6,7.31-13.77.71-2.56,8.18-7.67,8.41-8,.4-.61-.15-.91.36-.73s5.3-4.54,5.44-5.12c.68-2.86-1.38.42-2.58.05l0-2.87c-.86-.53-4-.64-3-.66,8.16-.14,1.48-.23-2.28-5l-3-1.38c-2.31-5.75,2.53-2.9,2.53-2.9.11-.53,1.59-.21,1.45-.74-.56-2-5.85.9-5.9-2.77,0-1.85,1.8,2,3.29,0,.53-.73.49-3.87,1.38-5s4.75-2,5.42-2.95c1.21-1.65-.48-1.46-1-1.37.2-.05.64-.17,1.47-.42.42-.12,1.2.06,1.27-.37.36-2.41-.36-7.58-4.19-10.57l-2.88-.67c-.95-4.25,7,4.7,8.72,3.39,3.91-3-7.6-3-4.44-5.59,1.11-.91,9.79-.69,10.06-.92.56-.45-.33-1.79.32-2.13s.56,1.62,1.11,1.39c3.51-1.48-2.73-4.64-3.35-4.88s1.08.22,1.61.33c2,.37,4.44.3,5.9-1.22.53-.55-1.19-1-1.83-1.36-2.15-1.34-7.57-2-7.65-5.46,0-.5.73.68,1.1,1,1.86,1.76.23.44,2.55,1.7,1.67.92,9.09,4.71,10.15,4.68s-2.72-7.39-2.67-5.58c0,.53-.87.28-.74-.68.33-2.3-2.26-2-.79-2.8,3.41-1.8,3.31,3.09,3.07-5a28.57,28.57,0,0,1,3.63,2c.07.26.12.47.17.69a1.47,1.47,0,0,1,1.27,0c.76.21.35,2.09,1.14,2.07,2.94-.1-.55-6-.56-6.32,0-1.37,4.29,3.95,4.42,4.07.79.81,3.62.45,4.71,1.95.44.6.18,1.65.79,2.08s.77-1.55,1.35-2.16c1.53-1.64.11-3,.93-3.57,1.2-.86,3.11.75,4,2,.25.34.81,1,1.09.66.77-.82.94-1.69,1.37-1.47,3,1.51,2.64-1.72,5-.92,1.13.38,3.43,2.47,4.41,2.6.27,0,3.25-3.52,4.69-3.08.05,0,.11,0,.16,0,1.1.58,1.8,2.51,5.45,1.82,2.3-.43,3.36-6.53,5.69-6.67.46,0,.39,1.06.07,1.41-1,1.16-2.58,1.79-3,4.4-.26,1.74,2.11,5.2,2.86,6.19.29.38,1,.08,1.43-.08,6.13-2.13,6.3,2.07,8.44,3,1.6.71,2.87-.45,4.4,1.13,2.45,2.54,0,3.77-.71,5.71,0,0,1.85,6.08,1.91,7,.07,1.26-2,1.78-2.35,3,0,.12,8.16,7.18,4.19,8.27-1.27.35-2.31-2.75-4.41-.42-.07.09,4.25,3.52,4.28,4,.1,1.49-.45,3-2.09,1.58-3.35-2.88-7.44-3.92-11.65.72-.55.59-.25,1.87-1,2.2-.92.42-3-1.54-3-.55.17,3-3.11,5.83-3.56,10.7,0,.56.23,1.27-.15,1.69-1.85,2-5.45,3.25-7.44,6.12a7.47,7.47,0,0,0-1.63,4.39c0,.54,1.17,1,.8,1.41s-1-.68-1.51-.65c-1.28.06-6.46,7-6.71,7.51-.51,1.14,1.23,2.29,1.29,3.54-.44-.09-.88-.22-1.32-.3-.88-.15-3.52-1.43-3.92-.19-.8,2.46.56,3.14,1,5,.18.84-9,2.93-9.53,4.72-.19.66,1.47,4.62-.13,1.81-.32-.58-1.63-1.69-1.71-1-.4,2.89.12,4.57-1.62,7.29s-2.76-5.39-5.36-2.72c-1.82,1.88-1,8.67-3.8,11-1,.83-1.8-3.76-2.72-2.82-2.12,2.16-1.87-.55-2.17,3.68,0,.72,7.77,5.43,3.61,7.17-.57.23-.6-1.22-1.17-1.42-1-.37-.67,2.16-1.44,2.94-1,1-3.33-1-4.16.11-1.2,1.6-.6,3.07-1.42,4.4-.21.34-.64-.46-1-.7-1.36-1-.33-4-1-4.34-3.43-1.86-2.28,2.23-3,2.25-.86,0-5.3-1.44-5.71-.62-.94,1.88,4.37,8.62,4.36,8.65-.76,2-3.94-2.14-4.24-2.1-2.23.35-.58,7-2.9,8.8-.35.28-2.87-.33-3.06.05-.43.84-.3,2.09-.73,2.94s-2.3.61-2.27,1.49c0,.55.46,1,.78,1.44.21.29.78.37.78.73,0,1.38-3.73,3.3-2.23,5.15.74.91,3.3-.49,3.47.68l-1.9,1.49c-.56,2.28,1.22,4.78,1.24,6.58s-.09,3.82.8,1.45c1.62-4.24.3,1,1.58,1.45.43.15.82-1.07,1.15-.76,3,2.73-2.48,13.36-.89,17.66.58,1.52,1.33.07,2.36.69a2.13,2.13,0,0,1,.81,1.47c.06.27-.44.47-.37.74.93,3.78,5.6,11.81,5.55,13.18-.13,3.7-4.16-.88-4.12,1.55s7.15,2.83-.74,3c-1.54,0,3.76,1.36,3.63,2.89l-2.77.8,2,1.44c1.52,3.12-1.38,4.23-1.1,5.21.18.65,2.77.73,2,2.18-.37.73-3.44,1-3.13,3,.59,3.89,2,2.19-1.14,3-1.25.32,1.68,1.85-2,.78-1.15-.34,1,2.21,1.46,3.32,1.48,3.34.5,0-.14,3.34-.17.92,2,1.32,2,1.45.26.9-2.32-.75-2.81.05-1.16,1.93,3.5,5.49,3.72,5.88.59,1.06-2.69,2.22-2.78,2.29-1.86,1.78,2.56,1,1.69,4.44-.34,1.33,2.74.26,2.43.7l1.67,2.2c0,.16-1,1.9,0,1.5.58-.23,4.45-7.41,5.93-6.09.55.49-2,5.06-1.08,6a1.55,1.55,0,0,0,2,0c.34-.45.09-1.49.57-1.5.76,0,7.87,5.85,9.69,6.45a56.62,56.62,0,0,0,7.29-.21c.55-.34.85-2.09,1.17-1.53.5.87-3.58,4.19-3.19,5.14,1,2.44,3.85.22,1,3.89-.83,1.08,2.49-1.08,3.74-1.62,2-.88,5.92-2.21,7.48-3.25.84-.56,2.18-3.3,1.94-2.32s-8.57,11.54-2.42,11.31c.73,0,1.31-1,2-.83,1.54.41-4.35,2.39.15,3.74,1.1.34,4.43-2.36,5.31-.2s-5.81,2.18-3.89,5.39c.3.49,2.53-.66,2.83-.86,1.26-.82,2.39-5.33,2.31-3.84-.18,3.53-2.27,5.61-5.25,7-.23.1-3.9,2.27-3.82,2.29,5.4,2,8.37-3.31,11.21-7.09.4-.52,2.52-5.24,3.07-4.63,1.58,1.76-3.75,4.06-2.22,5.34l3.65-.91.88.1c-.54.21-1,.4-1,.51,0,2.23,1.88,1.44,2.84,1.86,0,0,.77,1.87.78,1.87,1.4.56,1.39-.57.21-2.06-.24-.31-.55-.93-.23-1.17s.68.88,1,.62-.16-.73-.52-1.31a12.09,12.09,0,0,0,1.4.09c1.36-.43,3.3-3.91,4.71-4,.5,0-.39,1.34.09,1.49,7.46,2.31-.36-1.48,2.37-1.62.72,0,1.13-.59,1.59-.83.64-.34,4.73-1.72,4.86-1,.5,2.66-2.89,2.41.11,2.24.85,0,1.31,1.43,1.31,1.43.86,1.4,4.94-5.24,4.61-5.51s-.42-.07-.46-.72-1.75-1-1.3-1.42c1.83-1.88,2.32,2.11,3,2.07,1.76-.09,1.71-3.84,3.46-3.94,1.39-.09,1.68,4.51,3.79,2,.65-.76-.46-3.75.22-3,2.79,3,2.47,1.34,3,1.31.72-.05,1.68-.23,2-.88.08-.16-.75-2.58.21-3,.66-.29,1.4.84,2.08.61s.15-1.5.71-1.54c1.14-.08,2.39,2.48,4.57,1.19,2-1.17.08-6,3.64-6.24,1.55-.12-1.67,4.38,1.58,5.13l3.19-1c.46-1-3.68-2-2.59-2.06,1.9-.14,3.17,2.51,4.33,3.43.29.23.2-1.36-.38-5.22-.16-1-3.2-2-2.19-2.08,1.79-.13,4.7,2,5.53,3.33.14.21-.16.87.07.74,2.72-1.51,1.44-1.64,0-2.61-4.1-2.76.35,1-.4-2.59-.3-1.44-2.66-1.5-3.45-2.74-.26-.39.85.44,1.26.66,2.24,1.21,3.3,2.85,6.92.22,1.15-.84.92,3.31,2.31,3.56.84.15,1.41-.86,2-.9,2-.16-.24-7,2.16-8.41,1.19-.67-2.79,7,1.35,6.62,2.34-.19-2.26-3.43,1.91-1.65.76.33,1.49,2.81,2.49.54,0-.1-.74-3,1-2.33,1,.38,2.56,1.28,4.16,1.14.56,0,.23-1.26.67-1.56s.21-.76.3-1.15-.06-1,.32-1.15,4.16,1.27,4-.35c-.07-.76-.4-2.73.21-2.26,3,2.27.36,3.7,2.35,3.52,1.76-.16,4.33,3.43,5,1.79.3-.7-1.08-1.6-.62-2.19.81-1,2.79,2,3.77,1.14.42-.38.25,3.64,2.39-4.73.16-.66.58.72,1,1.59a2.12,2.12,0,0,0,.37.52c.32.29.33-.78.49-1.17a9.27,9.27,0,0,1,2.24.16c7.44,1.29,8.26-3.68,11-7.12.53-.66,7.44-3.56,7.78-3.08,2.36,3.42-.86,1.67-1.77,2.44-.59.52,1.44,1.45,1,2.14-.71,1.23-4-2.43-3.13,1.08.18.78,7.51,2.24,3.93,6.33-.29.32-6.51-5-6.58-4.55,0,.16,4.55,7.32,4.88,7.73,1.4,1.75,4.67-.14,5.33.17.85.4,4.56,6.78,6.69,7.71,5.89,2.57,11.46-3.92,17.27-2.22,3.93,1.15,2.64,5.39,5.38,6.87.7.38,7.76.09,7.58,1.31-1.42,10.15-16.49.71-25.77,1.62-6.89.68-1.88,8.12-7.88,10.69-3.21,1.37-4.78-2.19-7.76-2.93s-1.36,8.51-3.14,9.38c-4.86,2.36-4.2-6-7.58-5.26s1.14,9.62.31,14.8c-.33,2-1.46,3.49-4.28,3.7-3.43.26-7.07-1.22-10.53-1.26-3.78,0-7.77,1.39-11.54,1-3.13-.28-5.49-3.53-8.21-3.82-1.27-.14-2.4,1.08-3.66,1-3-.07-9.42-1.54-11.41-2.86-.5-.34,2.12-.91-4.17-.45-.56,0-.2,3-1.42,3.12-1.64.11-1-3.77-3.22-4.29-1.15-.26,1.35,3.72-.5,4.55s-2.14-2.45-3.5-2.76c-1.89-.43-1.08,3-1,3.08,2.82,5.38.12-.58-1.55,1.61-.47.6.31,1.77-.26,2.27-1.08,1-5.84-2.47-7.16-1.78-.35.17-3,2.35-4.87,1.81l-1.38-2.18c-.61-.39-1.54-1.09-2.1-.63-1.68,1.39,1,2.47.72,4,1.59-.51.91-.27,0,.15a2.16,2.16,0,0,1-.8,1.1.76.76,0,0,1-.83.06c-.33-.24.76-.77,1.63-1.16a.8.8,0,0,0,0-.15l-7.39,2.39c-1.3.41-2.5-2.67-4.23-1.27-3.72,3,3.77,4.09-6,3.32-4.2-.33,1.81,5.23.31,6-.75.38-5.18-.37-6.27-.45-2.66-.19-2.27,2.32-2.39,2.37-.57.3-5.83,0-6.62,1.06-.31.4-.07,1,.07,1.5.25.9,2.79,4.17,1.48,5.21-.83.66-3.22,1.2-2.83,2.39.2.65,3,2.76,3.86,2.09s1.61-1.39,1.57-2.33c0-.65.83.9.52,2.24-.36,1.55-4.09,1-5,1.73-2.21,2,2.93,3.78,2.74,5.16-.16,1.12-1.91,1.37-2.42,2.38-.64,1.27,2.75-.77,4.17-.94,3.17-.4,4.5-1,7.17.42.74.4-2.19-.66-2.52.12-1.06,2.51-.68,1.55-4.55,1.72-.62,0-1.35-1.17-1.72-.68-2.12,2.78,2.79,2.15-.74,2.3.09.75.2,1.5.3,2.25a14.64,14.64,0,0,1,.32,2.26c0,.52.38.74.88.72s1.58,2.83,2.24,2.92c.49.07.93-1.2,1.23-.81s1.37,7.29,1.69,9c.17.87,1.62-.91,2.52-.87,1.62,0,4.38,3.31,6.13,3.74,4.64,1.12,9.32-12.79,12.61-3.21.71,2.09-1.94,1.88-2.38,3.17-.85,2.41.46,5.81,0,8.34-.54,3.14-2.48,6.11-3.3,9.28a12.19,12.19,0,0,0-.37,2.32c-.28,8,7.69,18,4.46,26.41-1.33,3.48-13.58,13.43-17.14,13.08s-3.23-1.59-5.93-2.79c-2.45-1.09-4.53-.06-6.24-2.79-2.09-3.33-1.46-9-4-12-1-1.18-3.67-1.09-4.86-2.1-4.91-4.21-10.35-7.85-9.58-14.88.06-.59-1.13.29-1.71.43-4.94,1.26-8.78,5.41-13.6,6.85-2.4.71-5.14-.25-7.32,1.69-10,8.93-4.67,19.67-8.61,26.82-1.77,3.2-6.77,4.18-8.22,7-.35.68,0,1.53,0,2.29s0,1.53,0,2.29c0,2.46-2.26,7-1.65,9.19a2.71,2.71,0,0,0,.74,1.1c-.1-.13-.19,0-.27.43-.36,1.93.13,10.67.79,19,.64,7.88,1.45,15.35,1.89,16.21,1.93,3.85,4,7.7,4.68,12.22.39,2.72-1.76,3.84-1.71,6.17,0,.79,1.08-1.94,1.77-1.56s.93,3.11.9,5.23a6.42,6.42,0,0,1-.3,2.44c-.59.5-1.75-.49-2.29,0-1.55,1.57,2.93,9.36,2,11.51-1.79,4.12-18.41,1.5-19.66-.55-.31-.52,7.5-7.57,8.14-8.53,1-1.56,2.5-3.86,3.89-6.46,3.53-6.54,6.75-15.13,2.59-19.74,0,0,.09,1.41.14,2.11a48.07,48.07,0,0,1,.42,6.33c-.26,3.66-1.88,7.54-3.84,11.1-1.17,2.11-2.46,4.11-3.66,5.89-11.08,16.32-17.16,5.49-23.2,10.12-2.93,2.23,0,6,0,8.47,0,3.7-4.4,9.35-9.12,13.34-2.92,2.47-6,4.3-8.19,4.62-8.33,1.19-14.85,2.05-21.48-3.67l.08-4.63c-.37-2.61-1.93-2.86-2.68-3.91-.31-.42.17-1,.26-1.53s.43-1,.25-1.54c-.58-1.57-4.53-3.67-1.3-3.87,1.23-.08,6.31,3.12,7.27,4s1.72,4.3,2.1,3.11c.78-2.48-10.11-8.91-12.08-9.46-6.73-1.9-22.66,1.68-29.46,3.81-3.68,1.16-6.39,4.45-9.86,5.81-3.11,1.22-11.57.2-13.09,4.09s-6,8.21-8.34,10.43c-.34.32-3,.25-2.77-.14.37-.55-5.45.25-8,1.14-9.42,3.36-19.7,5.26-29.32,7.55-3.4.81-6.57,4.1-9.66,4.77a5.83,5.83,0,0,1-4.86-1.49c-4.33-3.39-7.76-11-10.81-10-.93.31,1.78,2.91,1.19,5-.95,3.33,2.37-5.29,3.67,2.63.92,5.75.42,2.68-1.53-.15a1.42,1.42,0,0,0-1.86-.14l.7,3.15c-.28,1.23,4.11,2.64,5.89,2.77a5.58,5.58,0,0,1,1.84.8c1.62,1,3.58,2.27,4.34,1.19s1.12-3.89,1.84-3c1,1.33,4,4.78,4.67,3.8.25-.37.56-1.5.77-1.1,1.62,3.15-3.53,4.26-3.27,6.75s2.5,1.28,1.87,3.61c-.1.38,0,1.29-.32,1.14s-5.51-5.85-7.06-6.68c-.2-.12-1.14.51-2,1s-1.54.88-1.41.28.94-1.89,1-2.56c0-.12,0-.24-.05-.37a.41.41,0,0,0-.28-.12c-.7,0-.82,1.53-1.52,1.44-7.26-.88-9.1-6.86-8.78-8.54.17-.94-.92-3.83-1.23-4.8-.39-1.25-2-6.84-2-6.94-.11-.28-1,.38-1.92.63-1.36.36-3.23-.58-4.22.43-.39.38.77,1.26.33,1.58-1.29.9-1.17-3.16-2.46-4.08-3.06-2.18-8-4.33-7.54-9.92.08-1-1.73-1.47-1.58-3.24.05-.47-6.27,3.33-6.32,3.31-.56-.21-.36-1.19-.78-1.62-2.27-2.26-9.12,5.37-11.64,5.12-1.56-.14,3-6.25,3.42-6.52C868,793,879.75,794,878,792.76c-.63-.43-1.54-.14-2.3-.21l-6-.54c-.8-.08-.89-1.71-1.69-1.71-1.41,0-4.64,6.94-5.86,8-1.93,1.63-6.56,1.76-7.45,4.7-.38,1.25,1.28,3.38.09,3.89-1.46.63-.47-3.87-.55-3.93-.45-.34-10.42.16-11.24.41-2.19.65-7.56,10.83-7.71,10.84l-3-2.65c-.39-.11-.61.58-1,.66s-1.19.28-1.39-.15c-.67-1.45.15-3-1.43-4-2.38-1.53-6.47,3-8.22,2.19-11.75-5.44,5.43-8.45,6.84-10.89,1.63-2.8-1-4.55,1.87-8.33,3.31-4.38-7.45,2-10.56,2.68-.8.17-8.32-7.19-11.22-7.53-3.64-.45-3.24,3.15-5.7,4.74,0,0,2.22-6.58,2.22-6.72,0-2.35-8.45.18-9.26-.38-2.11-1.48,4.53-2.91,5.16-4,1-1.73,0-9.51-1.39-11-.28-.3-.48-1.09-.82-.88-.68.44.59,2.4-1.2,2.18-1.16-.15-2.74-2.28-3.8-2.82L788.82,766c-.35-.69-2.16.49-3.74.28-.11,0,.1-.35.47-.84,1.2-1.56,4.21-4.76,4.87-4.67s-.43,1-.65,1.47a2.52,2.52,0,0,0,.16,2.34c.61.91,2.4-1.16,2.46-1.23.38-.48,1.64-.82,1.56-1.35-.2-1.2-3.61-6.68-4.19-6.75-.91-.12-3.27,1.14-2.7.42,1.94-2.47.44-3.94,1-5.29,1.12-2.53,5.81,1.17,6.36-3.05.13-1.07-1.73-1.53-2-2.58-.31-1.47.13-4.73-.1-6.21-.17-1.08,3-1,2.53-2-.28-.66-4.81-1.64-4.28-2.11,1.57-1.36,9.61-.39,10.09-4.11,0-.45-2.35,0-2.68-.34-2.46-2.19-1.75-2.15-4.87-4.5-.43-.33,1.08-.12,1.61-.18,2.37-.26,2.3,1.13,4.27,2.1,3.25,1.59,7-.8,8.24-2.44.74-1,1-2.78-2-3.73-1-.32-3.72-1.11-2.75-1.51s6.65-1.16,7.21.13c.27.62.83,2.29,1.15,1.69.7-1.32,3.94-6.46,3.68-8-.07-.44-1.25.27-1.32-.17-.45-2.72,1.55-11.32,5.89-11.63,3-.21,1.36,3.28.43,3.91-.33.22-.41-.82-.79-.87a2.09,2.09,0,0,0-1.86.55c-2.77,3.66,3.78,1,4.24,2,.24.54-1,.83-1.07,1.42a2.22,2.22,0,0,0,.71,1.62c1.09,1.2,1-4.5,2.39-5.11,3-1.29,2.26,7.34,3.49,2.72a5.47,5.47,0,0,1,.41-1.5c1.27-2.05,4.56-3.32,5.55-5.51,5.28-11.77-5.11-7.59-10.56-8.94-1.81-.45-2.21-3.86-3.49-4.27-.08,0-.17,0-.25,0a3.63,3.63,0,0,0,1.31-1.44c1-2.33-4.87-4.31-4.79-4.43.94-1.24,4.46,2.58,4.81.59.3-1.67-1.55-3.87-1.53-5.57s2.23-5.09,1.7-6.72a1.09,1.09,0,0,0-.91-.62c4.94.33,10.9-16.4,10.36-19.72-.22-1.39-2.17-2.72-2.56-4.14a6.51,6.51,0,0,1,0-1.53c-.05-2.39,5.41-7.24,4.2-7.92-1.8-1-6.42,4.58-8,5.16-2.48.91-5.92-.51-8.33.5-7.7,3.23-8.32,14.64-16.64,17-3.53,1-6.66-1.23-9.94-1.35-2.41-.09-4.8,2.19-7.33,2.06-1.48-.08-2.76-1.65-4.22-1.37-2.37.45-11.08,11.87-11.4,14.53-.1.77-.67,2.22.1,2.33s1.06-2.74,1.63-2.08c0,0,4.13,7.5,4.57,8.39.18.35.4,1,.77.88.71-.2,2.14-4,1.52-4.41-1.13-.7-5,.15-3.92-.57,4.28-2.75-.66-.64,2.07-5.1.29-.47,5.46-5.85,6.18-6,1.94-.54,2,1.74,3.69-1,.28-.45-.67-1.28-.22-1.57,0,0,7.5,2.77,8.43-.37.19-.64-.73-1.12-1.09-1.69-3.68-5.69,2.84,4,3.82,4.37l3.88-1c2.84-.75,7,.65,9.52-.3.82-.3.71-2.21,1.59-2.1,1.37.17,2,2.52,4,2.81,0,0,0,.06,0,0,1.53.19-3.12.37-4.65.18-1.32-.17-4.22,1.22-5.52,2.6a1.67,1.67,0,0,0,.24-1c-.4-1.27-5.76-1.5-6.94-.91-2.52,1.22-6.72,6.73-4.81,9.36.38.51,1.58.35,1.65,1l-2.69,3.48c-.4,1.77,2.14-1.91,3.59-.28s-1.76,4.55-1.15,5.24,3.66-.59,2.43,1.87c-2.17,4.3-2.4-5-5.52-5.37-.08,0-2,4.78-2.7,3.49-.81-1.53,6.55-10.67,1.12-11.41-6.93-1-4.33,4.16-4.66,4.75-.49.9-5.62,1.82-6.09,2.23-.71.62,3.54,8.13-1.41,6.75-1.7-.48-1.88-5.12-2.41-5s-.52,1.28-1.09,1.39-5.73-2.27-7.1-3.35,1.67-6.41-.75-4c-1.57,1.57-3.52,7.38-3,9.44.37,1.51,4.39,3.9,2.86,3.67-.4,0-2.88-2.62-1.87.5.43,1.34,3.38,1.4,3.18,2.8-.51,3.45-4.7-2.47-5.05-2.3-.61.3-.1,1.36-.15,2l-.15,2a19.79,19.79,0,0,1-.16,2c-.54,2.93-3.24,7.5-2,10.54.67,1.67-.55-5,1.23-5.24,3.27-.43,6.33,8,5.74,10.14-.36,1.32-4.92,4-6.32,2.95-.31-.24.26-.74.39-1.11a6.85,6.85,0,0,0-.05-4.27c-.16-.22-.76,6.09-.86,7.63-.19,2.7-4.35,7.33-4,9.49l2.9,2,2.79,2.74c.53-.1,0-1.12-.23-1.59-.5-.88-2.62-2.82-.33-3.92,1.18-.58,1.7,5.48,3.58,6.73l4,.58c2.4,1,1.29,13.28.63,14.84.31.67-1.65,6.63-2.68,10.49a13.39,13.39,0,0,0-.62,3c.19,4.52,2,4.37,4,7.57a3.9,3.9,0,0,1,.48,3.18c-.13.38-1.34.4-1,.64,2,1.48,4.24,1.82,4.84,5.34.9,5.39-9.42,2.2-11.16,3.11-.88.46,2.13,1.78,1.5,2.55s-2.25-.38-2.85.37c-2.35,2.9,7.35,3.82,10,2.18.77-.47-.93,1.62-1.69,2.11-1.51,1-3.13.93-3.29,3.44-.3,4.72,2.81.52,4.89,5.35,2.61,6.09-7.57-3.93-4.08,5.67,1.43,3.94,5.81,3.36,9.58,5.13a.94.94,0,0,1,.54.15c.12.09.21.24.33.35a7.61,7.61,0,0,1,1,.61c3.18,2.53,3.4,8.26,5.09,11.58,1.43,2.82,5.93,2.48,7,4.8.43,1-5.7-1.46-7.16-3.26-2.59-3.2-2.8-11-5.84-13.73-.29-.17-.57-.36-.87-.5s-.92.16-1.35.16H771c-3.48,0-4.83.38-8.48-.12-2.6-.37-4.5-4.86-6.61-3.28-1.31,1-3.93,6.33-4.45,8-1,3,1.73,5.29,1.22,8l-2.3,2.8-.52,3.57c-2.07-.29,2-6.07,2.35-6.42s-1-.5-1.48-.74c-2.8-1.39-1.93-2.12-3.54-3.9-2-2.2-4.9,3.25-3.94,4.11.58.53,2.1-.41,2.33.34.42,1.32-1,3.77-2.07,4.39-.42.25-1.34,1.1-2,.49-.33-.32-.35-.84-.53-1.25-.32-.76-4.74-1.65-2.52-3.9.87-.88,3.13.83,3-1.11s-1.95-2.72-2.58-5.08c-.26-1,.58-2.26,0-3.13-1.22-1.83-28.14-3.49-27.4,2,.11.81,2,1.11,1.61,1.83s-8.53,4.56-4.28,8.72a3.42,3.42,0,0,0,1.27.59,3.9,3.9,0,0,1,1.89.44c1.08.2,2.15.36,2.7.5,5,1.31.55-.74-1.34,3.12,0,.09-.12.1-.17.17-.67.88-1.85.11-2.46-.21-2.53-1.3-.93-.94-1.2-2.93s-4-1.38-4.76-3.13c-.46-1.14.41-2.88-.3-4a5.07,5.07,0,0,0-3-2.07c-3.9-.93-8.7,1.94-12.61,1-2.95-.71-5.94-2-9.29-1.62-4.15.46-13.47,2.44-16.4,5.7-1.3,1.47-1.48,4.52-3,5.76l-.14.76c-1.84.77-9.64,2.72-10.49,4.35l-5,.64c-3.47-.43.15-3.13-3.63-3.85-.26-.06-3.11,6.92-3.4,7.56-4,8.82-5.24,16.81-11.58,24.29a64.19,64.19,0,0,1-10.19,9.07c-1.05.78-3.56-.43-4,0-1.15,1.2,1,6.16.52,7.24-.39.92-1.72-1.14-2.7-1.34s-10.27,5.27-10.16,5.85a1.25,1.25,0,0,0,.81,1c1.36.28,1.8-1.22,3.18-.94,2.35.49,1,4.55,4,4.79,3.5.27,3.79-1.1,6.24,1.25.39.37.65,1.37.17,1.62-.2.1-5.58-4.51-6.24-1.26-.48,2.38,10.25,5.56,6.95,7.74-2.39,1.58-10.44-5.3-10-7.55a2.24,2.24,0,0,0-.65-1.72c-1.54-1.84-12-2.55-13.09.47-1.65,4.58,5.12,4,6.56,4.55,1,.32,1.44,3.08,2.74,3.73,3.21,1.58,2.34-.82,4.32-1.51s4.2,3,5.79,3.55a4.13,4.13,0,0,0,1.52-.09c.51,0,1.16-.45,1.52-.09s.26,1.3.16,2.32a8.18,8.18,0,0,0-.1,2.44c2,6-.27-.94-1.29-2.44a.66.66,0,0,0-.19-.23c-1.41-1.14-2.77,1.35-4.34-.86-2.84-4.05-2,.72-6.09.35-4-.35-5.07-5.33-8.83-5.79a20.62,20.62,0,0,0-5.33.2c-8.65,1.27-19.17,6.69-26.35,8.92-.16.05-.33.05-.49.1-7.56,2-17.25-2.79-24.54.63-8.11,3.8-7.13,14-10.36,21.85-1,2.34-1.24,1.4,0,2.93.26.34,1.18.81.8,1-1.27.59-3.73-.23-3.33,3.23.23,2,2.42,4.28,2.85,5.46.27.75-2.84-2.89-4.23-1.78-18.44,14.7-24.09,5.85-43.63,12.68-9,3.14-5.82,13.67,2.53,13,.53-.05,1.34-.61,1.61-.14.56.95-7,0-7.37,0-4.19,0-7.83,3.66-12.53,3.66-3.72,0-16.79-8.35-21.46-10.85-4.12-2.21-7.18,1.31-7.22,1.3A62.41,62.41,0,0,1,431.36,944c-.06-2,2.69-1.84,3.05-4.43.09-.65.65-1.43.27-1.95-2.05-2.78-14.88,1.69-19.65-7-.19-.35-.55.66-.56,1.06-.08,2.3,2.91,4,1.6,6.53-.43.82-1.93.92-2.1,1.84-.47,2.6.56,9.21,2.41,10.38,1.06.69,0,2.85,1,5.95.06.2.95,4.3.94,4.32-.34.65-1.56.45-1.9,1.09-.17.32-1,5,.44,4.18.6-.35,1-.09.5.13-.11.06-3.78,7.76-3.77,7.87,0,.88,0,5.81,1.13,7.6.18.31,5.16,2.37,3.88,3.49-.86.75-2-1.28-3.15-1.25-2.5.06-7.51.24-9.76-.67-3.79-1.54.51-8-3.72-5.91-.24.12,0,.71-.22.76-.51.1-1-.47-1.49-.43-4.35.38,1.52,8.55-2.11,7.53-.3-.09.66-.31.71-.61.11-.85-.51-5.3-1-6-1.36-1.8-3,1-5.83,1.59-1.08.21.9-3-.15-3.28l-2.92.79c-.11-.14,4.52-2.78,1.57-3.61-.53-.15-.46,1.06-.92,1.36-2.86,1.82-3-1.51-4.7-.53-.48.25.4,1.21.06,1.64s-6.38,1.65-7,2c-.48.26-.41,1.5-.94,1.35-.33-.09-3.61-11.6-4.45-14.32-1-3.27-2.77-3.31-5.18-.71-.41.45,2.8-2.94,2.54-5,0-.17-.32-.14-.49-.15-1.64-.12-2.45-.27-3.52,1-.28.32-.95,1.39-.83,1,1.8-6.06-2.13-.63-6.44-1.92-1.44-.44,1.26-3.79-2.51-2.39-2.72,1-1.62,5.58-3.51,6.28-1.62.59-4.38-4.51-6.25-4.36-1.25.12-2.17,1.75-2.27,3,0,.39.31,1.2-.1,1.19-2.49,0-1.65-9.11-5.25-4.07-.33.48-.73-.94-1.25-1.2-2.62-1.32-4.33,3.11-6.86,1.14-1.51-1.18,2.52-1.67-.29-2.55-1.26-.39-2.73,1.36-3.17,1.47-.68.16-4.21-2.14-4.68-.65-.78,2.46-6.75-1-10,9.12-1.22,3.82,7.66,1.61,9.27,2.12,3.85,1.22-.83,1.09.19,2.52s6.27-.88,5.7,1c-.22.7-1.53.43-2,1-.82,1.15,4.85,1.09,3.75,2-.65.54-8.56-1.67-9.68-2.21-2.56-1.22.79-3.19-1.29-2.86-1,.17-1.28,1.45-2.2,1.76s1.12,1.35,1.52,2.12c.6,1.17-2.42,3.34-1.18,3.74s1.7-2.35,2.44-2.52c2.36-.56,5.5,4.12,5.31,5.76a3.88,3.88,0,0,1-.47,1.49c-.63,1.11-10.34-4-14.65-.52-.52.41,1.25.4,1.87.6a12,12,0,0,1,6.18,5.23c1.83,4-2.77,11.08,5.19,9.81,1.8-.29,2.42-5.23,3.13-4.76,2.35,1.58,1.62,5.42,3.83,3.64,3.15-2.56.93,1.59,3.1,4.22,1,1.19,3.5,0,4.25.48,2.5,1.66,4.23,5.74,6.48,7.68,1.28,1.1,3.05-.53,3.48-.59,1.05-.14,3-2.65,2.69-1.64-.71,2.37-1.06,3.76-1.22,4.58a.65.65,0,0,1,.08.51c.51.62,1.37,1.5,1.37,1.5a.72.72,0,0,0,.51-.27c-.2.87.83,1.87,1.07,2.37.93,2-2.94,5.24-1.49,6.89,2.36,2.71.34-3.68,1.83-4.34a4.84,4.84,0,0,1,4.57,1.35c.21.28,1-2.45.88-3,0-.32-.59-1-.29-.9,2.51.73.43,2.65,1.15,3.59,1.06,1.4,3.64-3,4.93-1.81,1.52,1.39-.83,3.18,1.87,3,.53,0-.05-1.65.45-1.5s.3,1.14.06,1.64c-1.67,3.48-2,1.88,2.9,3.29.85.24-3.11.32-2.46.91l3.77.27c1.86.79,1.84,2.16,4.14,2.82l-1.78-.51c-.91-.26-3.42-.31-2.42,1.74a6.18,6.18,0,0,0,1.3,2,4.5,4.5,0,0,0-2.71.08c-.5.13-1.41-.12-1.49.39-.58,3.37,5.36,5.6-.58,3.89-1.13-.31,1.49,2.07,2.63,2.39,2.67.77,3.6,2.66,4.17,2.83,3.15.89,3.86-4.26,9.25-1.46.9.48,7.67,6.13,7.43,7-.34,1.22-2.42-.91-3.38-1.75-1.34-1.2-5.05-7.42-9.29-4.24-.84.62-.57,2-.85,3-.35,1.21-3.31,1.23-2.9,2.43.63,1.9,8.24,2.83,6.41,6.69-1.68,3.55-6,3.48-7.17,7.72-.2.67,4.86,7.75,5,7.93,2.06,2.32.89,6.62,1.21,9,.34,2.54,3.6,3.3,4.46,4.76.27.44-.74,1.09-.42,1.51l4.16,1.14c2.09,1.15-.49,3.09.53,4.2l3.34.1c1.66,1.17,1,3.74,3.15,4.91.51.28.79-4,3.74-1.42s-5.8,4.14-5,6a52.45,52.45,0,0,1,2.76,6.41c.22.6,1.28,1.73.65,1.79s-1.45-.88-2.1-.56c-1,.48.67,2.29.24,3.3a3.22,3.22,0,0,0,0,1.2c0,.41.32,1-.05,1.2s-2.86.4-3,.82c-1.18,2.77,2.07,4.77,2.48,6.87,0,.05-4.68-5.3-5.93-4.56-2.83,1.65-.93,4.26.35,5,2.33,1.26,4.15,4.88,4.92,7,1.81,5,5.61,6.8,5.68,12.85a81.72,81.72,0,0,1-.8,8.21,24.64,24.64,0,0,0-.23,3.25c0,.21,0,.43-.07.65.16.55.34,1.12.53,1.73.48,1.09.73,1.58.54,2,.12.51.25,1.1.38,1.74,1.26,2,3.65,5.34-.38,4.29l.45-3.92c0-.15-.05-.25-.07-.37-.46-.73-.77-1.29-.6-1.43a.81.81,0,0,0,.22-.31c-.19-.77-.37-1.4-.54-2-.16-.35-.31-.69-.49-1.18a1.27,1.27,0,0,1,0-.55,24.43,24.43,0,0,1-.83-7c-.1-6.41-4.37-11.84-6.26-17.06-.31-.84-1.84.37-2.53,1-2.78,2.32-3.36,7.13-4.46,10.55-2.83,8.84-9.13,17.47-10.75,26.68-.63,3.58,11.16-11.5,7.52,2-.33,1.24-5.36-1.46-5.37-1.45-3.68,1.53-4.8,10.08-6,13.29-2.85,7.42-15.34,36.61-22.24,39-2.23.77-4.51-.45-6.21-.93l-.58-.15c-2-.32-3.11,2.38-4.34,2.85l-2-1.36c-1.86-.28-4.32,1.22-6.12.7-3.42-.95-14.86-10.55-16-10.26-.54.12-.43,1.26-1,1.33-1.5.23-.31-3.1-1.1-4.39-.62-1-9-1-10.15.29-.36.39-.11,1-.17,1.58s.34,1.73-.17,1.58c-3.77-1.11-7.58-9.77-12.62-9.47-.55,0-.46,1.5-1,1.34-3.4-1,2.25-2.16,2-2.67a21.2,21.2,0,0,0-4.22-3.72c-5.32-1.21-5.89,3.11-9,2.17-2.78-.84,5.53-1.87,1.15-3.74a7.08,7.08,0,0,0-2-.2,5.46,5.46,0,0,0-2-.21c-.83.22-.94,2.16-1.77,1.91-2.83-.88-9,.19-12.1-1.3-7.08-3.45-19.79-8.24-27.28-13.61-1.13-.8-1.38-2.51-2.52-3.28a3.48,3.48,0,0,0-2.16-.71c-.77,0-1.37,1.2-2.1,1s1.22-.58,1.56-1.13c.83-1.33-8.17-3.07-8.91-3.76-.35-.32-2.4-7.06-4.2-7.16-3.26-.17-1.54,2.6-3.39,3-3.74.8-7.59-2.65-10-4.19-1.13-.72-4.95,1-6.67.23a112.66,112.66,0,0,0-16.9-6.67c-2.1-.59-2.35.42-3.58,1.65-.31.31-.67,1.27-.92.93-.6-.82,2.34-3.14,1.82-3.51-1.59-1.15-6.63-.36-7.75-1.9s-2-7.23-4.32-9.84c-1.62-1.82-3.54.4-4.79,0-.5-.17.53-.94.53-1.46,0-3.58-.83-.94-2.67-1-1.06,0,2.65-2.73,1.59-2.76-1.4,0-4.75,2.09-5.58,2.15-.57.06-1.13-.89-1.6-.57-.64.43-.06,2.47-.79,2.21-1.87-.68,4.31-5,.79-5.55-4.33-.67-21.27,6.2-26.45,7.67-4.59,1.3-10.77,4.34-15.51,4.35-7.7,0,3.29-.77-2.4-1.74-1-.16-1.47,1.46-2.43,1.59-2,.28-4.06-1.93-5.64.37-1.14,1.66,3.86,1.09,3.74,1.42-.33.87-1.92.15-2.69.65a39.21,39.21,0,0,1-4.58.76c-1.35-.5-.12,3.07-1,4.23-.5.67-2.09,2.08-1.25,3.28,1.06,1.53,2.1-1.69,3.51-1.16,2,.74-.53,7.33-.49,7.74.07.77-.37,2.3.39,2.25s1.15-.61,1.62-1c.19-.19,0-.72.28-.74,2-.13,3.19.57,4.86.16.37-.08,1.08,0,1.07.41,0,.86-12.49,5.29-9.81,11.34.74,1.68,4.88-3.17,6-2.76,3.14,1.17-.08-1.67,2.44-1.6,1.3,0,.24,5.53,3.78,1.42.89-1-1.37,2.44-2.45,3.26-.74.56-2.1,0-2.71.65-1,1.22.45,3.57-1.64,4.39-1.86.73-.73-1.94-1.08-2.07-3.91-1.47-1,4.34,0,5,.52.34,6.53.5,6.5.77-.15,1.28-9.86,3.5-9.79,4.68.25,4.26,8.55-.39,9.51-.62.79-.19-.66,1.59-1.36,2-1.55.9-3.83.51-5.43,1.31a7.53,7.53,0,0,0-1.37,1.15c-.65.57-2.15,0-2.45.76s1.08,2.91.26,2.6c-1.18-.44-.35-2.82-2.72-1-.67.51-3.16,10.28-2.76,10.64l3.47-1.47s-.11.15-.34.35c-1.25,1.12-6,4.76-6.42,6.56-1.22,4.73,3.89,3.13,6,3.93.44.17-.91.26-1.37.33-2.86.38-3.67-1-4.12,2.06-1.19,8-4.44,15.41-2.14,23.09,1,3.33-6.74,10.17-6.53,13.15,0,.21,2.24.7,1.64,1.69-.39.64-4.59,1.2-2.48,3.24.88.84,4.81.24,3.62.52-1.69.38-7.86,2.35-8.87,3.34-3.24,3.16-5,8.6-8,12.16-.91,1.08-3.84,3.56-4.16,4.93-.75,3.24,4.57,1.5,3.4,4.61-.36,1-1.51-1.89-2.54-1.79-.7.07-.9,1.09-1.34,1.64-5.45,6.6-11,14.79-17.32,20.47-.92.81-4.64,2-5.07,3.06-.23.62.82,1.28.59,1.9s-.87-1-1.43-1.38c-1.09-.66-2.41,1-3.68,1.09a6.83,6.83,0,0,1-1.55-.18c-.52-.06-1.28-.62-1.56-.18-.14.22,1.34,4.65,0,6.68s-4.05,3.35-5.35,5.46c-2.95,4.79-4.78,11.12-8.43,15.09-.4.45,3.17,7.65,3.52,8.5.62,1.48,2.72,4.76,2.66,6.36-.07,2.08-4.84,1.4.13,2l2.11.24c2.41.28,6.53-1.15,8.39-.7,1.1.26,1.94,3.52,3.5,3,.52-.19,1.13-.69,1.12-1.24s-1.29-.05-1.15-.43c.35-.93,1.87-.81,2.55-1.54.29-.33.23.88.17,1.31-.22,1.3-1.23,2.78-.93,4.22.44,2.08,4.32,3,4.09,3.18-3.92,2.37-8.22-6.39-11-7.45-.6-.23.59,1.14.89,1.71.59,1.15,1.58,2.17,1.78,3.45,1.56,9.48-8.47,14-9.69,18.75l1.78,2.34c.87,2.66-2,5.68-2.41,8.22-.36,2.21,2.8.25,2.92,1.08,0,.26-5.05,2.18-5.69,4.51-1.9,6.86-5.75,12.67-10.31,18.49-1.06,1.36-4.19,2.4-4.86,4-.16.38.41.7.61,1,1.32,2.28,13.58-1.15,17.28,1.5,1.78,1.28,22.69,14.92,22.74,14.92,3.74.74,9.71-3.71,13.56-4.18a22.8,22.8,0,0,1,4.45.48c4.56.75,11,2.17,12.34,3l3,2.72c1.56.54,3.47-2.49,4.79-2,1.11.4-2.3,2-1.82,3.07,2.25,5.11,7.87,9.25,10.61,14.32.9,1.66,1,8.53,2.68,9.1.66.22,1.15-.68,1.57-1.68-.08-.92-.09-1.84,1.13-2.31.57-.3,1.28.16,1.92.25a12.42,12.42,0,0,0,1.92.23c.49,0,1.27-.79,1.44-.33,1,2.59-5.06-.23-5.28-.15s-.71,1.31-1.13,2.31c.07.81.19,1.61-.37,2.09-1.4,1.22-3.88-.38-4.6,1.71-1.85,5.42,4.45,5.53,4.72,9.79,0,.79,1,2,1.06,2.81a23.65,23.65,0,0,0-4.57-2.37c-.53-.18.4,1,.59,1.55a26.51,26.51,0,0,1,1.18,3.14c.77,3.26.7,5.77,1.74,8.75.39,1.1.14,4.41,1,5.22,0,0,4.22,1.4,4.24,1.42,2.3,2,5.52,10.35,8.85,11.91,6.64,3.12,6-2.72,7.65-4.8,1.17-1.53,2.66.86,3.64,1.18l2.33-3c1.39-1.8,5.8-5.93,8.17-6.57s10.67-1.56,12.93-.71c2.66,1,4.16,4.27,7.65,3.25s8.06-6.5,11.5-6.94c3.12-.39,25.05,5.9,28.91,7.3,2.14.78,3.8,3.72,6,4.23,3.22.77,8.71-.62,13.63.84,5.35,1.58,8.12,6.86,13.11,7.07,4.31.2,6.36-5.84,14.5-2.27,3.89,1.71,2.91,5.67,7.25,6.9,2.62.74,6.56-6.45,9.22-7.06,3-.68,5.3-7.59,8.2-10.59,3.09-3.21,17-10.5,21.26-11,3-.38,6.49,3.27,8.25,3,.51-.07,0-1.19.41-1.5a3.23,3.23,0,0,1,2-.26c4.2.17,8.13,5.53,13.08,1.87.82-.59-4.45-3.45-4-6.69.19-1.53,4.84-1.75,5-1.89,1.25-.91.2-3.29,1.19-4.49s4-1.73,4.6-2.81c1.13-2,0-5.48,1.37-7.67,1.13-1.84,4.3-.08,5.39-1,1.39-1.17.79-4.69,2.17-5.86,1-.82,2.78.94,3.78.18s.61-3.39,2.37-4.2c3.56-1.63,7.6-1,11.12-1.15,2.58-.14.69-2,2-2.71,3.37-1.88,8.23-.83,11.65-3.46,3.16-2.42-8.28-9.63-9.59-12.06-2.55-4.75-3.65-25.78.09-29.72,3.28-3.45,15.55-16.78,18.48-18.58,4.63-2.85,9.72-5.65,14.11-9.32,3.68-3.09,7.82-11.58,12.45-13a7,7,0,0,1,2.12.12c.7.05,1.58-.34,2.11.13.33.29-.57.65-.85,1-1.39,1.6-4.39-.61-3.08,1.26,1.56,2.21,3.42-2.07,5.27-2.73,1-.33,2.71.43,3.66.08,5.07-1.79-3.92-6.49-3.91-6.56.68-2.8,9.22-7.23,11.81-8.37,3.34-1.5,4.39-.13,7.26.14l2.28-1.87c2.63-.63,7.61-.53,10.49-.73,6.25-.45,13.67,1.93,19.85.57,4-.87,5.94-5,9.36-6.69,9.95-5,27.81-5.6,36.38-12.85,5.82-4.92-1.21-10.53,1-15.76,1.5-3.62,7.33,2.14,7.78-3.15.1-1.29-3.19-1.73-3.65-2.37-1.92-2.63.46-2,.25-3.94-.28-2.45-2.07-4.08-2.82-6.19-1.6-4.51,2.81-8.22,1.89-11.59-.1-.35-3.16-1.27-2.48-2.13,1.7-2.17,2.59-1.5,4-2.34.45-.25.48-1,.33-1.52-1.37-4.53,3.69-3,2.42-5.87-.36-.82-2.13-1.2-.63-2.54,1.65-1.47-.41,2.14,1.35,1.88s3.82-4.35,5.21-5.28c3.46-2.33,5.84-.47,9-1.3,2.9-.77,5.51-4,8.66-5.71-.82.26-1.45.4-1.1.08,1.78-1.63,6.4-4.55,9.19-4.51,6.91.1,4.77,4.22,9.37,6.4,1.41.67,11.34,2.8,11.55,4.13l-1.56,2.08c.11,1.19,6.61,3.27,7.53,3.05,1.59-.39,1.09-1.21.25-2a2.22,2.22,0,0,0,1,.36c1.22.11,2.15-1.54,3.37-1.48,1,0,3.93,2.56,5,1s-1.91-2.18-1.66-3.51c.41-2.16,2.83-2.18,4.2-.8.37.37-.52,1.07-.28,1.54,1.47,3.1,1.49-.43,3.34.63,3,1.68-7.71,4.06-7.71,4.12a15.75,15.75,0,0,0,.27,1.65c.45,2.79,8.72.6,9.66,1,2.93,1.27-1.37,6.24.4,7.24,2.83,1.58,7.24.5,8.58-.42s2-1.83,5.83-1.5a59.12,59.12,0,0,0,7.25.17l3.25-1.58a9.5,9.5,0,0,1,3.92-1.42c1.66,0,3.58-.42,4.41-.42s10.34-14.66,10.34-14.66l19.5-43.25ZM1324.76,124.54c-.53.88-.88,2-1.51,1.82C1322,126.08,1323.87,125.27,1324.76,124.54ZM753.47,428.12c-1.16-.59-3.11.62-3.89-.42s-.29-3.6-1.41-3.24c-.41.14-2.21,5.42-3.59,4.59-1-.58,3.78-4.49,3.28-6.67,1.63,3.46,8.79,5.67,8.52,7.25C756.19,430.7,754.43,428.63,753.47,428.12Zm-13,70.17c.16-.9.23.78.62,2.25A4.13,4.13,0,0,1,740.48,498.29Zm25.21-13.88c-.36.32,1.8-4.22-1.26-4.72l-4.2.82c-.47-1.38,3-1.11,3.65-2.42a2.38,2.38,0,0,0,.2-1.14C765.25,479.36,768.73,481.68,765.69,484.41ZM939.12,272.12a1.92,1.92,0,0,0,.16.89c.28.65,5.79.65,4.48,1.76-1.16,1-3.24-1.1-4.58-.36l-1.58,2C935.81,273.21,938.65,272.85,939.12,272.12Zm75.32,310.28a13.51,13.51,0,0,0-.75-1.27l.95.71A.62.62,0,0,1,1014.44,582.4Zm19.29-3.66h-2.13v-.41A7,7,0,0,1,1033.73,578.74Zm-28.34-11.67c1.91,1.1,2.59,3,4.42,3.9.25.12-1.9-8.33-.14-8.27.88,0-.18,1.91.32,2.64s1.58,2.47,2.4,2.71c.47.13,1-1.14,1.26-.71s-.85.9-.87,1.47c0,.36,4.34,3.14,4.88,3.15,1.22,0,1.38-4.8,1.38-4.84-.22-2.28-2.91-2.3-3.84-4.15l-.17-.1a.91.91,0,0,1,0-.23,3.06,3.06,0,0,1-.18-.9c0-.42.54-.69.65-1.11s.43-1.19,0-1.49c-1.92-1.5-2.95,2.21-3,3.66,0,.8.7,3.11.44,2.36s-1.58-3.39-1.62-3.91l1.31-2.2c-.62-.95-4.13-.13-3.28-.86.52-.44,1.37,0,2.06.07a5.74,5.74,0,0,0,2.06.06c.64-.22,1.73-3.79,2.51-1.42,1,3-.89,4.41-1,5.74a3.36,3.36,0,0,0,.16.33l2.67,1.49c.45-.22,0-1,0-1.5a6.5,6.5,0,0,1,.07-2.25c.48-1.19.12,2.63.72,3.77,3.52,6.85-.94,2.86-.26,9a2.49,2.49,0,0,0,2.29,2.21l-1,3h-8.53a2.65,2.65,0,0,0-1-.23c-.51,0-3,5.13-5.35,2.08-.37-.49,1.33-.21,1.69-.7l-.76-2.28c.1-.11,3.22.65,1.72-1.45-1.2-1.65-5.53-.21-7-1s-2.42-5.35-4.76-5.45c-1.13,0-3.37-.51-3.33.62,0,0,2.94,2.08,2.94,2.13.08,1.44-2.36-1.86-3.77-2.16-3.63-.79-8.19,1-12.08,1-1.37,0-4.78-2.25-3.4-2.33a7.21,7.21,0,0,1,2,.19c.53.13,1,.65,1.52.64s1.66-2,2.14-1.4,1.57-.08,2.92-.62c.35-.14.45.67.79.79.53.19,1.23.42,1.66.07,3.25-2.69-1-6.08,1.88-5.18,1.16.36,3,5.06,4.35,4.69,0,0,2.17-2.91,2.19-2.92,2-.89,4.54,3.81,6.1,2.49.23-.19-2.84-3.71.12-3A21.06,21.06,0,0,1,1005.39,567.07ZM816.93,688.68c-1.31,1.69-2.34,4.87-2.48,3.92C814.13,690.63,815.49,689.6,816.93,688.68Zm.84-19.52a2.22,2.22,0,0,0,.68.28,3.77,3.77,0,0,1-1.55-.39c-1.07-.69-2.92-3.91-4.15-4.31C815.3,663.81,815.26,667.43,817.77,669.16ZM353.08,1011.07c.09.3-1.19.71-2,1a2.46,2.46,0,0,0-.52.31c.94-1.64,1.86-4.79,2.92-2.86C353.77,1010,352.92,1010.57,353.08,1011.07ZM141.39,1225.24l-.49,3.13c-.56.45-5.16.9-7.8.91,2.64,0,7.24-.46,7.8-.91Zm297.83,56.91a33.79,33.79,0,0,0-1.18-5.25,31.08,31.08,0,0,1,1.15,5.1Zm-1.21-5.33a2.22,2.22,0,0,0-.31-.51A2.22,2.22,0,0,1,438,1276.82Zm118.46-8.66c-.45-1.22,1.09-3.33.89-4.62-.11-.63-1.46-1.87-.82-1.75,2.87.55-.15,5.72,1.46,7.57A12.27,12.27,0,0,1,556.47,1268.16Zm651.12,278.08a.91.91,0,0,0,0,.79c1,2,3.62,2.29,6.48,2.15l-1.09,3.43a6.42,6.42,0,0,1-1.45-.31c-1.33-.48-1.53-3-2.65-3.77-.81-.53-2.49-.47-2.53-1.44C1206.31,1546.44,1207.09,1546.38,1207.59,1546.24Zm-326.2-478.36c0,.1-.09.21-.13.31C881.3,1068.09,881.34,1068,881.39,1067.88Zm-.31.69-.18.36Zm-.37.67c-.07.11-.14.22-.22.33C880.57,1069.46,880.64,1069.35,880.71,1069.24Zm-.4.56a3.9,3.9,0,0,1-.28.29A3.9,3.9,0,0,0,880.31,1069.8Zm-.45.45a2.66,2.66,0,0,1-.47.3A2.66,2.66,0,0,0,879.86,1070.25ZM1278,671.18a1.07,1.07,0,0,1,0,.27,1.07,1.07,0,0,0,0-.27l-2.4-2.07Zm17,716.48-.16,0Zm-.66-.14-.64-.11Zm-.8-.13-.54-.07Zm-.67-.08-.55,0ZM985.14,1099.74h0v0c-.06,0-.11.09-.16.12-1.25,1.1-1.4,3.36-1.84,4.94C983.61,1103.18,983.74,1100.79,985.14,1099.74Zm-2,5.17c0,.08,0,.16-.08.25C983.07,1105.07,983.1,1105,983.12,1104.91Zm-.13.39c0,.07,0,.12-.07.18S983,1105.37,983,1105.3Zm-.15.35a.47.47,0,0,1-.08.14A.47.47,0,0,0,982.84,1105.65Zm-.17.3a1.32,1.32,0,0,1-.21.25A1,1,0,0,0,982.67,1106Zm-2.34-36.17c-.16.38-.32.79-.48,1.19C980,1070.56,980.17,1070.16,980.33,1069.78Zm-25.27,83-1-.14Zm-1.42-.18-.43,0Zm-.94-.08h0Zm-2,0h0Zm-6.2,8.71a.79.79,0,0,0,.31-.13A.79.79,0,0,1,944.54,1161.31Zm.36-.16a.73.73,0,0,0,.22-.24A.73.73,0,0,1,944.9,1161.15Zm.24-.27a8.82,8.82,0,0,0,.52-2.88A8.82,8.82,0,0,1,945.14,1160.88Zm.58-3.33,0-.19Zm.13-.74,0-.14Zm.21-.77,0-.09Zm.64-1.35,0-.07Zm.52-.63h0Zm.65-.52h0Zm.78-.43h0Zm6.79,15.29h0Zm.52,0h0Zm1.12.18-.2,0Zm-.57-.11-.21,0Zm1.17.26-.15,0Zm81.27,81q.38,0,.72,0C1039.44,1249.72,1039.2,1249.72,1039,1249.73ZM1382,771.55a.34.34,0,0,1,.21.36.34.34,0,0,0-.21-.36l-4.66-.13Zm-2.07,6a.85.85,0,0,0,0,.29A.85.85,0,0,1,1380,777.56ZM1292.55,1085l-.26-.16Zm-1.29-.75-.18-.09Zm-112.59-177a42.8,42.8,0,0,0-8.67-4.81l-2.38.86,2.38-.86A42.8,42.8,0,0,1,1178.67,907.25Zm1.11,27.5a19.61,19.61,0,0,1,2.2,3.45c-.74-1.72-2.24-3.28-3.2-5A15.64,15.64,0,0,0,1179.78,934.75Zm-1-1.56a7.46,7.46,0,0,1-.35-.69A7.46,7.46,0,0,0,1178.74,933.19Zm3.58,6a5.16,5.16,0,0,0-.29-.92A5.16,5.16,0,0,1,1182.32,939.24ZM1266,728.3h0Zm-.5,0-.21,0Zm-4.15,2.86.1-.12Zm.37-.42.15-.16Zm.39-.4.16-.17Zm.39-.4.17-.15Zm.44-.38.19-.16Zm.54-.41a1,1,0,0,1,.17-.12A1,1,0,0,0,1263.43,729.19Zm.42-.27.2-.11Zm.44-.23.21-.09Zm.46-.18.21-.06Zm-10.21,8.86.08,0Zm.53-.21.09,0Zm.52-.26.07,0Zm-162.35,655.47c.07-.29.14-.58.22-.86C1093.38,1391.79,1093.31,1392.08,1093.24,1392.37Zm-.75,4.07c.06-.58.14-1.15.24-1.72C1092.63,1395.29,1092.55,1395.86,1092.49,1396.44Zm.29-2c.09-.48.19-1,.3-1.45C1093,1393.5,1092.87,1394,1092.78,1394.47Zm2.47-10.84v0Zm-1.23-7.88.07.14Zm.78,2.06a.23.23,0,0,1,0,.11A.23.23,0,0,0,1094.8,1377.81Zm.52,3a.17.17,0,0,1,0,.07A.17.17,0,0,0,1095.32,1380.76Zm65.58-328.36.2,0Zm-20.27,24.17c0-.06,0-.12,0-.18S1140.64,1076.51,1140.63,1076.57Zm.07-.52c0-.09,0-.19,0-.29C1140.73,1075.86,1140.71,1076,1140.7,1076.05Zm.12-.59c0-.12.06-.25.1-.38C1140.88,1075.21,1140.85,1075.34,1140.82,1075.46Zm.18-.63a6.93,6.93,0,0,1,.25-.67A6.93,6.93,0,0,0,1141,1074.83Zm18.2-22.6h0Zm1,.12h0Zm-14.63-3.61h0Zm-1.21-.43.13,0ZM1141,1047l.25.11Zm1.08.46.09,0Zm1.14.45h0Zm-6-3,.15.11Zm.52.37.2.13Zm.66.41.17.1Zm.88.48.11.06Zm.8.39.25.12Zm-5.66,37.71.89-.13Zm-40.88,290.64a1.28,1.28,0,0,0-.11-.2A1.28,1.28,0,0,1,1093.61,1374.94Zm179.46-289.68a10.09,10.09,0,0,0-.93.78A10.09,10.09,0,0,1,1273.07,1085.26Zm2-1.19-.12.07Zm-1,.54a4.73,4.73,0,0,0-.44.28A4.73,4.73,0,0,1,1274.08,1084.61Zm15.69-371.53-.25.18Zm1.07-.82-.08.07Zm-5.88,4.09c1.12-.89,2.41-1.67,3.66-2.49C1287.38,714.68,1286.08,715.46,1285,716.35Zm-1,.91a9.82,9.82,0,0,1,1-.86A9.82,9.82,0,0,0,1284,717.26Zm-.08.08a6.57,6.57,0,0,0-.8,1A6.57,6.57,0,0,1,1283.87,717.34Zm-33.3,20.31h0Zm-270.17,332c6.49-15.31,12.32-4.77,24.91-10.08C992.73,1064.86,986.89,1054.36,980.4,1069.63ZM919.49,965.47s0,0,.09-.06S919.51,965.47,919.49,965.47Zm.18-.17,0,0Zm6.73-15.79a0,0,0,0,1,0,0A0,0,0,0,0,926.4,949.51Zm-.25.68a.36.36,0,0,0,0-.11A.36.36,0,0,1,926.15,950.19Zm-3.54,9a.14.14,0,0,0,0-.06A.14.14,0,0,1,922.61,959.17Zm.75-1.8.16-.39Zm.31-.77c.07-.15.12-.3.18-.44C923.79,956.3,923.74,956.45,923.67,956.6Zm.35-.84c.05-.14.11-.28.17-.42C924.13,955.48,924.07,955.62,924,955.76Zm.41-1,.2-.51Zm.37-1c.05-.11.1-.23.14-.34C924.9,953.53,924.85,953.65,924.8,953.76Zm.32-.82.12-.29Zm.31-.8a.42.42,0,0,1,0-.1A.42.42,0,0,0,925.43,952.14Zm94.14,402.8-.06,0Zm19.29-105.2a8.83,8.83,0,0,1-3.33-.55A9,9,0,0,0,1038.86,1249.74Zm264.73,140.8-.56-.26Zm-.87-.41-.76-.32Zm-1.13-.47-.52-.2Zm-.95-.36-.7-.25Zm-1.33-.46-.27-.09Zm6.49,3.09a4.84,4.84,0,0,0-.47-.38A4.84,4.84,0,0,1,1305.8,1391.93Zm-.6-.47-.48-.3Zm-.71-.44-.66-.36Zm1.79,1.41a3.2,3.2,0,0,0-.36-.39A3.2,3.2,0,0,1,1306.28,1392.43Zm36.22-187.87h0l-3.46-2Zm2,3.73-.07-.12Zm-243.3-501.84c1.2,1.21,3.15,2.38,2,4.94C1102.46,713,1101.74,707.28,1101.24,706.45ZM927.71,945.15a1.86,1.86,0,0,0,0-.22A1.86,1.86,0,0,1,927.71,945.15Zm-.57,2.18,0-.11Zm.15-.5a.54.54,0,0,0,0-.1A.54.54,0,0,1,927.29,946.83Zm.22-.75a.36.36,0,0,0,0-.1A.36.36,0,0,1,927.51,946.08Zm.07-.3c0-.07,0-.13,0-.19S927.6,945.71,927.58,945.78Zm.08-.35,0-.18Zm-180.75,164a1.2,1.2,0,0,0,0-.27A1.2,1.2,0,0,1,746.91,1109.4Zm-2.49-6c0,.09.07.19.11.28C744.49,1103.64,744.45,1103.54,744.42,1103.45Zm.15.39q.06.15.15.33Q744.63,1104,744.57,1103.84Zm.18.39a42,42,0,0,1,1.94,3.85A42,42,0,0,0,744.75,1104.23Zm2,5.67a1.17,1.17,0,0,1-.21.3A1.17,1.17,0,0,0,746.78,1109.9Zm-.07-1.74a2.91,2.91,0,0,1,.12.39A2.91,2.91,0,0,0,746.71,1108.16Zm.15.52c0,.1,0,.21,0,.31C746.9,1108.89,746.88,1108.78,746.86,1108.68Zm0,.86a1.82,1.82,0,0,1-.07.25A1.82,1.82,0,0,0,746.9,1109.54Zm-2.48-6.09a1.58,1.58,0,0,1-.09-.64l1,.14ZM645,973l.1-.15Zm-1.17,2q.08-.16.18-.36Q643.86,974.84,643.78,975Zm.22-.43q.09-.15.18-.33Q644.09,974.42,644,974.57Zm.25-.45.19-.31Zm.32-.52.16-.25ZM659,936.93a2.12,2.12,0,0,0,.16.42l-.3-.05Zm-6.89-.41h0Zm-.59-.12-.1,0Zm-.52-.14-.13,0Zm-.45-.15-.13-.05Zm-.37-.17-.1-.05Zm-2.54,61.13a2.18,2.18,0,0,1-.42-.28A2.54,2.54,0,0,0,647.59,997.07Zm-.52-.36c-.14-.1-.28-.22-.43-.35C646.79,996.49,646.93,996.61,647.07,996.71ZM807.25,1111h0c1.28-.75,1.19-3,2.52-3.67C808.44,1108,808.53,1110.28,807.25,1111ZM1022.19,1362c0,.16.08.31.12.44C1022.27,1362.27,1022.23,1362.12,1022.19,1362Zm62.2,130.18v0Zm583.49-424.21a2.93,2.93,0,0,1-.53.36,3.29,3.29,0,0,0,.53-.36,4.77,4.77,0,0,0,.67-1.77A4,4,0,0,1,1667.88,1067.93Z"/></g></g></svg>