<svg xmlns="http://www.w3.org/2000/svg" viewBox="0 0 14.72 14.2"><defs><style>.cls-1{fill:#fff;}</style></defs><title>location</title><g id="Livello_2" data-name="Livello 2"><g id="Livello_10" data-name="Livello 10"><path class="cls-1" d="M14.72,0V11.84c0,.12,0,.18-.14.22L9.78,14a.31.31,0,0,1-.23,0c-1-.38-2-.77-2.93-1.17a.22.22,0,0,0-.29.07L5.15,14.06c-.07.07-.12.07-.19,0-.39-.4-.79-.79-1.18-1.2a.21.21,0,0,0-.27-.06L.2,14.12,0,14.2c0-.06,0-.11,0-.15V2.34a.19.19,0,0,1,.14-.2L5,.22a.26.26,0,0,1,.21,0L9.54,2a.28.28,0,0,0,.25,0L14.57.05Zm-4.6,12.88.15-.05,3.44-1.38c.09,0,.11-.09.11-.18V1.32l-.16.05-3.4,1.36a.2.2,0,0,0-.15.22v9.78S10.12,12.82,10.12,12.88ZM5.51,1.31V5.53c0,.23,0,.23.22.28a3.26,3.26,0,0,1,2.41,4,6.88,6.88,0,0,1-1,2c0,.05-.07.11-.11.17l2.17.87a.72.72,0,0,0,0-.13q0-4.92,0-9.83c0-.1,0-.14-.13-.18L6,1.48Zm-.9,0-.15.05L1.07,2.72C.93,2.77.9,2.84.9,3v9.91L3.08,12C3,12,3,11.89,3,11.84a7.33,7.33,0,0,1-.83-1.5,3.31,3.31,0,0,1-.22-2A3.28,3.28,0,0,1,4.48,5.79c.11,0,.13-.06.13-.17V1.32ZM5,12.93l.06,0A9.81,9.81,0,0,0,7,10.42a3.11,3.11,0,0,0,.4-1.61,2.21,2.21,0,0,0-.76-1.63A2.25,2.25,0,0,0,5,6.63,2.15,2.15,0,0,0,3,7.94a2.57,2.57,0,0,0,0,2A7.34,7.34,0,0,0,4.28,12.1C4.52,12.38,4.78,12.65,5,12.93Z"/><path class="cls-1" d="M5.06,7.57A1.48,1.48,0,0,1,6.43,8.94a1.48,1.48,0,0,1-1.38,1.37A1.47,1.47,0,0,1,3.69,8.93,1.48,1.48,0,0,1,5.06,7.57ZM4.59,8.93c0,.34.13.48.46.48s.48-.14.48-.46-.14-.48-.46-.48S4.59,8.6,4.59,8.93Z"/></g></g></svg>