<svg xmlns="http://www.w3.org/2000/svg" viewBox="0 0 24.82 21.23"><defs><style>.cls-1{fill:#b14d74;}</style></defs><title>vinificazione</title><g id="Livello_2" data-name="Livello 2"><g id="Livello_10" data-name="Livello 10"><path class="cls-1" d="M18.84.9C19,.2,19.27,0,19.92,0l.57.05a.91.91,0,0,1,1,1v.18l1.39.26a2.75,2.75,0,0,1,1.3.43,1.63,1.63,0,0,1,.66,1.31V9.49c0,1,0,2,0,3.06s0,1.82,0,2.73A1.7,1.7,0,0,1,23.4,17c-.58.12-1.17.22-1.75.32-.14,0-.18.08-.18.22a.91.91,0,0,1-1,1l-.57,0c-.66,0-1-.19-1.07-.87h-.34a40.07,40.07,0,0,1-6.1.13c-.61,0-1.23-.09-1.84-.14a.21.21,0,0,0-.25.16.79.79,0,0,1-.79.53,7.77,7.77,0,0,1-1-.08.8.8,0,0,1-.72-.79c0-.15-.06-.19-.19-.21L5.89,17a1.84,1.84,0,0,1-1.47-1.78c0-1,0-2.07,0-3.1v-.27H1.2a.58.58,0,0,0-.62.64v1.85a.82.82,0,0,1,0,.22.27.27,0,0,1-.3.21A.26.26,0,0,1,0,14.52c0-.73,0-1.47,0-2.2a1.14,1.14,0,0,1,1.15-1H1.8V10c0-.4,0-.4-.41-.4H.86c-.18,0-.3-.08-.31-.27S.68,9.1.86,9.1H3.31c.18,0,.3.08.31.26s-.12.28-.32.28H2.38v1.64h2V9.72c0-1.4,0-2.8,0-4.21,0-.72,0-1.45,0-2.17A1.7,1.7,0,0,1,5.89,1.6l1.94-.36a1.45,1.45,0,0,1,0-.3A.81.81,0,0,1,8.55.3c.31,0,.63-.09.94-.11a.79.79,0,0,1,.82.54.2.2,0,0,0,.26.16A42.72,42.72,0,0,1,17.9.82Zm0,4.35-.18,0a68.07,68.07,0,0,0-8.08,0c-.18,0-.22.08-.22.24,0,1.12,0,2.23,0,3.35,0,.29,0,.29.29.29h8l.24,0ZM10.39,9.66v3.7a56.88,56.88,0,0,0,8.46,0V9.66Zm0,4.28,0,.08c0,1,0,2,0,3a.21.21,0,0,0,.15.15c1.06.08,2.12.16,3.19.2a38.79,38.79,0,0,0,4.94-.18c.17,0,.21-.07.21-.23,0-.93,0-1.86,0-2.79a1.1,1.1,0,0,0,0-.18A64.08,64.08,0,0,1,10.41,13.94Zm8.44-9.28a2.27,2.27,0,0,0,0-.24c0-.9,0-1.8,0-2.71,0-.18-.05-.23-.23-.25a41.64,41.64,0,0,0-8,0c-.16,0-.22.06-.22.24,0,.92,0,1.85,0,2.77a1.54,1.54,0,0,0,0,.19A62.7,62.7,0,0,1,18.85,4.66Zm2,4.65h0V1q0-.36-.3-.39c-.29,0-.57-.06-.86-.07s-.3.1-.31.32,0,.46,0,.7V5.31c0,2.77,0,5.55,0,8.33,0,1.34,0,2.68,0,4,0,.29.11.41.4.39l.72-.06a.34.34,0,0,0,.35-.38V9.31Zm-12.46,0v8.1c0,.17,0,.32.23.35l.8.11a.3.3,0,0,0,.38-.34V1.1A.32.32,0,0,0,9.45.74L8.72.81a.29.29,0,0,0-.3.34V9.28ZM7.84,5.45H7.71c-.83.1-1.66.22-2.5.31C5,5.79,5,5.85,5,6,5,7,5,7.91,5,8.85A1.1,1.1,0,0,0,5,9H7.84Zm0,7.72c0-.07,0-.1,0-.13V9.81c0-.15-.07-.17-.19-.17H5.17c-.15,0-.21,0-.2.2v2.77c0,.16.06.2.2.22L6.1,13ZM24.21,9.09s0-.05,0-.07c0-1,0-2,0-3,0-.06-.09-.14-.15-.16-.24,0-.48-.07-.72-.1l-1.88-.25V9.09Zm-2.73.57v3.52l.21,0c.79-.11,1.57-.22,2.36-.31.17,0,.2-.09.2-.24,0-.93,0-1.86,0-2.79,0-.05,0-.1,0-.16ZM7.85,16.83c0-1,0-2,0-3,0,0-.11-.12-.17-.13l-1.9-.25L5,13.37c0,.73,0,1.44,0,2.14a1,1,0,0,0,.84.92C6.5,16.58,7.16,16.69,7.85,16.83Zm13.64-15V4.93l2.76.37a.81.81,0,0,0,0-.09c0-.66,0-1.32,0-2a1.09,1.09,0,0,0-.87-1l-.49-.1ZM5,5.24h.23l2.42-.32c.17,0,.21-.07.21-.24V2.05a1.1,1.1,0,0,0,0-.18s-.06,0-.08,0c-.64.11-1.29.22-1.92.35A1.11,1.11,0,0,0,5,3.28v2ZM21.48,16.8c.65-.13,1.27-.24,1.88-.38a1.11,1.11,0,0,0,.92-1.15V13.58a1.37,1.37,0,0,0,0-.19l-2.78.37Z"/><path class="cls-1" d="M9,20.69c.38,0,.72,0,1.06,0,.07,0,.16-.09.2-.16l.93-1.67c0-.07.11-.17.18-.18a.37.37,0,0,1,.3.08.36.36,0,0,1,0,.32c-.24.46-.5.91-.76,1.37,0,.07-.07.14-.12.23h7.53l-.47-.86c-.14-.25-.28-.49-.41-.74a.29.29,0,0,1,.08-.42c.15-.08.3,0,.4.16l.94,1.7a.28.28,0,0,0,.31.18c.31,0,.62,0,1,0l-.4-.68-.32-.53c-.11-.2-.08-.38.06-.47s.33,0,.45.18c.26.45.53.88.78,1.33a.28.28,0,0,0,.3.17c.32,0,.64,0,1,0s.39.08.39.26-.11.28-.39.28H7.11c-.22,0-.33-.11-.32-.28s.13-.26.31-.26c.35,0,.69,0,1,0a.32.32,0,0,0,.33-.19c.24-.44.5-.88.76-1.31.12-.21.29-.28.45-.18s.17.26.06.46l-.58,1A2.3,2.3,0,0,0,9,20.69Z"/><path class="cls-1" d="M2,13.29v1.14c0,.22-.1.35-.27.35s-.27-.12-.27-.35c0-.46,0-.92,0-1.37a.27.27,0,0,1,.31-.31H3.31c.19,0,.31.08.31.27s-.13.27-.31.27Z"/></g></g></svg>