<svg xmlns="http://www.w3.org/2000/svg" viewBox="0 0 28.2 28.2"><defs><style>.cls-1{fill:#b14d74;}</style></defs><title>vinificazione</title><g id="Livello_2" data-name="Livello 2"><g id="Livello_10" data-name="Livello 10"><path class="cls-1" d="M21.41,1.2C21.55.27,21.89,0,22.64,0c.22,0,.43,0,.65.06.75,0,1.1.49,1.11,1.36v.23L26,2a2.84,2.84,0,0,1,1.47.58,2.29,2.29,0,0,1,.75,1.74q0,4.14,0,8.28c0,1.36,0,2.71,0,4.07,0,1.21,0,2.42,0,3.63a2.18,2.18,0,0,1-1.61,2.3c-.66.16-1.32.3-2,.43-.16,0-.2.1-.21.28,0,.89-.34,1.29-1.1,1.36l-.65.06c-.76.05-1.09-.26-1.22-1.16-.13,0-.26,0-.39,0a40,40,0,0,1-6.92.18c-.7-.05-1.4-.12-2.1-.19-.16,0-.23,0-.29.21a.92.92,0,0,1-.89.71,10.24,10.24,0,0,1-1.1-.11,1,1,0,0,1-.81-1.06c0-.19-.06-.25-.21-.27l-2-.43A2.36,2.36,0,0,1,5,20.25V15.77l-.17,0H1.37c-.45,0-.71.33-.71.86v2.46a1.46,1.46,0,0,1,0,.29.31.31,0,0,1-.34.27A.32.32,0,0,1,0,19.29c0-1,0-1.95,0-2.93A1.38,1.38,0,0,1,1.33,15H2V13.33c0-.52,0-.52-.46-.52H1a.36.36,0,0,1,0-.72H3.76a.33.33,0,0,1,.36.35.35.35,0,0,1-.37.37h-1V15H5V7.33c0-1,0-1.93,0-2.9A2.18,2.18,0,0,1,6.7,2.13l2.2-.49a2.45,2.45,0,0,1,0-.39A1,1,0,0,1,9.72.4,7.64,7.64,0,0,1,10.79.26a.89.89,0,0,1,.93.71c.06.19.13.23.29.21a41.41,41.41,0,0,1,8.33-.09Zm0,5.78-.22,0a67,67,0,0,0-9.18,0c-.2,0-.25.1-.24.31V11.7c0,.39,0,.39.32.39h9l.28,0ZM11.8,12.83v4.92a55.19,55.19,0,0,0,9.62,0v-5Zm0,5.69a.62.62,0,0,0,0,.11c0,1.31,0,2.63,0,3.95a.27.27,0,0,0,.17.2c1.2.09,2.41.21,3.62.25a37.75,37.75,0,0,0,5.62-.23c.19,0,.23-.1.23-.31,0-1.23,0-2.47,0-3.71,0-.07,0-.15,0-.24A61.28,61.28,0,0,1,11.83,18.52ZM21.42,6.19c0-.14,0-.23,0-.32,0-1.2,0-2.4,0-3.59,0-.24-.06-.32-.26-.34a40.49,40.49,0,0,0-9.14,0c-.19,0-.26.09-.26.32,0,1.22,0,2.45,0,3.68a2.5,2.5,0,0,0,0,.25A59.3,59.3,0,0,1,21.42,6.19Zm2.3,6.18h0v-11c0-.32-.11-.49-.33-.52s-.65-.07-1-.09-.35.13-.35.42,0,.62,0,.93V7.05q0,5.54,0,11.07c0,1.78,0,3.56,0,5.34,0,.39.13.54.46.52l.82-.08c.27,0,.39-.18.39-.5s0-.72,0-1.08v-10Zm-14.15,0V23.1c0,.22,0,.41.26.45s.61.12.91.16.43-.13.43-.45V1.47c0-.35-.14-.51-.43-.49s-.55.07-.83.09-.35.18-.35.46,0,.74,0,1.11ZM8.91,7.24H8.76l-2.83.42c-.21,0-.26.12-.26.35,0,1.25,0,2.5,0,3.74,0,.09,0,.17,0,.25H8.91Zm0,10.26a1,1,0,0,0,0-.17V13c0-.2-.08-.22-.22-.22H5.88c-.17,0-.24.06-.24.27,0,1.22,0,2.45,0,3.68,0,.21.08.26.23.29l1.07.17Zm18.62-5.43c0-.05,0-.06,0-.08,0-1.35,0-2.69,0-4a.28.28,0,0,0-.17-.2,7.39,7.39,0,0,0-.82-.14l-2.13-.33v4.79Zm-3.1.76v4.68l.24,0,2.68-.41c.19,0,.23-.11.23-.31,0-1.24,0-2.48,0-3.72a1.83,1.83,0,0,0,0-.21ZM8.92,22.36c0-1.37,0-2.66,0-4,0-.06-.12-.16-.2-.17C8,18.11,7.28,18,6.56,17.9l-.88-.14c0,1,0,1.91,0,2.84a1.31,1.31,0,0,0,1,1.22C7.38,22,8.13,22.17,8.92,22.36ZM24.41,2.45V6.56L27.55,7a.3.3,0,0,0,0-.11c0-.87,0-1.75,0-2.63a1.4,1.4,0,0,0-1-1.37L26,2.79ZM5.67,7l.26,0c.91-.14,1.83-.29,2.75-.41.19,0,.24-.11.24-.32,0-1.16,0-2.32,0-3.48a2,2,0,0,0,0-.25s-.07,0-.09,0c-.73.15-1.46.29-2.19.47a1.44,1.44,0,0,0-1,1.41V7ZM24.41,22.31c.73-.17,1.44-.31,2.14-.49a1.44,1.44,0,0,0,1-1.53V18c0-.08,0-.15,0-.25l-3.16.49Z"/><path class="cls-1" d="M10.27,27.48c.44,0,.82,0,1.2,0,.08,0,.19-.11.23-.21.36-.73.71-1.48,1.07-2.22,0-.09.12-.23.19-.24a.42.42,0,0,1,.35.11.55.55,0,0,1,0,.42c-.27.62-.56,1.22-.85,1.82,0,.09-.08.19-.14.31h8.56l-.54-1.15c-.15-.32-.31-.64-.46-1a.42.42,0,0,1,.09-.56c.16-.11.33,0,.45.22.36.74.72,1.49,1.07,2.25a.33.33,0,0,0,.35.24c.35,0,.71,0,1.12,0l-.45-.9-.36-.7a.49.49,0,0,1,.07-.63c.16-.12.37,0,.51.25.3.59.6,1.17.88,1.76a.34.34,0,0,0,.34.23c.37,0,.73,0,1.1,0s.45.11.46.36-.14.36-.45.36H8.25a1,1,0,0,1-.17,0c-.25,0-.38-.14-.37-.37a.33.33,0,0,1,.36-.35c.39,0,.78,0,1.18,0a.36.36,0,0,0,.37-.25c.28-.59.58-1.17.87-1.75.14-.27.33-.36.51-.24s.2.36.07.62l-.66,1.31Z"/><path class="cls-1" d="M2.26,17.65v1.52c0,.3-.11.47-.31.46s-.3-.15-.3-.47c0-.6,0-1.21,0-1.81,0-.28.1-.41.35-.41.59,0,1.18,0,1.78,0a.31.31,0,0,1,.34.35.32.32,0,0,1-.34.36C3.28,17.66,2.79,17.65,2.26,17.65Z"/></g></g></svg>